<svg xmlns="http://www.w3.org/2000/svg" xmlns:xlink="http://www.w3.org/1999/xlink" width="84" zoomAndPan="magnify" viewBox="0 0 63 43.499998" height="58" preserveAspectRatio="xMidYMid meet" version="1.0"><defs><clipPath id="4321f94ade"><path d="M 0.359375 0 L 61.902344 0 L 61.902344 43 L 0.359375 43 Z M 0.359375 0 " clip-rule="nonzero"/></clipPath><clipPath id="dd8688514a"><path d="M 0.359375 0 L 61.902344 0 L 61.902344 43 L 0.359375 43 Z M 0.359375 0 " clip-rule="nonzero"/></clipPath></defs><g clip-path="url(#4321f94ade)"><path fill="#1c1b1b" d="M 60.371094 4.613281 L 60.371094 3.082031 L 37.289062 3.082031 L 37.289062 1.539062 L 35.753906 1.539062 L 35.753906 0.0078125 L 26.519531 0.0078125 L 26.519531 1.539062 L 24.976562 1.539062 L 24.976562 3.082031 L 21.902344 3.082031 L 21.902344 4.613281 L 18.824219 4.613281 L 18.824219 6.15625 L 11.128906 6.15625 L 11.128906 3.074219 L 12.664062 3.074219 L 12.664062 1.539062 L 11.128906 1.539062 L 11.128906 0.0078125 L 3.4375 0.0078125 L 3.4375 1.539062 L 1.894531 1.539062 L 1.894531 3.074219 L 3.429688 3.074219 L 3.4375 3.082031 L 3.4375 6.15625 L 1.902344 6.15625 L 1.902344 7.6875 L 0.359375 7.6875 L 0.359375 41.464844 L 1.894531 41.464844 L 1.894531 43 L 60.363281 43 L 60.363281 41.464844 L 61.902344 41.464844 L 61.902344 4.613281 Z M 60.371094 4.613281 " fill-opacity="1" fill-rule="nonzero"/></g><path fill="#d6c4ab" d="M 58.828125 38.390625 L 58.828125 41.464844 L 60.371094 41.464844 L 60.371094 38.390625 Z M 58.828125 38.390625 " fill-opacity="1" fill-rule="nonzero"/><path fill="#c43d3d" d="M 58.828125 16.894531 L 58.828125 38.390625 L 60.371094 38.390625 L 60.371094 16.894531 Z M 58.828125 16.894531 " fill-opacity="1" fill-rule="nonzero"/><path fill="#d8cbb7" d="M 58.828125 4.613281 L 58.828125 15.363281 L 60.371094 15.363281 L 60.371094 4.613281 Z M 58.828125 4.613281 " fill-opacity="1" fill-rule="nonzero"/><path fill="#d73131" d="M 57.292969 32.25 L 55.753906 32.25 L 55.753906 30.71875 L 54.21875 30.71875 L 54.21875 29.175781 L 52.675781 29.175781 L 52.675781 27.644531 L 51.136719 27.644531 L 51.136719 26.109375 L 49.601562 26.109375 L 49.601562 24.578125 L 46.523438 24.578125 L 46.523438 23.035156 L 44.984375 23.035156 L 44.984375 21.503906 L 43.441406 21.503906 L 43.441406 32.25 L 41.90625 32.25 L 41.90625 35.324219 L 40.371094 35.324219 L 40.371094 36.859375 L 37.289062 36.859375 L 37.289062 38.390625 L 58.828125 38.390625 L 58.828125 32.25 Z M 57.292969 32.25 " fill-opacity="1" fill-rule="nonzero"/><path fill="#50a095" d="M 54.21875 7.679688 L 49.601562 7.679688 L 49.601562 9.222656 L 48.058594 9.222656 L 48.058594 10.753906 L 46.523438 10.753906 L 46.523438 12.289062 L 52.675781 12.289062 L 52.675781 10.753906 L 54.21875 10.753906 L 54.21875 9.222656 L 55.753906 9.222656 L 55.753906 7.679688 Z M 54.21875 7.679688 " fill-opacity="1" fill-rule="nonzero"/><path fill="#50a095" d="M 38.824219 7.679688 L 34.210938 7.679688 L 34.210938 9.222656 L 40.371094 9.222656 L 40.371094 10.753906 L 34.210938 10.753906 L 34.210938 12.289062 L 41.90625 12.289062 L 41.90625 7.679688 Z M 38.824219 7.679688 " fill-opacity="1" fill-rule="nonzero"/><path fill="#f5e1c4" d="M 57.292969 38.390625 L 35.753906 38.390625 L 35.753906 39.925781 L 29.59375 39.925781 L 29.59375 41.464844 L 58.828125 41.464844 L 58.828125 38.390625 Z M 57.292969 38.390625 " fill-opacity="1" fill-rule="nonzero"/><path fill="#95ddd2" d="M 32.671875 24.578125 L 32.671875 26.109375 L 31.136719 26.109375 L 31.136719 27.644531 L 29.59375 27.644531 L 29.59375 26.109375 L 28.054688 26.109375 L 28.054688 30.71875 L 31.136719 30.71875 L 31.136719 29.175781 L 32.671875 29.175781 L 32.671875 27.644531 L 34.210938 27.644531 L 34.210938 24.578125 Z M 32.671875 24.578125 " fill-opacity="1" fill-rule="nonzero"/><path fill="#95ddd2" d="M 31.136719 23.035156 L 32.671875 23.035156 L 32.671875 24.570312 L 31.136719 24.570312 Z M 31.136719 23.035156 " fill-opacity="1" fill-rule="nonzero"/><path fill="#95ddd2" d="M 29.59375 24.578125 L 31.128906 24.578125 L 31.128906 26.109375 L 29.59375 26.109375 Z M 29.59375 24.578125 " fill-opacity="1" fill-rule="nonzero"/><path fill="#67cebf" d="M 54.21875 9.222656 L 54.21875 10.753906 L 52.675781 10.753906 L 52.675781 12.289062 L 55.753906 12.289062 L 55.753906 9.222656 Z M 54.21875 9.222656 " fill-opacity="1" fill-rule="nonzero"/><path fill="#67cebf" d="M 46.523438 7.679688 L 46.523438 10.753906 L 48.058594 10.753906 L 48.058594 9.222656 L 49.601562 9.222656 L 49.601562 7.679688 Z M 46.523438 7.679688 " fill-opacity="1" fill-rule="nonzero"/><path fill="#67cebf" d="M 37.289062 9.222656 L 34.210938 9.222656 L 34.210938 10.753906 L 40.371094 10.753906 L 40.371094 9.222656 Z M 37.289062 9.222656 " fill-opacity="1" fill-rule="nonzero"/><path fill="#67cebf" d="M 32.671875 29.175781 L 31.136719 29.175781 L 31.136719 30.71875 L 34.210938 30.71875 L 34.210938 27.644531 L 32.671875 27.644531 Z M 32.671875 29.175781 " fill-opacity="1" fill-rule="nonzero"/><path fill="#67cebf" d="M 32.671875 23.035156 L 34.210938 23.035156 L 34.210938 24.570312 L 32.671875 24.570312 Z M 32.671875 23.035156 " fill-opacity="1" fill-rule="nonzero"/><path fill="#67cebf" d="M 31.136719 24.578125 L 32.671875 24.578125 L 32.671875 26.109375 L 31.136719 26.109375 Z M 31.136719 24.578125 " fill-opacity="1" fill-rule="nonzero"/><path fill="#67cebf" d="M 29.59375 26.109375 L 31.128906 26.109375 L 31.128906 27.644531 L 29.59375 27.644531 Z M 29.59375 26.109375 " fill-opacity="1" fill-rule="nonzero"/><path fill="#67cebf" d="M 31.136719 24.578125 L 31.136719 23.035156 L 28.054688 23.035156 L 28.054688 26.109375 L 29.59375 26.109375 L 29.59375 24.578125 Z M 31.136719 24.578125 " fill-opacity="1" fill-rule="nonzero"/><path fill="#e04949" d="M 8.054688 24.578125 L 9.589844 24.578125 L 9.589844 26.109375 L 8.054688 26.109375 Z M 8.054688 24.578125 " fill-opacity="1" fill-rule="nonzero"/><path fill="#e97e7e" d="M 6.511719 16.894531 L 4.972656 16.894531 L 4.972656 38.390625 L 8.054688 38.390625 L 8.054688 16.894531 Z M 6.511719 16.894531 " fill-opacity="1" fill-rule="nonzero"/><path fill="#f9efe0" d="M 6.511719 7.679688 L 4.972656 7.679688 L 4.972656 15.363281 L 8.054688 15.363281 L 8.054688 7.679688 Z M 6.511719 7.679688 " fill-opacity="1" fill-rule="nonzero"/><path fill="#f9efe0" d="M 4.972656 38.390625 L 4.972656 41.464844 L 8.054688 41.464844 L 8.054688 38.390625 Z M 4.972656 38.390625 " fill-opacity="1" fill-rule="nonzero"/><path fill="#333333" d="M 34.855469 1.539062 L 31.523438 1.539062 L 31.523438 1.542969 L 31.515625 1.539062 L 26.519531 1.539062 L 26.519531 3.640625 L 31.515625 3.640625 L 31.523438 3.636719 L 31.523438 3.640625 L 36.519531 3.640625 L 36.519531 1.539062 Z M 34.855469 1.539062 " fill-opacity="1" fill-rule="nonzero"/><path fill="#333333" d="M 37.289062 21.503906 L 37.289062 19.96875 L 35.753906 19.96875 L 35.746094 19.980469 L 35.746094 18.429688 L 34.210938 18.429688 L 34.210938 16.894531 L 31.136719 16.894531 L 31.136719 16.902344 L 31.128906 16.894531 L 28.054688 16.894531 L 28.054688 18.429688 L 26.519531 18.429688 L 26.519531 19.960938 L 26.53125 19.960938 L 26.519531 19.96875 L 26.519531 19.980469 L 26.511719 19.96875 L 24.976562 19.96875 L 24.976562 21.503906 L 23.441406 21.503906 L 23.441406 24.570312 L 23.445312 24.570312 L 23.441406 24.578125 L 23.441406 30.710938 L 23.445312 30.710938 L 23.441406 30.71875 L 23.441406 32.25 L 24.976562 32.25 L 24.976562 33.785156 L 26.511719 33.785156 L 26.519531 33.773438 L 26.519531 35.316406 L 31.128906 35.316406 L 31.136719 35.3125 L 31.136719 35.316406 L 35.746094 35.316406 L 35.746094 33.777344 L 35.753906 33.785156 L 37.289062 33.785156 L 37.289062 32.25 L 38.824219 32.25 L 38.824219 30.71875 L 38.820312 30.710938 L 38.824219 30.710938 L 38.824219 24.578125 L 38.820312 24.578125 L 38.824219 24.570312 L 38.824219 21.503906 Z M 35.753906 30.71875 L 35.746094 30.726562 L 35.746094 30.71875 L 34.210938 30.71875 L 34.210938 32.25 L 31.136719 32.25 L 31.136719 32.253906 L 31.128906 32.25 L 28.054688 32.25 L 28.054688 30.71875 L 26.519531 30.71875 L 26.519531 30.726562 L 26.511719 30.71875 L 26.507812 30.710938 L 26.511719 30.710938 L 26.511719 24.578125 L 26.507812 24.570312 L 26.511719 24.570312 L 26.511719 23.035156 L 26.519531 23.027344 L 26.519531 23.035156 L 28.054688 23.035156 L 28.054688 21.503906 L 34.210938 21.503906 L 34.210938 23.035156 L 35.746094 23.035156 L 35.746094 23.019531 L 35.753906 23.035156 L 35.753906 24.570312 L 35.757812 24.578125 L 35.753906 24.578125 L 35.753906 30.710938 L 35.757812 30.710938 Z M 35.753906 30.71875 " fill-opacity="1" fill-rule="nonzero"/><path fill="#333333" d="M 8.054688 4.613281 L 8.046875 4.621094 L 8.046875 4.613281 L 4.972656 4.613281 L 4.972656 6.148438 L 8.046875 6.148438 L 8.046875 6.140625 L 8.054688 6.148438 L 9.589844 6.148438 L 9.589844 4.613281 Z M 8.054688 4.613281 " fill-opacity="1" fill-rule="nonzero"/><path fill="#333333" d="M 9.589844 1.539062 L 8.054688 1.539062 L 8.054688 1.542969 L 8.046875 1.539062 L 3.4375 1.539062 L 3.4375 3.074219 L 8.046875 3.074219 L 8.054688 3.070312 L 8.054688 3.074219 L 11.128906 3.074219 L 11.128906 1.539062 Z M 9.589844 1.539062 " fill-opacity="1" fill-rule="nonzero"/><path fill="#e04646" d="M 57.292969 16.894531 L 40.371094 16.894531 L 40.371094 18.429688 L 41.90625 18.429688 L 41.90625 19.96875 L 43.441406 19.96875 L 43.441406 21.503906 L 44.984375 21.503906 L 44.984375 23.035156 L 46.523438 23.035156 L 46.523438 24.578125 L 49.601562 24.578125 L 49.601562 26.109375 L 51.136719 26.109375 L 51.136719 27.644531 L 52.675781 27.644531 L 52.675781 29.175781 L 54.21875 29.175781 L 54.21875 30.71875 L 55.753906 30.71875 L 55.753906 32.25 L 58.828125 32.25 L 58.828125 16.894531 Z M 57.292969 16.894531 " fill-opacity="1" fill-rule="nonzero"/><path fill="#e04646" d="M 23.441406 35.324219 L 21.902344 35.324219 L 21.902344 33.785156 L 20.359375 33.785156 L 20.359375 32.25 L 18.824219 32.25 L 18.824219 19.96875 L 20.359375 19.96875 L 20.359375 18.429688 L 21.902344 18.429688 L 21.902344 16.894531 L 8.054688 16.894531 L 8.054688 24.578125 L 9.589844 24.578125 L 9.589844 26.109375 L 8.054688 26.109375 L 8.054688 38.390625 L 24.976562 38.390625 L 24.976562 36.859375 L 23.441406 36.859375 Z M 23.441406 35.324219 " fill-opacity="1" fill-rule="nonzero"/><path fill="#e04646" d="M 1.894531 18.429688 L 1.894531 38.390625 L 3.4375 38.390625 L 3.4375 16.894531 L 1.894531 16.894531 Z M 1.894531 18.429688 " fill-opacity="1" fill-rule="nonzero"/><path fill="#f7e8d2" d="M 55.753906 4.613281 L 21.902344 4.613281 L 21.902344 6.148438 L 18.824219 6.148438 L 18.824219 7.679688 L 8.054688 7.679688 L 8.054688 15.355469 L 58.835938 15.355469 L 58.835938 4.613281 Z M 43.441406 13.828125 L 32.671875 13.828125 L 32.671875 6.15625 L 43.441406 6.15625 Z M 57.292969 7.679688 L 57.292969 13.820312 L 44.976562 13.820312 L 44.976562 6.148438 L 57.292969 6.148438 Z M 57.292969 7.679688 " fill-opacity="1" fill-rule="nonzero"/><path fill="#f7e8d2" d="M 38.824219 33.785156 L 37.289062 33.785156 L 37.289062 35.324219 L 40.371094 35.324219 L 40.371094 32.25 L 38.824219 32.25 Z M 38.824219 33.785156 " fill-opacity="1" fill-rule="nonzero"/><path fill="#f7e8d2" d="M 40.371094 18.429688 L 38.824219 18.429688 L 38.824219 16.894531 L 35.753906 16.894531 L 35.753906 18.429688 L 37.289062 18.429688 L 37.289062 19.96875 L 38.824219 19.96875 L 38.824219 21.503906 L 40.371094 21.503906 L 40.371094 32.25 L 41.90625 32.25 L 41.90625 19.96875 L 40.371094 19.96875 Z M 40.371094 18.429688 " fill-opacity="1" fill-rule="nonzero"/><path fill="#f7e8d2" d="M 35.753906 35.324219 L 37.289062 35.324219 L 37.289062 36.859375 L 35.753906 36.859375 Z M 35.753906 35.324219 " fill-opacity="1" fill-rule="nonzero"/><path fill="#f7e8d2" d="M 32.671875 36.859375 L 26.519531 36.859375 L 26.519531 38.390625 L 35.753906 38.390625 L 35.753906 36.859375 Z M 32.671875 36.859375 " fill-opacity="1" fill-rule="nonzero"/><path fill="#f7e8d2" d="M 24.976562 35.324219 L 26.511719 35.324219 L 26.511719 36.859375 L 24.976562 36.859375 Z M 24.976562 35.324219 " fill-opacity="1" fill-rule="nonzero"/><path fill="#f7e8d2" d="M 23.441406 38.390625 L 8.054688 38.390625 L 8.054688 41.464844 L 29.59375 41.464844 L 29.59375 39.925781 L 26.519531 39.925781 L 26.519531 38.390625 Z M 23.441406 38.390625 " fill-opacity="1" fill-rule="nonzero"/><path fill="#f7e8d2" d="M 23.441406 33.785156 L 24.976562 33.785156 L 24.976562 35.316406 L 23.441406 35.316406 Z M 23.441406 33.785156 " fill-opacity="1" fill-rule="nonzero"/><path fill="#f7e8d2" d="M 21.902344 32.25 L 23.441406 32.25 L 23.441406 33.785156 L 21.902344 33.785156 Z M 21.902344 32.25 " fill-opacity="1" fill-rule="nonzero"/><path fill="#f7e8d2" d="M 26.519531 16.894531 L 23.441406 16.894531 L 23.441406 18.429688 L 21.902344 18.429688 L 21.902344 19.96875 L 20.359375 19.96875 L 20.359375 32.25 L 21.902344 32.25 L 21.902344 21.503906 L 23.441406 21.503906 L 23.441406 19.96875 L 24.976562 19.96875 L 24.976562 18.429688 L 26.519531 18.429688 Z M 26.519531 16.894531 " fill-opacity="1" fill-rule="nonzero"/><path fill="#f7e8d2" d="M 1.894531 39.925781 L 1.894531 41.464844 L 3.4375 41.464844 L 3.4375 38.390625 L 1.894531 38.390625 Z M 1.894531 39.925781 " fill-opacity="1" fill-rule="nonzero"/><path fill="#f7e8d2" d="M 1.894531 9.222656 L 1.894531 15.363281 L 3.4375 15.363281 L 3.4375 7.679688 L 1.894531 7.679688 Z M 1.894531 9.222656 " fill-opacity="1" fill-rule="nonzero"/><g clip-path="url(#dd8688514a)"><path fill="#1c1b1b" d="M 60.371094 4.613281 L 60.371094 3.082031 L 37.289062 3.082031 L 37.289062 1.539062 L 35.753906 1.539062 L 35.753906 0.0078125 L 26.519531 0.0078125 L 26.519531 1.539062 L 24.976562 1.539062 L 24.976562 3.082031 L 21.902344 3.082031 L 21.902344 4.613281 L 18.824219 4.613281 L 18.824219 6.15625 L 11.128906 6.15625 L 11.128906 3.074219 L 12.664062 3.074219 L 12.664062 1.539062 L 11.128906 1.539062 L 11.128906 0.0078125 L 3.4375 0.0078125 L 3.4375 1.539062 L 1.894531 1.539062 L 1.894531 3.074219 L 3.429688 3.074219 L 3.4375 3.082031 L 3.4375 6.15625 L 1.902344 6.15625 L 1.902344 7.6875 L 0.359375 7.6875 L 0.359375 41.464844 L 1.894531 41.464844 L 1.894531 43 L 60.363281 43 L 60.363281 41.464844 L 61.902344 41.464844 L 61.902344 4.613281 Z M 60.371094 4.613281 " fill-opacity="1" fill-rule="nonzero"/></g><path fill="#d6c4ab" d="M 58.828125 38.390625 L 58.828125 41.464844 L 60.371094 41.464844 L 60.371094 38.390625 Z M 58.828125 38.390625 " fill-opacity="1" fill-rule="nonzero"/><path fill="#c43d3d" d="M 58.828125 16.894531 L 58.828125 38.390625 L 60.371094 38.390625 L 60.371094 16.894531 Z M 58.828125 16.894531 " fill-opacity="1" fill-rule="nonzero"/><path fill="#d8cbb7" d="M 58.828125 4.613281 L 58.828125 15.363281 L 60.371094 15.363281 L 60.371094 4.613281 Z M 58.828125 4.613281 " fill-opacity="1" fill-rule="nonzero"/><path fill="#d73131" d="M 57.292969 32.25 L 55.753906 32.25 L 55.753906 30.71875 L 54.21875 30.71875 L 54.21875 29.175781 L 52.675781 29.175781 L 52.675781 27.644531 L 51.136719 27.644531 L 51.136719 26.109375 L 49.601562 26.109375 L 49.601562 24.578125 L 46.523438 24.578125 L 46.523438 23.035156 L 44.984375 23.035156 L 44.984375 21.503906 L 43.441406 21.503906 L 43.441406 32.25 L 41.90625 32.25 L 41.90625 35.324219 L 40.371094 35.324219 L 40.371094 36.859375 L 37.289062 36.859375 L 37.289062 38.390625 L 58.828125 38.390625 L 58.828125 32.25 Z M 57.292969 32.25 " fill-opacity="1" fill-rule="nonzero"/><path fill="#50a095" d="M 54.21875 7.679688 L 49.601562 7.679688 L 49.601562 9.222656 L 48.058594 9.222656 L 48.058594 10.753906 L 46.523438 10.753906 L 46.523438 12.289062 L 52.675781 12.289062 L 52.675781 10.753906 L 54.21875 10.753906 L 54.21875 9.222656 L 55.753906 9.222656 L 55.753906 7.679688 Z M 54.21875 7.679688 " fill-opacity="1" fill-rule="nonzero"/><path fill="#50a095" d="M 38.824219 7.679688 L 34.210938 7.679688 L 34.210938 9.222656 L 40.371094 9.222656 L 40.371094 10.753906 L 34.210938 10.753906 L 34.210938 12.289062 L 41.90625 12.289062 L 41.90625 7.679688 Z M 38.824219 7.679688 " fill-opacity="1" fill-rule="nonzero"/><path fill="#f5e1c4" d="M 57.292969 38.390625 L 35.753906 38.390625 L 35.753906 39.925781 L 29.59375 39.925781 L 29.59375 41.464844 L 58.828125 41.464844 L 58.828125 38.390625 Z M 57.292969 38.390625 " fill-opacity="1" fill-rule="nonzero"/><path fill="#95ddd2" d="M 32.671875 24.578125 L 32.671875 26.109375 L 31.136719 26.109375 L 31.136719 27.644531 L 29.59375 27.644531 L 29.59375 26.109375 L 28.054688 26.109375 L 28.054688 30.71875 L 31.136719 30.71875 L 31.136719 29.175781 L 32.671875 29.175781 L 32.671875 27.644531 L 34.210938 27.644531 L 34.210938 24.578125 Z M 32.671875 24.578125 " fill-opacity="1" fill-rule="nonzero"/><path fill="#95ddd2" d="M 31.136719 23.035156 L 32.671875 23.035156 L 32.671875 24.570312 L 31.136719 24.570312 Z M 31.136719 23.035156 " fill-opacity="1" fill-rule="nonzero"/><path fill="#95ddd2" d="M 29.59375 24.578125 L 31.128906 24.578125 L 31.128906 26.109375 L 29.59375 26.109375 Z M 29.59375 24.578125 " fill-opacity="1" fill-rule="nonzero"/><path fill="#67cebf" d="M 54.21875 9.222656 L 54.21875 10.753906 L 52.675781 10.753906 L 52.675781 12.289062 L 55.753906 12.289062 L 55.753906 9.222656 Z M 54.21875 9.222656 " fill-opacity="1" fill-rule="nonzero"/><path fill="#67cebf" d="M 46.523438 7.679688 L 46.523438 10.753906 L 48.058594 10.753906 L 48.058594 9.222656 L 49.601562 9.222656 L 49.601562 7.679688 Z M 46.523438 7.679688 " fill-opacity="1" fill-rule="nonzero"/><path fill="#67cebf" d="M 37.289062 9.222656 L 34.210938 9.222656 L 34.210938 10.753906 L 40.371094 10.753906 L 40.371094 9.222656 Z M 37.289062 9.222656 " fill-opacity="1" fill-rule="nonzero"/><path fill="#67cebf" d="M 32.671875 29.175781 L 31.136719 29.175781 L 31.136719 30.71875 L 34.210938 30.71875 L 34.210938 27.644531 L 32.671875 27.644531 Z M 32.671875 29.175781 " fill-opacity="1" fill-rule="nonzero"/><path fill="#67cebf" d="M 32.671875 23.035156 L 34.210938 23.035156 L 34.210938 24.570312 L 32.671875 24.570312 Z M 32.671875 23.035156 " fill-opacity="1" fill-rule="nonzero"/><path fill="#67cebf" d="M 31.136719 24.578125 L 32.671875 24.578125 L 32.671875 26.109375 L 31.136719 26.109375 Z M 31.136719 24.578125 " fill-opacity="1" fill-rule="nonzero"/><path fill="#67cebf" d="M 29.59375 26.109375 L 31.128906 26.109375 L 31.128906 27.644531 L 29.59375 27.644531 Z M 29.59375 26.109375 " fill-opacity="1" fill-rule="nonzero"/><path fill="#67cebf" d="M 31.136719 24.578125 L 31.136719 23.035156 L 28.054688 23.035156 L 28.054688 26.109375 L 29.59375 26.109375 L 29.59375 24.578125 Z M 31.136719 24.578125 " fill-opacity="1" fill-rule="nonzero"/><path fill="#e04949" d="M 8.054688 24.578125 L 9.589844 24.578125 L 9.589844 26.109375 L 8.054688 26.109375 Z M 8.054688 24.578125 " fill-opacity="1" fill-rule="nonzero"/><path fill="#e97e7e" d="M 6.511719 16.894531 L 4.972656 16.894531 L 4.972656 38.390625 L 8.054688 38.390625 L 8.054688 16.894531 Z M 6.511719 16.894531 " fill-opacity="1" fill-rule="nonzero"/><path fill="#f9efe0" d="M 6.511719 7.679688 L 4.972656 7.679688 L 4.972656 15.363281 L 8.054688 15.363281 L 8.054688 7.679688 Z M 6.511719 7.679688 " fill-opacity="1" fill-rule="nonzero"/><path fill="#f9efe0" d="M 4.972656 38.390625 L 4.972656 41.464844 L 8.054688 41.464844 L 8.054688 38.390625 Z M 4.972656 38.390625 " fill-opacity="1" fill-rule="nonzero"/><path fill="#333333" d="M 34.855469 1.539062 L 31.523438 1.539062 L 31.523438 1.542969 L 31.515625 1.539062 L 26.519531 1.539062 L 26.519531 3.640625 L 31.515625 3.640625 L 31.523438 3.636719 L 31.523438 3.640625 L 36.519531 3.640625 L 36.519531 1.539062 Z M 34.855469 1.539062 " fill-opacity="1" fill-rule="nonzero"/><path fill="#333333" d="M 37.289062 21.503906 L 37.289062 19.96875 L 35.753906 19.96875 L 35.746094 19.980469 L 35.746094 18.429688 L 34.210938 18.429688 L 34.210938 16.894531 L 31.136719 16.894531 L 31.136719 16.902344 L 31.128906 16.894531 L 28.054688 16.894531 L 28.054688 18.429688 L 26.519531 18.429688 L 26.519531 19.960938 L 26.53125 19.960938 L 26.519531 19.96875 L 26.519531 19.980469 L 26.511719 19.96875 L 24.976562 19.96875 L 24.976562 21.503906 L 23.441406 21.503906 L 23.441406 24.570312 L 23.445312 24.570312 L 23.441406 24.578125 L 23.441406 30.710938 L 23.445312 30.710938 L 23.441406 30.71875 L 23.441406 32.25 L 24.976562 32.25 L 24.976562 33.785156 L 26.511719 33.785156 L 26.519531 33.773438 L 26.519531 35.316406 L 31.128906 35.316406 L 31.136719 35.3125 L 31.136719 35.316406 L 35.746094 35.316406 L 35.746094 33.777344 L 35.753906 33.785156 L 37.289062 33.785156 L 37.289062 32.25 L 38.824219 32.25 L 38.824219 30.71875 L 38.820312 30.710938 L 38.824219 30.710938 L 38.824219 24.578125 L 38.820312 24.578125 L 38.824219 24.570312 L 38.824219 21.503906 Z M 35.753906 30.71875 L 35.746094 30.726562 L 35.746094 30.71875 L 34.210938 30.71875 L 34.210938 32.25 L 31.136719 32.25 L 31.136719 32.253906 L 31.128906 32.25 L 28.054688 32.25 L 28.054688 30.71875 L 26.519531 30.71875 L 26.519531 30.726562 L 26.511719 30.71875 L 26.507812 30.710938 L 26.511719 30.710938 L 26.511719 24.578125 L 26.507812 24.570312 L 26.511719 24.570312 L 26.511719 23.035156 L 26.519531 23.027344 L 26.519531 23.035156 L 28.054688 23.035156 L 28.054688 21.503906 L 34.210938 21.503906 L 34.210938 23.035156 L 35.746094 23.035156 L 35.746094 23.019531 L 35.753906 23.035156 L 35.753906 24.570312 L 35.757812 24.578125 L 35.753906 24.578125 L 35.753906 30.710938 L 35.757812 30.710938 Z M 35.753906 30.71875 " fill-opacity="1" fill-rule="nonzero"/><path fill="#333333" d="M 8.054688 4.613281 L 8.046875 4.621094 L 8.046875 4.613281 L 4.972656 4.613281 L 4.972656 6.148438 L 8.046875 6.148438 L 8.046875 6.140625 L 8.054688 6.148438 L 9.589844 6.148438 L 9.589844 4.613281 Z M 8.054688 4.613281 " fill-opacity="1" fill-rule="nonzero"/><path fill="#333333" d="M 9.589844 1.539062 L 8.054688 1.539062 L 8.054688 1.542969 L 8.046875 1.539062 L 3.4375 1.539062 L 3.4375 3.074219 L 8.046875 3.074219 L 8.054688 3.070312 L 8.054688 3.074219 L 11.128906 3.074219 L 11.128906 1.539062 Z M 9.589844 1.539062 " fill-opacity="1" fill-rule="nonzero"/><path fill="#e04646" d="M 57.292969 16.894531 L 40.371094 16.894531 L 40.371094 18.429688 L 41.90625 18.429688 L 41.90625 19.96875 L 43.441406 19.96875 L 43.441406 21.503906 L 44.984375 21.503906 L 44.984375 23.035156 L 46.523438 23.035156 L 46.523438 24.578125 L 49.601562 24.578125 L 49.601562 26.109375 L 51.136719 26.109375 L 51.136719 27.644531 L 52.675781 27.644531 L 52.675781 29.175781 L 54.21875 29.175781 L 54.21875 30.71875 L 55.753906 30.71875 L 55.753906 32.25 L 58.828125 32.25 L 58.828125 16.894531 Z M 57.292969 16.894531 " fill-opacity="1" fill-rule="nonzero"/><path fill="#e04646" d="M 23.441406 35.324219 L 21.902344 35.324219 L 21.902344 33.785156 L 20.359375 33.785156 L 20.359375 32.25 L 18.824219 32.25 L 18.824219 19.96875 L 20.359375 19.96875 L 20.359375 18.429688 L 21.902344 18.429688 L 21.902344 16.894531 L 8.054688 16.894531 L 8.054688 24.578125 L 9.589844 24.578125 L 9.589844 26.109375 L 8.054688 26.109375 L 8.054688 38.390625 L 24.976562 38.390625 L 24.976562 36.859375 L 23.441406 36.859375 Z M 23.441406 35.324219 " fill-opacity="1" fill-rule="nonzero"/><path fill="#e04646" d="M 1.894531 18.429688 L 1.894531 38.390625 L 3.4375 38.390625 L 3.4375 16.894531 L 1.894531 16.894531 Z M 1.894531 18.429688 " fill-opacity="1" fill-rule="nonzero"/><path fill="#f7e8d2" d="M 55.753906 4.613281 L 21.902344 4.613281 L 21.902344 6.148438 L 18.824219 6.148438 L 18.824219 7.679688 L 8.054688 7.679688 L 8.054688 15.355469 L 58.835938 15.355469 L 58.835938 4.613281 Z M 43.441406 13.828125 L 32.671875 13.828125 L 32.671875 6.15625 L 43.441406 6.15625 Z M 57.292969 7.679688 L 57.292969 13.820312 L 44.976562 13.820312 L 44.976562 6.148438 L 57.292969 6.148438 Z M 57.292969 7.679688 " fill-opacity="1" fill-rule="nonzero"/><path fill="#f7e8d2" d="M 38.824219 33.785156 L 37.289062 33.785156 L 37.289062 35.324219 L 40.371094 35.324219 L 40.371094 32.25 L 38.824219 32.25 Z M 38.824219 33.785156 " fill-opacity="1" fill-rule="nonzero"/><path fill="#f7e8d2" d="M 40.371094 18.429688 L 38.824219 18.429688 L 38.824219 16.894531 L 35.753906 16.894531 L 35.753906 18.429688 L 37.289062 18.429688 L 37.289062 19.96875 L 38.824219 19.96875 L 38.824219 21.503906 L 40.371094 21.503906 L 40.371094 32.25 L 41.90625 32.25 L 41.90625 19.96875 L 40.371094 19.96875 Z M 40.371094 18.429688 " fill-opacity="1" fill-rule="nonzero"/><path fill="#f7e8d2" d="M 35.753906 35.324219 L 37.289062 35.324219 L 37.289062 36.859375 L 35.753906 36.859375 Z M 35.753906 35.324219 " fill-opacity="1" fill-rule="nonzero"/><path fill="#f7e8d2" d="M 32.671875 36.859375 L 26.519531 36.859375 L 26.519531 38.390625 L 35.753906 38.390625 L 35.753906 36.859375 Z M 32.671875 36.859375 " fill-opacity="1" fill-rule="nonzero"/><path fill="#f7e8d2" d="M 24.976562 35.324219 L 26.511719 35.324219 L 26.511719 36.859375 L 24.976562 36.859375 Z M 24.976562 35.324219 " fill-opacity="1" fill-rule="nonzero"/><path fill="#f7e8d2" d="M 23.441406 38.390625 L 8.054688 38.390625 L 8.054688 41.464844 L 29.59375 41.464844 L 29.59375 39.925781 L 26.519531 39.925781 L 26.519531 38.390625 Z M 23.441406 38.390625 " fill-opacity="1" fill-rule="nonzero"/><path fill="#f7e8d2" d="M 23.441406 33.785156 L 24.976562 33.785156 L 24.976562 35.316406 L 23.441406 35.316406 Z M 23.441406 33.785156 " fill-opacity="1" fill-rule="nonzero"/><path fill="#f7e8d2" d="M 21.902344 32.25 L 23.441406 32.25 L 23.441406 33.785156 L 21.902344 33.785156 Z M 21.902344 32.25 " fill-opacity="1" fill-rule="nonzero"/><path fill="#f7e8d2" d="M 26.519531 16.894531 L 23.441406 16.894531 L 23.441406 18.429688 L 21.902344 18.429688 L 21.902344 19.96875 L 20.359375 19.96875 L 20.359375 32.25 L 21.902344 32.25 L 21.902344 21.503906 L 23.441406 21.503906 L 23.441406 19.96875 L 24.976562 19.96875 L 24.976562 18.429688 L 26.519531 18.429688 Z M 26.519531 16.894531 " fill-opacity="1" fill-rule="nonzero"/><path fill="#f7e8d2" d="M 1.894531 39.925781 L 1.894531 41.464844 L 3.4375 41.464844 L 3.4375 38.390625 L 1.894531 38.390625 Z M 1.894531 39.925781 " fill-opacity="1" fill-rule="nonzero"/><path fill="#f7e8d2" d="M 1.894531 9.222656 L 1.894531 15.363281 L 3.4375 15.363281 L 3.4375 7.679688 L 1.894531 7.679688 Z M 1.894531 9.222656 " fill-opacity="1" fill-rule="nonzero"/></svg>