<svg xmlns="http://www.w3.org/2000/svg" xmlns:xlink="http://www.w3.org/1999/xlink" width="116" zoomAndPan="magnify" viewBox="0 0 87 72.749999" height="97" preserveAspectRatio="xMidYMid meet" version="1.0"><defs><clipPath id="7e9f9fbcae"><path d="M 0.148438 0 L 86.105469 0 L 86.105469 72.5 L 0.148438 72.5 Z M 0.148438 0 " clip-rule="nonzero"/></clipPath><clipPath id="1f152a7bb5"><path d="M 9 36 L 78 36 L 78 72.5 L 9 72.5 Z M 9 36 " clip-rule="nonzero"/></clipPath><clipPath id="eac77d5c5a"><path d="M 81 27 L 86.105469 27 L 86.105469 46 L 81 46 Z M 81 27 " clip-rule="nonzero"/></clipPath><clipPath id="9d97a114c2"><path d="M 0.148438 4 L 5 4 L 5 32 L 0.148438 32 Z M 0.148438 4 " clip-rule="nonzero"/></clipPath><clipPath id="81801c7063"><path d="M 0.148438 0 L 86.105469 0 L 86.105469 72.5 L 0.148438 72.5 Z M 0.148438 0 " clip-rule="nonzero"/></clipPath><clipPath id="68201115de"><path d="M 9 36 L 78 36 L 78 72.5 L 9 72.5 Z M 9 36 " clip-rule="nonzero"/></clipPath><clipPath id="5458f32165"><path d="M 81 27 L 86.105469 27 L 86.105469 46 L 81 46 Z M 81 27 " clip-rule="nonzero"/></clipPath><clipPath id="3f4e1fd059"><path d="M 0.148438 4 L 5 4 L 5 32 L 0.148438 32 Z M 0.148438 4 " clip-rule="nonzero"/></clipPath></defs><g clip-path="url(#7e9f9fbcae)"><path fill="#3b2714" d="M 81.578125 27.191406 L 81.578125 18.128906 L 77.0625 18.128906 L 77.0625 13.597656 L 72.535156 13.597656 L 72.535156 9.0625 L 63.484375 9.0625 L 63.484375 13.597656 L 58.957031 13.597656 L 58.957031 22.65625 L 63.484375 22.65625 L 63.484375 27.191406 L 68.007812 27.191406 L 68.007812 40.78125 L 45.390625 40.78125 L 45.390625 36.246094 L 40.863281 36.246094 L 40.863281 4.535156 L 36.335938 4.535156 L 36.335938 0.0078125 L 31.820312 0.0078125 L 31.820312 4.535156 L 27.292969 4.535156 L 27.292969 9.0625 L 13.71875 9.0625 L 13.71875 4.535156 L 9.199219 4.535156 L 9.199219 0.0078125 L 4.675781 0.0078125 L 4.675781 4.535156 L 0.148438 4.535156 L 0.148438 31.71875 L 4.675781 31.71875 L 4.675781 36.246094 L 9.199219 36.246094 L 9.199219 72.496094 L 68.007812 72.496094 L 68.007812 54.375 L 77.0625 54.375 L 77.0625 49.839844 L 81.578125 49.839844 L 81.578125 45.3125 L 86.105469 45.3125 L 86.105469 27.191406 Z M 81.578125 27.191406 " fill-opacity="1" fill-rule="nonzero"/></g><path fill="#c9c5d4" d="M 13.722656 36.246094 L 13.722656 40.78125 L 27.296875 40.78125 L 27.296875 36.246094 L 31.824219 36.246094 L 31.824219 31.71875 L 36.339844 31.71875 L 36.339844 4.535156 L 31.824219 4.535156 L 33.296875 10.914062 L 29.308594 12.125 L 27.664062 14.964844 L 13.71875 14.582031 L 11.347656 11.390625 L 8.691406 10.308594 L 6.667969 8.042969 L 4.707031 12.222656 L 4.679688 31.71875 L 9.203125 31.71875 L 11.460938 33.742188 Z M 13.722656 36.246094 " fill-opacity="1" fill-rule="nonzero"/><path fill="#c9c5d4" d="M 55.78125 48.40625 L 50.277344 48.277344 L 45.390625 45.3125 L 43.128906 43.046875 L 40.863281 40.78125 L 38.007812 43.75 L 36.335938 43.625 L 32.125 44.582031 L 30.542969 45.34375 L 29.558594 47.574219 L 22.769531 48.023438 L 18.242188 45.3125 L 13.71875 45.3125 L 13.71875 63.429688 L 18.242188 63.429688 L 20.042969 60.777344 L 20.171875 58.351562 L 27.191406 55.355469 L 28.960938 60.074219 L 31.816406 60.519531 L 36.335938 63.429688 L 33.769531 56.375 L 41.488281 55.929688 L 40.863281 63.429688 L 45.390625 63.429688 L 48.066406 60.203125 L 49.582031 56.25 L 55.972656 55.992188 L 54.441406 63.429688 L 58.957031 63.429688 L 60.921875 60.234375 L 61.300781 56.597656 L 61.679688 54.257812 L 61.15625 50.285156 L 60.589844 48.152344 L 59.007812 48.34375 Z M 55.78125 48.40625 " fill-opacity="1" fill-rule="nonzero"/><path fill="#c9c5d4" d="M 77.0625 27.191406 L 77.0625 18.128906 L 72.535156 18.128906 L 72.535156 13.597656 L 63.484375 13.597656 L 63.484375 18.128906 L 65.746094 19.554688 L 68.96875 21.148438 L 69.761719 24.304688 L 73.871094 25.960938 L 74.566406 31.71875 L 74.347656 35.988281 L 74.582031 41.34375 L 70.503906 43.449219 L 70.273438 45.027344 L 69.933594 46.75 L 72.304688 47.320312 L 75.011719 46.9375 L 75.628906 43.046875 L 79.46875 42.875 L 81.578125 40.78125 L 81.578125 27.191406 Z M 77.0625 27.191406 " fill-opacity="1" fill-rule="nonzero"/><path fill="#b1adba" d="M 58.957031 49.839844 L 54.441406 49.839844 L 54.441406 45.3125 L 49.914062 45.3125 L 49.914062 49.839844 L 45.390625 49.839844 L 45.390625 45.3125 L 40.863281 45.3125 L 40.863281 36.246094 L 36.335938 36.246094 L 36.335938 40.78125 L 27.292969 40.78125 L 27.292969 45.3125 L 18.242188 45.3125 L 18.242188 63.429688 L 22.769531 63.429688 L 22.769531 58.902344 L 31.820312 58.902344 L 31.820312 63.429688 L 36.335938 63.429688 L 36.335938 58.902344 L 45.390625 58.902344 L 45.390625 63.429688 L 49.914062 63.429688 L 49.914062 58.902344 L 58.957031 58.902344 L 58.957031 63.429688 L 63.484375 63.429688 L 63.484375 45.3125 L 58.957031 45.3125 Z M 58.957031 49.839844 " fill-opacity="1" fill-rule="nonzero"/><path fill="#b1adba" d="M 31.820312 36.246094 L 31.820312 31.71875 L 36.335938 31.71875 L 36.335938 13.597656 L 4.675781 13.597656 L 4.675781 31.71875 L 13.71875 31.71875 L 13.71875 22.65625 L 9.199219 22.65625 L 9.199219 18.128906 L 13.71875 18.128906 L 13.71875 22.65625 L 18.242188 22.65625 L 18.242188 31.71875 L 22.769531 31.71875 L 22.769531 36.246094 L 18.242188 36.246094 L 18.242188 31.71875 L 13.71875 31.71875 L 13.71875 40.78125 L 27.292969 40.78125 L 27.292969 36.246094 Z M 22.769531 22.65625 L 22.769531 18.128906 L 27.292969 18.128906 L 27.292969 22.65625 Z M 22.769531 22.65625 " fill-opacity="1" fill-rule="nonzero"/><path fill="#b1adba" d="M 77.0625 40.78125 L 77.0625 22.65625 L 72.535156 22.65625 L 72.535156 18.128906 L 63.484375 18.128906 L 63.484375 22.65625 L 68.007812 22.65625 L 68.007812 27.191406 L 72.535156 27.191406 L 72.535156 40.78125 L 68.007812 40.78125 L 68.007812 49.839844 L 77.0625 49.839844 L 77.0625 45.3125 L 81.578125 45.3125 L 81.578125 40.78125 Z M 77.0625 40.78125 " fill-opacity="1" fill-rule="nonzero"/><path fill="#ffffff" d="M 13.71875 22.65625 L 18.242188 22.65625 L 18.242188 27.191406 L 13.71875 27.191406 Z M 13.71875 22.65625 " fill-opacity="1" fill-rule="nonzero"/><path fill="#5a585e" d="M 18.242188 31.71875 L 22.769531 31.71875 L 22.769531 36.246094 L 18.242188 36.246094 Z M 18.242188 31.71875 " fill-opacity="1" fill-rule="nonzero"/><path fill="#5a585e" d="M 13.71875 27.191406 L 18.242188 27.191406 L 18.242188 31.71875 L 13.71875 31.71875 Z M 13.71875 27.191406 " fill-opacity="1" fill-rule="nonzero"/><path fill="#5a585e" d="M 31.820312 9.0625 L 36.335938 9.0625 L 36.335938 13.597656 L 31.820312 13.597656 Z M 31.820312 9.0625 " fill-opacity="1" fill-rule="nonzero"/><path fill="#5a585e" d="M 9.199219 31.71875 L 13.71875 31.71875 L 13.71875 36.246094 L 9.199219 36.246094 Z M 9.199219 31.71875 " fill-opacity="1" fill-rule="nonzero"/><path fill="#5a585e" d="M 4.675781 9.0625 L 9.199219 9.0625 L 9.199219 13.597656 L 4.675781 13.597656 Z M 4.675781 9.0625 " fill-opacity="1" fill-rule="nonzero"/><path fill="#c9c5d4" d="M 40.863281 58.902344 L 45.390625 58.902344 L 45.390625 63.429688 L 40.863281 63.429688 Z M 40.863281 58.902344 " fill-opacity="1" fill-rule="nonzero"/><path fill="#c9c5d4" d="M 54.441406 58.902344 L 58.957031 58.902344 L 58.957031 63.429688 L 54.441406 63.429688 Z M 54.441406 58.902344 " fill-opacity="1" fill-rule="nonzero"/><path fill="#c9c5d4" d="M 54.441406 45.3125 L 58.957031 45.3125 L 58.957031 49.839844 L 54.441406 49.839844 Z M 54.441406 45.3125 " fill-opacity="1" fill-rule="nonzero"/><path fill="#c9c5d4" d="M 45.390625 45.3125 L 49.914062 45.3125 L 49.914062 49.839844 L 45.390625 49.839844 Z M 45.390625 45.3125 " fill-opacity="1" fill-rule="nonzero"/><path fill="#c9c5d4" d="M 13.71875 49.839844 L 13.71875 63.429688 L 18.242188 63.429688 L 18.242188 45.3125 L 13.71875 45.3125 Z M 13.71875 49.839844 " fill-opacity="1" fill-rule="nonzero"/><path fill="#c9c5d4" d="M 40.863281 40.78125 L 45.390625 40.78125 L 45.390625 45.3125 L 40.863281 45.3125 Z M 40.863281 40.78125 " fill-opacity="1" fill-rule="nonzero"/><path fill="#c9c5d4" d="M 27.292969 58.902344 L 31.820312 58.902344 L 31.820312 63.429688 L 27.292969 63.429688 Z M 27.292969 58.902344 " fill-opacity="1" fill-rule="nonzero"/><path fill="#c9c5d4" d="M 77.0625 27.191406 L 77.0625 40.78125 L 81.578125 40.78125 L 81.578125 27.191406 Z M 77.0625 27.191406 " fill-opacity="1" fill-rule="nonzero"/><path fill="#c9c5d4" d="M 72.535156 18.128906 L 77.0625 18.128906 L 77.0625 22.65625 L 72.535156 22.65625 Z M 72.535156 18.128906 " fill-opacity="1" fill-rule="nonzero"/><path fill="#c9c5d4" d="M 68.007812 13.597656 L 63.484375 13.597656 L 63.484375 18.128906 L 72.535156 18.128906 L 72.535156 13.597656 Z M 68.007812 13.597656 " fill-opacity="1" fill-rule="nonzero"/><path fill="#c9c5d4" d="M 27.292969 9.0625 L 31.820312 9.0625 L 31.820312 13.597656 L 27.292969 13.597656 Z M 27.292969 9.0625 " fill-opacity="1" fill-rule="nonzero"/><path fill="#c9c5d4" d="M 31.820312 4.535156 L 36.335938 4.535156 L 36.335938 9.0625 L 31.820312 9.0625 Z M 31.820312 4.535156 " fill-opacity="1" fill-rule="nonzero"/><path fill="#c9c5d4" d="M 9.199219 9.0625 L 13.71875 9.0625 L 13.71875 13.597656 L 9.199219 13.597656 Z M 9.199219 9.0625 " fill-opacity="1" fill-rule="nonzero"/><path fill="#c9c5d4" d="M 4.675781 4.535156 L 9.199219 4.535156 L 9.199219 9.0625 L 4.675781 9.0625 Z M 4.675781 4.535156 " fill-opacity="1" fill-rule="nonzero"/><path fill="#ffffff" d="M 40.863281 63.429688 L 40.863281 67.964844 L 49.914062 67.964844 L 49.914062 63.429688 Z M 40.863281 63.429688 " fill-opacity="1" fill-rule="nonzero"/><path fill="#ffffff" d="M 58.957031 63.429688 L 54.441406 63.429688 L 54.441406 67.964844 L 63.484375 67.964844 L 63.484375 63.429688 Z M 58.957031 63.429688 " fill-opacity="1" fill-rule="nonzero"/><path fill="#ffffff" d="M 13.71875 63.429688 L 13.71875 67.964844 L 22.769531 67.964844 L 22.769531 63.429688 Z M 13.71875 63.429688 " fill-opacity="1" fill-rule="nonzero"/><path fill="#ffffff" d="M 27.292969 63.429688 L 27.292969 67.964844 L 36.335938 67.964844 L 36.335938 63.429688 Z M 27.292969 63.429688 " fill-opacity="1" fill-rule="nonzero"/><path fill="#3b2714" d="M 22.769531 18.128906 L 27.292969 18.128906 L 27.292969 22.65625 L 22.769531 22.65625 Z M 22.769531 18.128906 " fill-opacity="1" fill-rule="nonzero"/><path fill="#3b2714" d="M 9.199219 18.128906 L 13.71875 18.128906 L 13.71875 22.65625 L 9.199219 22.65625 Z M 9.199219 18.128906 " fill-opacity="1" fill-rule="nonzero"/><g clip-path="url(#1f152a7bb5)"><path fill="#3b2714" d="M 68.007812 49.839844 L 68.007812 40.78125 L 45.390625 40.78125 L 45.390625 45.3125 L 63.484375 45.3125 L 63.484375 67.964844 L 54.441406 67.964844 L 54.441406 58.902344 L 49.914062 58.902344 L 49.914062 67.964844 L 40.863281 67.964844 L 40.863281 58.902344 L 36.335938 58.902344 L 36.335938 67.964844 L 27.292969 67.964844 L 27.292969 58.902344 L 22.769531 58.902344 L 22.769531 67.964844 L 13.71875 67.964844 L 13.71875 36.246094 L 9.199219 36.246094 L 9.199219 72.496094 L 68.007812 72.496094 L 68.007812 54.375 L 77.0625 54.375 L 77.0625 49.839844 Z M 68.007812 49.839844 " fill-opacity="1" fill-rule="nonzero"/></g><path fill="#3b2714" d="M 77.0625 45.3125 L 81.578125 45.3125 L 81.578125 49.839844 L 77.0625 49.839844 Z M 77.0625 45.3125 " fill-opacity="1" fill-rule="nonzero"/><g clip-path="url(#eac77d5c5a)"><path fill="#3b2714" d="M 81.578125 27.191406 L 81.578125 45.3125 L 86.105469 45.3125 L 86.105469 27.191406 Z M 81.578125 27.191406 " fill-opacity="1" fill-rule="nonzero"/></g><path fill="#3b2714" d="M 77.0625 27.191406 L 81.578125 27.191406 L 81.578125 18.128906 L 77.0625 18.128906 Z M 77.0625 27.191406 " fill-opacity="1" fill-rule="nonzero"/><path fill="#3b2714" d="M 72.535156 13.597656 L 77.0625 13.597656 L 77.0625 18.128906 L 72.535156 18.128906 Z M 72.535156 13.597656 " fill-opacity="1" fill-rule="nonzero"/><path fill="#3b2714" d="M 72.535156 13.597656 L 72.535156 9.0625 L 63.484375 9.0625 L 63.484375 13.597656 Z M 72.535156 13.597656 " fill-opacity="1" fill-rule="nonzero"/><path fill="#3b2714" d="M 63.484375 13.597656 L 58.957031 13.597656 L 58.957031 22.65625 L 63.484375 22.65625 Z M 63.484375 13.597656 " fill-opacity="1" fill-rule="nonzero"/><path fill="#3b2714" d="M 63.484375 22.65625 L 68.007812 22.65625 L 68.007812 27.191406 L 63.484375 27.191406 Z M 63.484375 22.65625 " fill-opacity="1" fill-rule="nonzero"/><path fill="#3b2714" d="M 72.535156 36.246094 L 72.535156 27.191406 L 68.007812 27.191406 L 68.007812 40.78125 L 72.535156 40.78125 Z M 72.535156 36.246094 " fill-opacity="1" fill-rule="nonzero"/><path fill="#3b2714" d="M 40.863281 36.246094 L 45.390625 36.246094 L 45.390625 40.78125 L 40.863281 40.78125 Z M 40.863281 36.246094 " fill-opacity="1" fill-rule="nonzero"/><path fill="#3b2714" d="M 36.335938 13.597656 L 36.335938 31.71875 L 31.820312 31.71875 L 31.820312 36.246094 L 40.863281 36.246094 L 40.863281 4.535156 L 36.335938 4.535156 Z M 36.335938 13.597656 " fill-opacity="1" fill-rule="nonzero"/><path fill="#3b2714" d="M 31.820312 0.0078125 L 36.335938 0.0078125 L 36.335938 4.535156 L 31.820312 4.535156 Z M 31.820312 0.0078125 " fill-opacity="1" fill-rule="nonzero"/><path fill="#3b2714" d="M 27.292969 4.535156 L 31.820312 4.535156 L 31.820312 9.0625 L 27.292969 9.0625 Z M 27.292969 4.535156 " fill-opacity="1" fill-rule="nonzero"/><path fill="#3b2714" d="M 18.242188 13.597656 L 27.292969 13.597656 L 27.292969 9.0625 L 13.71875 9.0625 L 13.71875 13.597656 Z M 18.242188 13.597656 " fill-opacity="1" fill-rule="nonzero"/><path fill="#3b2714" d="M 9.199219 4.535156 L 13.71875 4.535156 L 13.71875 9.0625 L 9.199219 9.0625 Z M 9.199219 4.535156 " fill-opacity="1" fill-rule="nonzero"/><path fill="#3b2714" d="M 4.675781 31.71875 L 9.199219 31.71875 L 9.199219 36.246094 L 4.675781 36.246094 Z M 4.675781 31.71875 " fill-opacity="1" fill-rule="nonzero"/><path fill="#3b2714" d="M 4.675781 0.0078125 L 9.199219 0.0078125 L 9.199219 4.535156 L 4.675781 4.535156 Z M 4.675781 0.0078125 " fill-opacity="1" fill-rule="nonzero"/><g clip-path="url(#9d97a114c2)"><path fill="#3b2714" d="M 4.675781 22.65625 L 4.675781 4.535156 L 0.148438 4.535156 L 0.148438 31.71875 L 4.675781 31.71875 Z M 4.675781 22.65625 " fill-opacity="1" fill-rule="nonzero"/></g><path fill="#3b2714" d="M 18.242188 40.78125 L 13.71875 40.78125 L 13.71875 45.3125 L 27.292969 45.3125 L 27.292969 40.78125 Z M 18.242188 40.78125 " fill-opacity="1" fill-rule="nonzero"/><path fill="#3b2714" d="M 31.820312 36.246094 L 27.292969 36.246094 L 27.292969 40.78125 L 36.335938 40.78125 L 36.335938 36.246094 Z M 31.820312 36.246094 " fill-opacity="1" fill-rule="nonzero"/><g clip-path="url(#81801c7063)"><path fill="#3b2714" d="M 81.578125 27.191406 L 81.578125 18.128906 L 77.0625 18.128906 L 77.0625 13.597656 L 72.535156 13.597656 L 72.535156 9.0625 L 63.484375 9.0625 L 63.484375 13.597656 L 58.957031 13.597656 L 58.957031 22.65625 L 63.484375 22.65625 L 63.484375 27.191406 L 68.007812 27.191406 L 68.007812 40.78125 L 45.390625 40.78125 L 45.390625 36.246094 L 40.863281 36.246094 L 40.863281 4.535156 L 36.335938 4.535156 L 36.335938 0.0078125 L 31.820312 0.0078125 L 31.820312 4.535156 L 27.292969 4.535156 L 27.292969 9.0625 L 13.71875 9.0625 L 13.71875 4.535156 L 9.199219 4.535156 L 9.199219 0.0078125 L 4.675781 0.0078125 L 4.675781 4.535156 L 0.148438 4.535156 L 0.148438 31.71875 L 4.675781 31.71875 L 4.675781 36.246094 L 9.199219 36.246094 L 9.199219 72.496094 L 68.007812 72.496094 L 68.007812 54.375 L 77.0625 54.375 L 77.0625 49.839844 L 81.578125 49.839844 L 81.578125 45.3125 L 86.105469 45.3125 L 86.105469 27.191406 Z M 81.578125 27.191406 " fill-opacity="1" fill-rule="nonzero"/></g><path fill="#c9c5d4" d="M 13.722656 36.246094 L 13.722656 40.78125 L 27.296875 40.78125 L 27.296875 36.246094 L 31.824219 36.246094 L 31.824219 31.71875 L 36.339844 31.71875 L 36.339844 4.535156 L 31.824219 4.535156 L 33.296875 10.914062 L 29.308594 12.125 L 27.664062 14.964844 L 13.71875 14.582031 L 11.347656 11.390625 L 8.691406 10.308594 L 6.667969 8.042969 L 4.707031 12.222656 L 4.679688 31.71875 L 9.203125 31.71875 L 11.460938 33.742188 Z M 13.722656 36.246094 " fill-opacity="1" fill-rule="nonzero"/><path fill="#c9c5d4" d="M 55.78125 48.40625 L 50.277344 48.277344 L 45.390625 45.3125 L 43.128906 43.046875 L 40.863281 40.78125 L 38.007812 43.75 L 36.335938 43.625 L 32.125 44.582031 L 30.542969 45.34375 L 29.558594 47.574219 L 22.769531 48.023438 L 18.242188 45.3125 L 13.71875 45.3125 L 13.71875 63.429688 L 18.242188 63.429688 L 20.042969 60.777344 L 20.171875 58.351562 L 27.191406 55.355469 L 28.960938 60.074219 L 31.816406 60.519531 L 36.335938 63.429688 L 33.769531 56.375 L 41.488281 55.929688 L 40.863281 63.429688 L 45.390625 63.429688 L 48.066406 60.203125 L 49.582031 56.25 L 55.972656 55.992188 L 54.441406 63.429688 L 58.957031 63.429688 L 60.921875 60.234375 L 61.300781 56.597656 L 61.679688 54.257812 L 61.15625 50.285156 L 60.589844 48.152344 L 59.007812 48.34375 Z M 55.78125 48.40625 " fill-opacity="1" fill-rule="nonzero"/><path fill="#c9c5d4" d="M 77.0625 27.191406 L 77.0625 18.128906 L 72.535156 18.128906 L 72.535156 13.597656 L 63.484375 13.597656 L 63.484375 18.128906 L 65.746094 19.554688 L 68.96875 21.148438 L 69.761719 24.304688 L 73.871094 25.960938 L 74.566406 31.71875 L 74.347656 35.988281 L 74.582031 41.34375 L 70.503906 43.449219 L 70.273438 45.027344 L 69.933594 46.75 L 72.304688 47.320312 L 75.011719 46.9375 L 75.628906 43.046875 L 79.46875 42.875 L 81.578125 40.78125 L 81.578125 27.191406 Z M 77.0625 27.191406 " fill-opacity="1" fill-rule="nonzero"/><path fill="#b1adba" d="M 58.957031 49.839844 L 54.441406 49.839844 L 54.441406 45.3125 L 49.914062 45.3125 L 49.914062 49.839844 L 45.390625 49.839844 L 45.390625 45.3125 L 40.863281 45.3125 L 40.863281 36.246094 L 36.335938 36.246094 L 36.335938 40.78125 L 27.292969 40.78125 L 27.292969 45.3125 L 18.242188 45.3125 L 18.242188 63.429688 L 22.769531 63.429688 L 22.769531 58.902344 L 31.820312 58.902344 L 31.820312 63.429688 L 36.335938 63.429688 L 36.335938 58.902344 L 45.390625 58.902344 L 45.390625 63.429688 L 49.914062 63.429688 L 49.914062 58.902344 L 58.957031 58.902344 L 58.957031 63.429688 L 63.484375 63.429688 L 63.484375 45.3125 L 58.957031 45.3125 Z M 58.957031 49.839844 " fill-opacity="1" fill-rule="nonzero"/><path fill="#b1adba" d="M 31.820312 36.246094 L 31.820312 31.71875 L 36.335938 31.71875 L 36.335938 13.597656 L 4.675781 13.597656 L 4.675781 31.71875 L 13.71875 31.71875 L 13.71875 22.65625 L 9.199219 22.65625 L 9.199219 18.128906 L 13.71875 18.128906 L 13.71875 22.65625 L 18.242188 22.65625 L 18.242188 31.71875 L 22.769531 31.71875 L 22.769531 36.246094 L 18.242188 36.246094 L 18.242188 31.71875 L 13.71875 31.71875 L 13.71875 40.78125 L 27.292969 40.78125 L 27.292969 36.246094 Z M 22.769531 22.65625 L 22.769531 18.128906 L 27.292969 18.128906 L 27.292969 22.65625 Z M 22.769531 22.65625 " fill-opacity="1" fill-rule="nonzero"/><path fill="#b1adba" d="M 77.0625 40.78125 L 77.0625 22.65625 L 72.535156 22.65625 L 72.535156 18.128906 L 63.484375 18.128906 L 63.484375 22.65625 L 68.007812 22.65625 L 68.007812 27.191406 L 72.535156 27.191406 L 72.535156 40.78125 L 68.007812 40.78125 L 68.007812 49.839844 L 77.0625 49.839844 L 77.0625 45.3125 L 81.578125 45.3125 L 81.578125 40.78125 Z M 77.0625 40.78125 " fill-opacity="1" fill-rule="nonzero"/><path fill="#ffffff" d="M 13.71875 22.65625 L 18.242188 22.65625 L 18.242188 27.191406 L 13.71875 27.191406 Z M 13.71875 22.65625 " fill-opacity="1" fill-rule="nonzero"/><path fill="#5a585e" d="M 18.242188 31.71875 L 22.769531 31.71875 L 22.769531 36.246094 L 18.242188 36.246094 Z M 18.242188 31.71875 " fill-opacity="1" fill-rule="nonzero"/><path fill="#5a585e" d="M 13.71875 27.191406 L 18.242188 27.191406 L 18.242188 31.71875 L 13.71875 31.71875 Z M 13.71875 27.191406 " fill-opacity="1" fill-rule="nonzero"/><path fill="#5a585e" d="M 31.820312 9.0625 L 36.335938 9.0625 L 36.335938 13.597656 L 31.820312 13.597656 Z M 31.820312 9.0625 " fill-opacity="1" fill-rule="nonzero"/><path fill="#5a585e" d="M 9.199219 31.71875 L 13.71875 31.71875 L 13.71875 36.246094 L 9.199219 36.246094 Z M 9.199219 31.71875 " fill-opacity="1" fill-rule="nonzero"/><path fill="#5a585e" d="M 4.675781 9.0625 L 9.199219 9.0625 L 9.199219 13.597656 L 4.675781 13.597656 Z M 4.675781 9.0625 " fill-opacity="1" fill-rule="nonzero"/><path fill="#c9c5d4" d="M 40.863281 58.902344 L 45.390625 58.902344 L 45.390625 63.429688 L 40.863281 63.429688 Z M 40.863281 58.902344 " fill-opacity="1" fill-rule="nonzero"/><path fill="#c9c5d4" d="M 54.441406 58.902344 L 58.957031 58.902344 L 58.957031 63.429688 L 54.441406 63.429688 Z M 54.441406 58.902344 " fill-opacity="1" fill-rule="nonzero"/><path fill="#c9c5d4" d="M 54.441406 45.3125 L 58.957031 45.3125 L 58.957031 49.839844 L 54.441406 49.839844 Z M 54.441406 45.3125 " fill-opacity="1" fill-rule="nonzero"/><path fill="#c9c5d4" d="M 45.390625 45.3125 L 49.914062 45.3125 L 49.914062 49.839844 L 45.390625 49.839844 Z M 45.390625 45.3125 " fill-opacity="1" fill-rule="nonzero"/><path fill="#c9c5d4" d="M 13.71875 49.839844 L 13.71875 63.429688 L 18.242188 63.429688 L 18.242188 45.3125 L 13.71875 45.3125 Z M 13.71875 49.839844 " fill-opacity="1" fill-rule="nonzero"/><path fill="#c9c5d4" d="M 40.863281 40.78125 L 45.390625 40.78125 L 45.390625 45.3125 L 40.863281 45.3125 Z M 40.863281 40.78125 " fill-opacity="1" fill-rule="nonzero"/><path fill="#c9c5d4" d="M 27.292969 58.902344 L 31.820312 58.902344 L 31.820312 63.429688 L 27.292969 63.429688 Z M 27.292969 58.902344 " fill-opacity="1" fill-rule="nonzero"/><path fill="#c9c5d4" d="M 77.0625 27.191406 L 77.0625 40.78125 L 81.578125 40.78125 L 81.578125 27.191406 Z M 77.0625 27.191406 " fill-opacity="1" fill-rule="nonzero"/><path fill="#c9c5d4" d="M 72.535156 18.128906 L 77.0625 18.128906 L 77.0625 22.65625 L 72.535156 22.65625 Z M 72.535156 18.128906 " fill-opacity="1" fill-rule="nonzero"/><path fill="#c9c5d4" d="M 68.007812 13.597656 L 63.484375 13.597656 L 63.484375 18.128906 L 72.535156 18.128906 L 72.535156 13.597656 Z M 68.007812 13.597656 " fill-opacity="1" fill-rule="nonzero"/><path fill="#c9c5d4" d="M 27.292969 9.0625 L 31.820312 9.0625 L 31.820312 13.597656 L 27.292969 13.597656 Z M 27.292969 9.0625 " fill-opacity="1" fill-rule="nonzero"/><path fill="#c9c5d4" d="M 31.820312 4.535156 L 36.335938 4.535156 L 36.335938 9.0625 L 31.820312 9.0625 Z M 31.820312 4.535156 " fill-opacity="1" fill-rule="nonzero"/><path fill="#c9c5d4" d="M 9.199219 9.0625 L 13.71875 9.0625 L 13.71875 13.597656 L 9.199219 13.597656 Z M 9.199219 9.0625 " fill-opacity="1" fill-rule="nonzero"/><path fill="#c9c5d4" d="M 4.675781 4.535156 L 9.199219 4.535156 L 9.199219 9.0625 L 4.675781 9.0625 Z M 4.675781 4.535156 " fill-opacity="1" fill-rule="nonzero"/><path fill="#ffffff" d="M 40.863281 63.429688 L 40.863281 67.964844 L 49.914062 67.964844 L 49.914062 63.429688 Z M 40.863281 63.429688 " fill-opacity="1" fill-rule="nonzero"/><path fill="#ffffff" d="M 58.957031 63.429688 L 54.441406 63.429688 L 54.441406 67.964844 L 63.484375 67.964844 L 63.484375 63.429688 Z M 58.957031 63.429688 " fill-opacity="1" fill-rule="nonzero"/><path fill="#ffffff" d="M 13.71875 63.429688 L 13.71875 67.964844 L 22.769531 67.964844 L 22.769531 63.429688 Z M 13.71875 63.429688 " fill-opacity="1" fill-rule="nonzero"/><path fill="#ffffff" d="M 27.292969 63.429688 L 27.292969 67.964844 L 36.335938 67.964844 L 36.335938 63.429688 Z M 27.292969 63.429688 " fill-opacity="1" fill-rule="nonzero"/><path fill="#3b2714" d="M 22.769531 18.128906 L 27.292969 18.128906 L 27.292969 22.65625 L 22.769531 22.65625 Z M 22.769531 18.128906 " fill-opacity="1" fill-rule="nonzero"/><path fill="#3b2714" d="M 9.199219 18.128906 L 13.71875 18.128906 L 13.71875 22.65625 L 9.199219 22.65625 Z M 9.199219 18.128906 " fill-opacity="1" fill-rule="nonzero"/><g clip-path="url(#68201115de)"><path fill="#3b2714" d="M 68.007812 49.839844 L 68.007812 40.78125 L 45.390625 40.78125 L 45.390625 45.3125 L 63.484375 45.3125 L 63.484375 67.964844 L 54.441406 67.964844 L 54.441406 58.902344 L 49.914062 58.902344 L 49.914062 67.964844 L 40.863281 67.964844 L 40.863281 58.902344 L 36.335938 58.902344 L 36.335938 67.964844 L 27.292969 67.964844 L 27.292969 58.902344 L 22.769531 58.902344 L 22.769531 67.964844 L 13.71875 67.964844 L 13.71875 36.246094 L 9.199219 36.246094 L 9.199219 72.496094 L 68.007812 72.496094 L 68.007812 54.375 L 77.0625 54.375 L 77.0625 49.839844 Z M 68.007812 49.839844 " fill-opacity="1" fill-rule="nonzero"/></g><path fill="#3b2714" d="M 77.0625 45.3125 L 81.578125 45.3125 L 81.578125 49.839844 L 77.0625 49.839844 Z M 77.0625 45.3125 " fill-opacity="1" fill-rule="nonzero"/><g clip-path="url(#5458f32165)"><path fill="#3b2714" d="M 81.578125 27.191406 L 81.578125 45.3125 L 86.105469 45.3125 L 86.105469 27.191406 Z M 81.578125 27.191406 " fill-opacity="1" fill-rule="nonzero"/></g><path fill="#3b2714" d="M 77.0625 27.191406 L 81.578125 27.191406 L 81.578125 18.128906 L 77.0625 18.128906 Z M 77.0625 27.191406 " fill-opacity="1" fill-rule="nonzero"/><path fill="#3b2714" d="M 72.535156 13.597656 L 77.0625 13.597656 L 77.0625 18.128906 L 72.535156 18.128906 Z M 72.535156 13.597656 " fill-opacity="1" fill-rule="nonzero"/><path fill="#3b2714" d="M 72.535156 13.597656 L 72.535156 9.0625 L 63.484375 9.0625 L 63.484375 13.597656 Z M 72.535156 13.597656 " fill-opacity="1" fill-rule="nonzero"/><path fill="#3b2714" d="M 63.484375 13.597656 L 58.957031 13.597656 L 58.957031 22.65625 L 63.484375 22.65625 Z M 63.484375 13.597656 " fill-opacity="1" fill-rule="nonzero"/><path fill="#3b2714" d="M 63.484375 22.65625 L 68.007812 22.65625 L 68.007812 27.191406 L 63.484375 27.191406 Z M 63.484375 22.65625 " fill-opacity="1" fill-rule="nonzero"/><path fill="#3b2714" d="M 72.535156 36.246094 L 72.535156 27.191406 L 68.007812 27.191406 L 68.007812 40.78125 L 72.535156 40.78125 Z M 72.535156 36.246094 " fill-opacity="1" fill-rule="nonzero"/><path fill="#3b2714" d="M 40.863281 36.246094 L 45.390625 36.246094 L 45.390625 40.78125 L 40.863281 40.78125 Z M 40.863281 36.246094 " fill-opacity="1" fill-rule="nonzero"/><path fill="#3b2714" d="M 36.335938 13.597656 L 36.335938 31.71875 L 31.820312 31.71875 L 31.820312 36.246094 L 40.863281 36.246094 L 40.863281 4.535156 L 36.335938 4.535156 Z M 36.335938 13.597656 " fill-opacity="1" fill-rule="nonzero"/><path fill="#3b2714" d="M 31.820312 0.0078125 L 36.335938 0.0078125 L 36.335938 4.535156 L 31.820312 4.535156 Z M 31.820312 0.0078125 " fill-opacity="1" fill-rule="nonzero"/><path fill="#3b2714" d="M 27.292969 4.535156 L 31.820312 4.535156 L 31.820312 9.0625 L 27.292969 9.0625 Z M 27.292969 4.535156 " fill-opacity="1" fill-rule="nonzero"/><path fill="#3b2714" d="M 18.242188 13.597656 L 27.292969 13.597656 L 27.292969 9.0625 L 13.71875 9.0625 L 13.71875 13.597656 Z M 18.242188 13.597656 " fill-opacity="1" fill-rule="nonzero"/><path fill="#3b2714" d="M 9.199219 4.535156 L 13.71875 4.535156 L 13.71875 9.0625 L 9.199219 9.0625 Z M 9.199219 4.535156 " fill-opacity="1" fill-rule="nonzero"/><path fill="#3b2714" d="M 4.675781 31.71875 L 9.199219 31.71875 L 9.199219 36.246094 L 4.675781 36.246094 Z M 4.675781 31.71875 " fill-opacity="1" fill-rule="nonzero"/><path fill="#3b2714" d="M 4.675781 0.0078125 L 9.199219 0.0078125 L 9.199219 4.535156 L 4.675781 4.535156 Z M 4.675781 0.0078125 " fill-opacity="1" fill-rule="nonzero"/><g clip-path="url(#3f4e1fd059)"><path fill="#3b2714" d="M 4.675781 22.65625 L 4.675781 4.535156 L 0.148438 4.535156 L 0.148438 31.71875 L 4.675781 31.71875 Z M 4.675781 22.65625 " fill-opacity="1" fill-rule="nonzero"/></g><path fill="#3b2714" d="M 18.242188 40.78125 L 13.71875 40.78125 L 13.71875 45.3125 L 27.292969 45.3125 L 27.292969 40.78125 Z M 18.242188 40.78125 " fill-opacity="1" fill-rule="nonzero"/><path fill="#3b2714" d="M 31.820312 36.246094 L 27.292969 36.246094 L 27.292969 40.78125 L 36.335938 40.78125 L 36.335938 36.246094 Z M 31.820312 36.246094 " fill-opacity="1" fill-rule="nonzero"/></svg>