<svg xmlns="http://www.w3.org/2000/svg" xmlns:xlink="http://www.w3.org/1999/xlink" width="637" zoomAndPan="magnify" viewBox="0 0 477.75 293.999989" height="392" preserveAspectRatio="xMidYMid meet" version="1.0"><defs><clipPath id="c1bd559168"><path d="M 0 0.078125 L 457.261719 0.078125 L 457.261719 293 L 0 293 Z M 0 0.078125 " clip-rule="nonzero"/></clipPath><clipPath id="3cca99cc64"><path d="M 0 0.078125 L 457.261719 0.078125 L 457.261719 293.171875 L 0 293.171875 Z M 0 0.078125 " clip-rule="nonzero"/></clipPath><clipPath id="8ddb656681"><path d="M 375.226562 168.90625 L 477.175781 168.90625 L 477.175781 293.339844 L 375.226562 293.339844 Z M 375.226562 168.90625 " clip-rule="nonzero"/></clipPath></defs><g clip-path="url(#c1bd559168)"><path fill="#000000" d="M 11.757812 292.757812 L 11.757812 287.53125 C 11.757812 287.300781 11.574219 287.117188 11.347656 287.117188 L 6.117188 287.117188 L 6.117188 281.894531 C 6.117188 281.667969 5.933594 281.484375 5.707031 281.484375 L 0.476562 281.484375 L 0.476562 271.035156 L 5.707031 271.035156 C 5.933594 271.035156 6.117188 270.847656 6.117188 270.621094 L 6.117188 265.402344 L 11.347656 265.402344 C 11.574219 265.402344 11.757812 265.214844 11.757812 264.988281 L 11.757812 259.761719 L 16.992188 259.761719 C 17.222656 259.761719 17.40625 259.574219 17.40625 259.347656 L 17.40625 90.257812 C 17.40625 90.027344 17.222656 89.84375 16.992188 89.84375 L 11.757812 89.84375 L 11.757812 62.488281 L 16.992188 62.488281 C 17.222656 62.488281 17.40625 62.300781 17.40625 62.074219 L 17.40625 17.398438 L 22.636719 17.398438 C 22.863281 17.398438 23.046875 17.210938 23.046875 16.984375 L 23.046875 6.121094 L 39.566406 6.121094 C 39.792969 6.121094 39.976562 5.9375 39.976562 5.710938 L 39.976562 0.488281 L 428.566406 0.488281 L 428.566406 5.710938 C 428.566406 5.9375 428.75 6.121094 428.976562 6.121094 L 434.210938 6.121094 L 434.210938 16.984375 C 434.210938 17.210938 434.398438 17.398438 434.625 17.398438 L 439.851562 17.398438 L 439.851562 22.625 C 439.851562 22.851562 440.039062 23.039062 440.265625 23.039062 L 445.5 23.039062 L 445.5 135.351562 C 445.5 135.582031 445.6875 135.765625 445.914062 135.765625 L 451.140625 135.765625 L 451.140625 168.757812 L 445.914062 168.757812 C 445.6875 168.757812 445.5 168.941406 445.5 169.167969 L 445.5 259.347656 C 445.5 259.574219 445.6875 259.761719 445.914062 259.761719 L 451.140625 259.761719 L 451.140625 264.988281 C 451.140625 265.214844 451.328125 265.402344 451.554688 265.402344 L 456.78125 265.402344 L 456.78125 270.621094 C 456.78125 270.847656 456.96875 271.035156 457.195312 271.035156 L 457.195312 275.84375 C 456.96875 275.84375 456.78125 276.027344 456.78125 276.253906 L 456.78125 287.117188 L 451.554688 287.117188 C 451.328125 287.117188 451.140625 287.300781 451.140625 287.53125 L 451.140625 292.757812 Z M 33.511719 248.074219 C 33.511719 248.300781 33.695312 248.484375 33.921875 248.484375 L 423.335938 248.484375 C 423.566406 248.484375 423.75 248.300781 423.75 248.074219 L 423.75 242.851562 L 428.976562 242.851562 C 429.207031 242.851562 429.390625 242.667969 429.390625 242.441406 L 429.390625 169.582031 L 434.625 169.582031 C 434.851562 169.582031 435.039062 169.394531 435.039062 169.167969 L 435.039062 135.351562 C 435.039062 135.125 434.851562 134.941406 434.625 134.941406 L 429.390625 134.941406 L 429.390625 28.257812 C 429.390625 28.03125 429.207031 27.847656 428.976562 27.847656 L 423.75 27.847656 L 423.75 22.625 C 423.75 22.398438 423.566406 22.210938 423.335938 22.210938 L 265.3125 22.210938 C 265.085938 22.210938 264.902344 22.398438 264.902344 22.625 L 264.902344 27.847656 L 259.671875 27.847656 C 259.445312 27.847656 259.261719 28.03125 259.261719 28.257812 L 259.261719 33.480469 L 203.648438 33.480469 L 203.648438 28.257812 C 203.648438 28.03125 203.464844 27.847656 203.234375 27.847656 L 198 27.847656 L 198 22.625 C 198 22.398438 197.816406 22.210938 197.585938 22.210938 L 39.566406 22.210938 C 39.335938 22.210938 39.152344 22.398438 39.152344 22.625 L 39.152344 27.847656 L 33.921875 27.847656 C 33.695312 27.847656 33.511719 28.03125 33.511719 28.257812 L 33.511719 61.660156 L 28.277344 61.660156 C 28.046875 61.660156 27.863281 61.847656 27.863281 62.074219 L 27.863281 90.257812 C 27.863281 90.484375 28.046875 90.667969 28.277344 90.667969 L 33.511719 90.667969 Z M 33.511719 248.074219 " fill-opacity="1" fill-rule="nonzero"/></g><path fill="#d1d1d1" d="M 335.859375 22.625 L 323.984375 22.625 L 327.390625 16.984375 L 333.039062 16.984375 Z M 33.925781 174.800781 L 33.925781 160.5 L 28.277344 163.527344 L 28.277344 180.441406 L 33.925781 183.21875 Z M 349.96875 22.625 L 423.335938 22.625 L 423.335938 28.257812 L 428.976562 28.257812 L 428.976562 107.171875 L 434.625 111.476562 L 434.625 22.625 L 428.976562 22.625 L 428.976562 16.984375 L 338.679688 16.984375 L 336.554688 22.625 Z M 304.820312 248.074219 L 33.925781 248.074219 L 33.925781 193.46875 L 28.277344 197.351562 L 28.277344 253.714844 L 434.625 253.714844 L 434.625 169.167969 L 440.265625 169.167969 L 440.265625 135.351562 L 434.625 135.351562 L 434.625 115.488281 L 428.976562 118.4375 L 428.976562 135.351562 L 434.625 135.351562 L 434.625 169.167969 L 428.976562 169.167969 L 428.976562 242.441406 L 423.335938 242.441406 L 423.335938 248.074219 Z M 440.265625 264.988281 L 11.347656 264.988281 L 11.347656 276.253906 L 16.996094 276.253906 L 16.996094 281.894531 L 445.914062 281.894531 L 445.914062 264.988281 Z M 28.277344 95.898438 L 28.277344 152.261719 L 33.925781 156.785156 L 33.925781 90.257812 L 28.277344 90.257812 L 28.277344 62.074219 L 33.925781 62.074219 L 33.925781 28.257812 L 39.566406 28.257812 L 39.566406 22.625 L 197.585938 22.625 L 197.585938 28.257812 L 203.234375 28.257812 L 203.234375 33.890625 L 259.671875 33.890625 L 259.671875 28.257812 L 265.3125 28.257812 L 265.3125 22.625 L 315.003906 22.625 L 310.460938 16.984375 L 259.671875 16.984375 L 259.671875 22.625 L 254.023438 22.625 L 254.023438 28.257812 L 208.875 28.257812 L 208.875 22.625 L 203.234375 22.625 L 203.234375 16.984375 L 33.925781 16.984375 L 33.925781 22.625 L 28.277344 22.625 L 28.277344 62.074219 L 22.636719 62.074219 L 22.636719 90.257812 L 28.277344 90.257812 Z M 237.09375 5.710938 L 228.628906 5.710938 L 231.453125 11.351562 L 237.09375 11.351562 Z M 237.09375 5.710938 " fill-opacity="1" fill-rule="nonzero"/><path fill="#f7f7f0" d="M 225.804688 5.710938 L 231.453125 5.710938 L 231.453125 11.351562 L 225.804688 11.351562 Z M 333.039062 22.625 L 338.679688 22.625 L 338.679688 16.984375 L 333.039062 16.984375 Z M 316.109375 16.984375 L 310.460938 16.984375 L 310.460938 22.625 L 327.390625 22.625 L 327.390625 16.984375 Z M 434.625 112.804688 L 434.625 107.171875 L 428.976562 107.171875 L 428.976562 118.4375 L 434.625 118.4375 Z M 28.277344 157.894531 L 28.277344 163.527344 L 33.925781 163.527344 L 33.925781 152.261719 L 28.277344 152.261719 Z M 28.277344 186.074219 L 28.277344 197.351562 L 33.925781 197.351562 L 33.925781 180.441406 L 28.277344 180.441406 Z M 434.625 270.621094 L 434.625 276.253906 L 440.265625 276.253906 L 440.265625 270.621094 Z M 412.046875 276.253906 L 417.695312 276.253906 L 417.695312 270.621094 L 412.046875 270.621094 Z M 383.828125 270.621094 L 372.539062 270.621094 L 372.539062 276.253906 L 395.117188 276.253906 L 395.117188 270.621094 Z M 96.003906 276.253906 L 101.648438 276.253906 L 101.648438 270.621094 L 96.003906 270.621094 Z M 73.429688 270.621094 L 67.785156 270.621094 L 67.785156 276.253906 L 84.714844 276.253906 L 84.714844 270.621094 Z M 45.210938 276.253906 L 50.855469 276.253906 L 50.855469 270.621094 L 45.210938 270.621094 Z M 45.210938 276.253906 " fill-opacity="1" fill-rule="nonzero"/><g clip-path="url(#3cca99cc64)"><path fill="#000000" d="M 457.195312 270.621094 L 457.195312 264.988281 L 451.554688 264.988281 L 451.554688 259.347656 L 445.914062 259.347656 L 445.914062 169.167969 L 451.554688 169.167969 L 451.554688 135.351562 L 445.914062 135.351562 L 445.914062 22.625 L 440.265625 22.625 L 440.265625 16.984375 L 434.625 16.984375 L 434.625 5.710938 L 428.976562 5.710938 L 428.976562 0.078125 L 39.566406 0.078125 L 39.566406 5.710938 L 22.636719 5.710938 L 22.636719 16.984375 L 16.996094 16.984375 L 16.996094 62.074219 L 11.347656 62.074219 L 11.347656 90.257812 L 16.996094 90.257812 L 16.996094 259.347656 L 11.347656 259.347656 L 11.347656 264.988281 L 445.914062 264.988281 L 445.914062 281.894531 L 16.996094 281.894531 L 16.996094 276.253906 L 11.347656 276.253906 L 11.347656 264.988281 L 5.707031 264.988281 L 5.707031 270.621094 L 0.0664062 270.621094 L 0.0664062 281.894531 L 5.707031 281.894531 L 5.707031 287.53125 L 11.347656 287.53125 L 11.347656 293.171875 L 451.554688 293.171875 L 451.554688 287.53125 L 457.195312 287.53125 Z M 434.625 22.625 L 434.625 135.351562 L 440.265625 135.351562 L 440.265625 169.167969 L 434.625 169.167969 L 434.625 253.714844 L 28.277344 253.714844 L 28.277344 90.257812 L 22.636719 90.257812 L 22.636719 62.074219 L 28.277344 62.074219 L 28.277344 22.625 L 33.925781 22.625 L 33.925781 16.984375 L 203.234375 16.984375 L 203.234375 22.625 L 208.875 22.625 L 208.875 28.257812 L 254.023438 28.257812 L 254.023438 22.625 L 259.671875 22.625 L 259.671875 16.984375 L 428.976562 16.984375 L 428.976562 22.625 Z M 231.453125 5.710938 L 237.09375 5.710938 L 237.09375 11.351562 L 225.804688 11.351562 L 225.804688 5.710938 Z M 423.335938 276.253906 L 417.695312 276.253906 L 417.695312 270.621094 L 434.625 270.621094 L 434.625 276.253906 Z M 400.757812 276.253906 L 395.117188 276.253906 L 395.117188 270.621094 L 412.046875 270.621094 L 412.046875 276.253906 Z M 56.496094 276.253906 L 50.855469 276.253906 L 50.855469 270.621094 L 67.785156 270.621094 L 67.785156 276.253906 Z M 28.277344 276.253906 L 22.636719 276.253906 L 22.636719 270.621094 L 45.210938 270.621094 L 45.210938 276.253906 Z M 28.277344 276.253906 " fill-opacity="1" fill-rule="nonzero"/></g><path fill="#a376a2" d="M 467.53125 253.96875 L 467.53125 259.355469 L 465.117188 259.355469 L 465.117188 261.785156 L 462.179688 261.785156 L 462.179688 259.355469 L 459.761719 259.355469 L 459.761719 253.96875 L 462.179688 253.96875 L 462.179688 251.535156 L 465.117188 251.535156 L 465.117188 253.96875 Z M 455.1875 249.101562 L 455.449219 249.101562 L 455.449219 266.652344 L 453.03125 266.652344 L 453.03125 269.082031 L 411.425781 269.082031 L 411.425781 244.238281 L 453.03125 244.238281 L 453.03125 249.101562 Z M 421.617188 263.699219 L 421.617188 266.132812 L 442.84375 266.132812 L 442.84375 263.699219 L 445.261719 263.699219 L 445.261719 249.625 L 421.617188 249.625 L 421.617188 252.058594 L 419.199219 252.058594 L 419.199219 263.699219 Z M 397.449219 241.804688 L 397.449219 239.375 L 394.511719 239.375 L 394.511719 241.804688 L 392.09375 241.804688 L 392.09375 244.238281 L 389.675781 244.238281 L 389.675781 247.191406 L 392.09375 247.191406 L 392.09375 249.625 L 394.511719 249.625 L 394.511719 252.058594 L 397.449219 252.058594 L 397.449219 249.625 L 399.863281 249.625 L 399.863281 241.804688 Z M 430.757812 230.167969 L 436.117188 230.167969 L 436.117188 224.789062 L 428.34375 224.789062 L 428.34375 230.175781 L 430.757812 230.175781 Z M 430.757812 230.167969 " fill-opacity="1" fill-rule="nonzero"/><path fill="#ddc3c3" d="M 450.355469 273.425781 L 450.617188 273.425781 L 450.617188 278.8125 L 440.425781 278.8125 L 440.425781 273.425781 Z M 421.617188 273.425781 L 413.84375 273.425781 L 413.84375 278.8125 L 424.035156 278.8125 L 424.035156 273.425781 Z M 472.105469 263.699219 L 464.59375 263.699219 L 464.59375 266.132812 L 462.179688 266.132812 L 462.179688 271.519531 L 465.117188 271.519531 L 465.117188 269.085938 L 467.011719 269.085938 L 467.011719 273.949219 L 472.367188 273.949219 L 472.367188 263.699219 Z M 440.6875 261.789062 L 443.367188 261.789062 L 443.367188 258.832031 L 423.511719 258.832031 L 423.511719 261.785156 L 440.691406 261.785156 Z M 440.949219 251.539062 L 423.511719 251.539062 L 423.511719 256.910156 L 443.367188 256.910156 L 443.367188 253.96875 L 440.953125 253.96875 L 440.953125 251.535156 Z M 462.699219 249.628906 L 462.699219 246.671875 L 457.34375 246.671875 L 457.34375 252.058594 L 460.285156 252.058594 L 460.285156 249.625 L 462.699219 249.625 Z M 404.699219 246.671875 L 401.757812 246.671875 L 401.757812 254.488281 L 407.113281 254.488281 L 407.113281 246.671875 Z M 457.34375 237.464844 L 455.449219 237.464844 L 455.449219 239.898438 L 409.003906 239.898438 L 409.003906 237.464844 L 404.175781 237.464844 L 404.175781 235.03125 L 401.757812 235.03125 L 401.757812 230.167969 L 399.34375 230.167969 L 399.34375 205.324219 L 401.757812 205.324219 L 401.757812 200.457031 L 404.175781 200.457031 L 404.175781 198.023438 L 406.59375 198.023438 L 406.59375 195.59375 L 409.011719 195.59375 L 409.011719 193.164062 L 455.457031 193.164062 L 455.457031 195.59375 L 457.875 195.59375 L 457.875 198.023438 L 462.707031 198.023438 L 462.707031 202.890625 L 465.125 202.890625 L 465.125 207.753906 L 467.539062 207.753906 L 467.539062 227.730469 L 465.125 227.730469 L 465.125 232.59375 L 462.707031 232.59375 L 462.707031 235.027344 L 460.292969 235.027344 L 460.292969 237.457031 L 457.34375 237.457031 Z M 421.09375 219.917969 L 421.09375 210.707031 L 411.960938 210.707031 L 411.960938 222.34375 L 421.09375 222.34375 L 421.09375 219.910156 Z M 454.925781 210.707031 L 445.792969 210.707031 L 445.792969 222.34375 L 454.925781 222.34375 Z M 428.863281 232.078125 L 428.863281 234.507812 L 438.011719 234.507812 L 438.011719 232.078125 L 440.425781 232.078125 L 440.425781 222.871094 L 424.035156 222.871094 L 424.035156 229.644531 L 426.453125 229.644531 L 426.453125 232.078125 L 428.867188 232.078125 Z M 389.9375 234.507812 L 389.675781 234.507812 L 389.675781 236.941406 L 387.78125 236.941406 L 387.78125 232.078125 L 385.363281 232.078125 L 385.363281 229.644531 L 382.425781 229.644531 L 382.425781 232.078125 L 380.007812 232.078125 L 380.007812 239.898438 L 382.425781 239.898438 L 382.425781 242.328125 L 390.199219 242.328125 L 390.199219 239.898438 L 392.613281 239.898438 L 392.613281 234.507812 Z M 389.9375 234.507812 " fill-opacity="1" fill-rule="nonzero"/><path fill="#6b3f69" d="M 455.1875 285.585938 L 455.449219 285.585938 L 455.449219 290.972656 L 442.84375 290.972656 L 442.84375 283.15625 L 445.261719 283.15625 L 445.261719 280.722656 L 450.617188 280.722656 L 450.617188 283.15625 L 453.03125 283.15625 L 453.03125 285.585938 Z M 421.617188 283.15625 L 419.199219 283.15625 L 419.199219 280.722656 L 413.84375 280.722656 L 413.84375 285.585938 L 411.425781 285.585938 L 411.425781 288.019531 L 409.011719 288.019531 L 409.011719 290.972656 L 424.035156 290.972656 L 424.035156 283.15625 Z M 474.523438 215.050781 L 472.367188 215.050781 L 472.367188 210.1875 L 469.4375 210.1875 L 469.4375 225.3125 L 472.378906 225.3125 L 472.378906 220.4375 L 474.792969 220.4375 L 474.792969 215.050781 Z M 392.351562 212.621094 L 392.09375 212.621094 L 392.09375 225.3125 L 395.03125 225.3125 L 395.03125 212.621094 Z M 433.691406 173.703125 L 428.34375 173.703125 L 428.34375 179.089844 L 430.757812 179.089844 L 430.757812 181.523438 L 436.117188 181.523438 L 436.117188 173.703125 Z M 433.691406 173.703125 " fill-opacity="1" fill-rule="nonzero"/><g clip-path="url(#8ddb656681)"><path fill="#000000" d="M 443.300781 249.167969 L 421.164062 249.167969 L 421.164062 251.601562 L 418.746094 251.601562 L 418.746094 264.15625 L 421.164062 264.15625 L 421.164062 266.585938 L 443.304688 266.585938 L 443.304688 264.15625 L 445.722656 264.15625 L 445.722656 249.167969 Z M 440.691406 254.425781 L 442.910156 254.425781 L 442.910156 256.464844 L 423.96875 256.464844 L 423.96875 251.992188 L 440.492188 251.992188 L 440.492188 254.425781 Z M 442.910156 261.328125 L 423.96875 261.328125 L 423.96875 259.289062 L 442.910156 259.289062 Z M 425.992188 230.101562 L 425.992188 232.535156 L 428.410156 232.535156 L 428.410156 234.972656 L 438.46875 234.972656 L 438.46875 232.542969 L 440.882812 232.542969 L 440.882812 222.414062 L 423.574219 222.414062 L 423.574219 230.101562 Z M 435.660156 227.277344 L 435.660156 229.710938 L 428.800781 229.710938 L 428.800781 225.238281 L 435.660156 225.238281 Z M 445.523438 222.804688 L 445.328125 222.804688 L 445.328125 210.25 L 455.382812 210.25 L 455.382812 222.804688 Z M 476.941406 210.25 L 474.71875 210.25 L 474.71875 207.816406 L 469.882812 207.816406 L 469.882812 202.957031 L 467.46875 202.957031 L 467.46875 198.089844 L 465.050781 198.089844 L 465.050781 195.660156 L 462.636719 195.660156 L 462.636719 193.226562 L 460.21875 193.226562 L 460.21875 190.792969 L 455.382812 190.792969 L 455.382812 188.363281 L 436.050781 188.363281 L 436.050781 183.890625 L 438.46875 183.890625 L 438.46875 181.457031 L 440.882812 181.457031 L 440.882812 173.769531 L 438.46875 173.769531 L 438.46875 168.90625 L 428.410156 168.90625 L 428.410156 171.335938 L 425.992188 171.335938 L 425.992188 181.457031 L 428.410156 181.457031 L 428.410156 183.890625 L 430.820312 183.890625 L 430.820312 188.363281 L 411.492188 188.363281 L 411.492188 190.792969 L 406.65625 190.792969 L 406.65625 193.226562 L 401.824219 193.226562 L 401.824219 198.089844 L 399.410156 198.089844 L 399.410156 200.523438 L 396.992188 200.523438 L 396.992188 205.390625 L 394.574219 205.390625 L 394.574219 207.816406 L 389.742188 207.816406 L 389.742188 212.679688 L 387.324219 212.679688 L 387.324219 225.234375 L 389.742188 225.234375 L 389.742188 227.664062 L 392.15625 227.664062 L 392.15625 229.703125 L 387.722656 229.703125 L 387.722656 227.269531 L 377.65625 227.269531 L 377.65625 229.703125 L 375.242188 229.703125 L 375.242188 239.832031 L 377.65625 239.832031 L 377.65625 244.695312 L 380.074219 244.695312 L 380.074219 247.128906 L 384.910156 247.128906 L 384.910156 249.558594 L 387.324219 249.558594 L 387.324219 251.992188 L 389.742188 251.992188 L 389.742188 254.425781 L 394.574219 254.425781 L 394.574219 256.855469 L 404.230469 256.855469 L 404.230469 259.289062 L 406.648438 259.289062 L 406.648438 269.015625 L 409.066406 269.015625 L 409.066406 271.449219 L 411.480469 271.449219 L 411.480469 280.785156 L 409.066406 280.785156 L 409.066406 283.21875 L 406.65625 283.21875 L 406.65625 288.082031 L 404.242188 288.082031 L 404.242188 290.910156 L 406.65625 290.910156 L 406.65625 293.339844 L 426.382812 293.339844 L 426.382812 290.910156 L 428.800781 290.910156 L 428.800781 273.882812 L 435.660156 273.882812 L 435.660156 276.316406 L 438.074219 276.316406 L 438.074219 290.910156 L 440.492188 290.910156 L 440.492188 293.34375 L 460.21875 293.34375 L 460.21875 285.652344 L 457.800781 285.652344 L 457.800781 283.21875 L 455.382812 283.21875 L 455.382812 269.015625 L 457.410156 269.015625 L 457.410156 273.882812 L 459.828125 273.882812 L 459.828125 276.316406 L 467.089844 276.316406 L 467.089844 278.75 L 474.730469 278.75 L 474.730469 276.3125 L 477.148438 276.3125 L 477.148438 263.761719 L 474.730469 263.761719 L 474.730469 261.328125 L 472.308594 261.328125 L 472.308594 256.464844 L 469.890625 256.464844 L 469.890625 251.601562 L 467.472656 251.601562 L 467.472656 246.726562 L 465.058594 246.726562 L 465.058594 244.292969 L 462.640625 244.292969 L 462.640625 241.859375 L 460.222656 241.859375 L 460.222656 239.832031 L 465.058594 239.832031 L 465.058594 237.398438 L 467.472656 237.398438 L 467.472656 232.535156 L 469.890625 232.535156 L 469.890625 230.101562 L 472.308594 230.101562 L 472.308594 227.664062 L 477.136719 227.664062 L 477.136719 210.25 Z M 474.332031 217.546875 L 474.332031 219.976562 L 471.914062 219.976562 L 471.914062 224.84375 L 469.886719 224.84375 L 469.886719 210.644531 L 471.914062 210.644531 L 471.914062 215.507812 L 474.332031 215.507812 Z M 414.316406 276.304688 L 414.316406 273.882812 L 423.589844 273.882812 L 423.589844 278.359375 L 414.300781 278.359375 Z M 428.800781 176.59375 L 428.800781 174.160156 L 435.660156 174.160156 L 435.660156 181.066406 L 431.222656 181.066406 L 431.222656 178.632812 L 428.808594 178.632812 Z M 471.910156 266.195312 L 471.910156 273.492188 L 467.476562 273.492188 L 467.476562 268.625 L 464.660156 268.625 L 464.660156 271.058594 L 462.636719 271.058594 L 462.636719 266.585938 L 465.050781 266.585938 L 465.050781 264.15625 L 471.910156 264.15625 Z M 452.773438 266.195312 L 452.578125 266.195312 L 452.578125 268.625 L 411.882812 268.625 L 411.882812 244.695312 L 452.589844 244.695312 L 452.589844 249.558594 L 455.003906 249.558594 L 455.003906 266.195312 Z M 394.96875 230.101562 L 396.992188 230.101562 L 396.992188 232.144531 L 394.96875 232.144531 Z M 399.402344 234.964844 L 399.402344 237.007812 L 397.382812 237.007812 L 397.382812 234.972656 Z M 404.234375 241.871094 L 402.210938 241.871094 L 402.210938 239.832031 L 404.234375 239.832031 Z M 401.820312 239.441406 L 399.800781 239.441406 L 399.800781 237.398438 L 401.824219 237.398438 Z M 392.546875 222.804688 L 392.546875 213.078125 L 394.574219 213.078125 L 394.574219 224.84375 L 392.546875 224.84375 Z M 394.773438 249.179688 L 392.546875 249.179688 L 392.546875 246.726562 L 390.132812 246.726562 L 390.132812 244.6875 L 392.546875 244.6875 L 392.546875 242.253906 L 394.96875 242.253906 L 394.96875 239.832031 L 396.992188 239.832031 L 396.992188 242.261719 L 399.410156 242.261719 L 399.410156 249.167969 L 396.992188 249.167969 L 396.992188 251.601562 L 394.96875 251.601562 L 394.96875 249.167969 Z M 462.242188 249.179688 L 459.828125 249.179688 L 459.828125 251.613281 L 457.800781 251.613281 L 457.800781 247.128906 L 462.234375 247.128906 Z M 440.882812 276.339844 L 440.882812 273.882812 L 450.160156 273.882812 L 450.160156 278.359375 L 440.882812 278.359375 Z M 467.078125 256.492188 L 467.078125 258.925781 L 464.660156 258.925781 L 464.660156 261.359375 L 462.636719 261.359375 L 462.636719 258.925781 L 460.21875 258.925781 L 460.21875 254.425781 L 462.636719 254.425781 L 462.636719 251.992188 L 464.660156 251.992188 L 464.660156 254.425781 L 467.089844 254.425781 Z M 411.882812 193.621094 L 454.992188 193.621094 L 454.992188 196.0625 L 457.410156 196.0625 L 457.410156 198.496094 L 462.242188 198.496094 L 462.242188 203.359375 L 464.660156 203.359375 L 464.660156 208.226562 L 467.089844 208.226562 L 467.089844 227.273438 L 464.671875 227.273438 L 464.671875 232.136719 L 462.257812 232.136719 L 462.257812 234.570312 L 459.839844 234.570312 L 459.839844 237 L 454.992188 237 L 454.992188 239.433594 L 409.46875 239.433594 L 409.46875 237 L 404.632812 237 L 404.632812 234.570312 L 402.214844 234.570312 L 402.214844 229.710938 L 399.800781 229.710938 L 399.800781 205.78125 L 402.214844 205.78125 L 402.214844 200.914062 L 404.632812 200.914062 L 404.632812 198.480469 L 407.046875 198.480469 L 407.046875 196.0625 L 409.46875 196.0625 L 409.46875 193.621094 Z M 385.105469 232.535156 L 387.324219 232.535156 L 387.324219 237.398438 L 390.132812 237.398438 L 390.132812 234.972656 L 392.15625 234.972656 L 392.15625 239.441406 L 389.742188 239.441406 L 389.742188 241.871094 L 382.882812 241.871094 L 382.882812 239.441406 L 380.460938 239.441406 L 380.460938 232.535156 L 382.878906 232.535156 L 382.878906 230.101562 L 384.902344 230.101562 L 384.902344 232.535156 Z M 402.214844 251.992188 L 402.214844 247.128906 L 406.652344 247.128906 L 406.652344 254.039062 L 402.214844 254.039062 Z M 409.46875 288.476562 L 411.882812 288.476562 L 411.882812 286.042969 L 414.300781 286.042969 L 414.300781 281.179688 L 418.734375 281.179688 L 418.734375 283.613281 L 423.570312 283.613281 L 423.570312 290.515625 L 409.46875 290.515625 Z M 443.300781 288.476562 L 443.300781 283.613281 L 445.71875 283.613281 L 445.71875 281.179688 L 450.15625 281.179688 L 450.15625 283.613281 L 452.570312 283.613281 L 452.570312 286.042969 L 454.988281 286.042969 L 454.988281 290.515625 L 443.300781 290.515625 Z M 411.492188 210.25 L 421.550781 210.25 L 421.550781 222.804688 L 411.492188 222.804688 Z M 411.492188 210.25 " fill-opacity="1" fill-rule="nonzero"/></g></svg>