<svg xmlns="http://www.w3.org/2000/svg" xmlns:xlink="http://www.w3.org/1999/xlink" width="720" zoomAndPan="magnify" viewBox="0 0 540 380.250002" height="507" preserveAspectRatio="xMidYMid meet" version="1.0"><defs><clipPath id="bb3eef8c8c"><path d="M 0.53125 0 L 539.46875 0 L 539.46875 379.5 L 0.53125 379.5 Z M 0.53125 0 " clip-rule="nonzero"/></clipPath><clipPath id="40dad3707f"><path d="M 0.53125 39.09375 L 517 39.09375 L 517 379.296875 L 0.53125 379.296875 Z M 0.53125 39.09375 " clip-rule="nonzero"/></clipPath><clipPath id="f941527c82"><path d="M 465 324 L 520.304688 324 L 520.304688 379.296875 L 465 379.296875 Z M 465 324 " clip-rule="nonzero"/></clipPath><clipPath id="f909412cbb"><path d="M 472 300 L 520.304688 300 L 520.304688 376 L 472 376 Z M 472 300 " clip-rule="nonzero"/></clipPath><clipPath id="bd92adfc9d"><path d="M 492 91 L 520.304688 91 L 520.304688 353 L 492 353 Z M 492 91 " clip-rule="nonzero"/></clipPath><clipPath id="a81b304a6c"><path d="M 2 39.09375 L 520.304688 39.09375 L 520.304688 143 L 2 143 Z M 2 39.09375 " clip-rule="nonzero"/></clipPath><clipPath id="93da8923b6"><path d="M 481 45 L 520.304688 45 L 520.304688 143 L 481 143 Z M 481 45 " clip-rule="nonzero"/></clipPath><clipPath id="58f1804b87"><path d="M 475 40 L 520.304688 40 L 520.304688 98 L 475 98 Z M 475 40 " clip-rule="nonzero"/></clipPath><clipPath id="5d5515d5ba"><path d="M 473 39.09375 L 520.304688 39.09375 L 520.304688 93 L 473 93 Z M 473 39.09375 " clip-rule="nonzero"/></clipPath><clipPath id="bddd3fd741"><path d="M 386 39.09375 L 520.304688 39.09375 L 520.304688 90 L 386 90 Z M 386 39.09375 " clip-rule="nonzero"/></clipPath><clipPath id="5483e54f90"><path d="M 23 39.09375 L 439 39.09375 L 439 82 L 23 82 Z M 23 39.09375 " clip-rule="nonzero"/></clipPath><clipPath id="9b1ebc55bb"><path d="M 7 39.09375 L 91 39.09375 L 91 111 L 7 111 Z M 7 39.09375 " clip-rule="nonzero"/></clipPath><clipPath id="b43566bacc"><path d="M 0.53125 127 L 80 127 L 80 234 L 0.53125 234 Z M 0.53125 127 " clip-rule="nonzero"/></clipPath><clipPath id="72a529158e"><path d="M 0.53125 299 L 147 299 L 147 378 L 0.53125 378 Z M 0.53125 299 " clip-rule="nonzero"/></clipPath><clipPath id="6ce9e95625"><path d="M 0.53125 39.09375 L 55 39.09375 L 55 360 L 0.53125 360 Z M 0.53125 39.09375 " clip-rule="nonzero"/></clipPath><clipPath id="610b6dd4ae"><path d="M 434 45 L 520.304688 45 L 520.304688 111 L 434 111 Z M 434 45 " clip-rule="nonzero"/></clipPath><clipPath id="691f04245c"><path d="M 353 283 L 520.304688 283 L 520.304688 358 L 353 358 Z M 353 283 " clip-rule="nonzero"/></clipPath><clipPath id="2317bc4411"><path d="M 386 39.09375 L 520.304688 39.09375 L 520.304688 91 L 386 91 Z M 386 39.09375 " clip-rule="nonzero"/></clipPath><clipPath id="418f507799"><path d="M 403 40 L 520.304688 40 L 520.304688 94 L 403 94 Z M 403 40 " clip-rule="nonzero"/></clipPath><clipPath id="fd33509553"><path d="M 23 39.09375 L 455 39.09375 L 455 108 L 23 108 Z M 23 39.09375 " clip-rule="nonzero"/></clipPath><clipPath id="c1c11a9a1a"><path d="M 474 300 L 520.304688 300 L 520.304688 370 L 474 370 Z M 474 300 " clip-rule="nonzero"/></clipPath><clipPath id="2efa1c0875"><path d="M 94 312 L 520.304688 312 L 520.304688 378 L 94 378 Z M 94 312 " clip-rule="nonzero"/></clipPath><clipPath id="808bff5289"><path d="M 84 234 L 520.304688 234 L 520.304688 365 L 84 365 Z M 84 234 " clip-rule="nonzero"/></clipPath><clipPath id="5afe66bac7"><path d="M 481 135 L 520.304688 135 L 520.304688 286 L 481 286 Z M 481 135 " clip-rule="nonzero"/></clipPath><clipPath id="e032dcf86d"><path d="M 482 103 L 520.304688 103 L 520.304688 188 L 482 188 Z M 482 103 " clip-rule="nonzero"/></clipPath><clipPath id="7d7acb0ef7"><path d="M 456 93 L 520.304688 93 L 520.304688 222 L 456 222 Z M 456 93 " clip-rule="nonzero"/></clipPath><clipPath id="b8ec9f13b9"><path d="M 455 169 L 520.304688 169 L 520.304688 324 L 455 324 Z M 455 169 " clip-rule="nonzero"/></clipPath><clipPath id="6103fd9018"><path d="M 0.53125 308 L 73 308 L 73 379.296875 L 0.53125 379.296875 Z M 0.53125 308 " clip-rule="nonzero"/></clipPath><clipPath id="9e0172a219"><path d="M 21 330 L 517 330 L 517 379.296875 L 21 379.296875 Z M 21 330 " clip-rule="nonzero"/></clipPath><clipPath id="869b06dfa5"><path d="M 472 317 L 520.304688 317 L 520.304688 371 L 472 371 Z M 472 317 " clip-rule="nonzero"/></clipPath><clipPath id="6da8a604d2"><path d="M 21 318 L 520.304688 318 L 520.304688 379.296875 L 21 379.296875 Z M 21 318 " clip-rule="nonzero"/></clipPath><clipPath id="d7970879a8"><path d="M 465 103 L 520.304688 103 L 520.304688 196 L 465 196 Z M 465 103 " clip-rule="nonzero"/></clipPath><clipPath id="6163160ac3"><path d="M 467 162 L 520.304688 162 L 520.304688 286 L 467 286 Z M 467 162 " clip-rule="nonzero"/></clipPath><clipPath id="b76f7760bc"><path d="M 472 318 L 520.304688 318 L 520.304688 376 L 472 376 Z M 472 318 " clip-rule="nonzero"/></clipPath><clipPath id="2f869d2332"><path d="M 465 78 L 520.304688 78 L 520.304688 139 L 465 139 Z M 465 78 " clip-rule="nonzero"/></clipPath><clipPath id="547606fa8d"><path d="M 464 246 L 520.304688 246 L 520.304688 306 L 464 306 Z M 464 246 " clip-rule="nonzero"/></clipPath><clipPath id="3ec51ee953"><path d="M 471 0 L 539.382812 0 L 539.382812 68 L 471 68 Z M 471 0 " clip-rule="nonzero"/></clipPath><clipPath id="71214169ff"><path d="M 464 157 L 472 157 L 472 164.839844 L 464 164.839844 Z M 464 157 " clip-rule="nonzero"/></clipPath><clipPath id="af1c1606e6"><path d="M 434.167969 37 L 502 37 L 502 105 L 434.167969 105 Z M 434.167969 37 " clip-rule="nonzero"/></clipPath><clipPath id="7bc859ba25"><rect x="0" width="540" y="0" height="380"/></clipPath></defs><g clip-path="url(#bb3eef8c8c)"><g transform="matrix(1, 0, 0, 1, 0, -0.000000000000004568)"><g clip-path="url(#7bc859ba25)"><g clip-path="url(#40dad3707f)"><path stroke-linecap="butt" transform="matrix(2.275069, 0, 0, 2.27773, -921.540278, -127.267071)" fill="none" stroke-linejoin="miter" d="M 417.630459 79.460578 C 417.117081 80.386665 416.423421 81.019491 415.549477 81.360771 C 414.249723 81.873548 413.477081 82.252558 413.229836 82.499514 C 412.496685 83.233524 411.753232 83.789176 410.999477 84.1699 C 410.613157 84.368837 410.312685 84.699827 410.149572 85.099417 L 406.909628 93.120355 C 406.844383 93.271273 406.806609 93.434196 406.799741 93.600548 C 406.480383 98.332165 406.320703 101.132719 406.320703 102.000497 C 406.346458 161.566728 406.336156 192.799856 406.289798 195.699879 C 406.260609 197.759564 406.700156 201.570239 407.63076 202.750142 C 411.883723 208.157458 416.692987 212.799896 422.06027 216.67917 C 426.879837 220.169144 430.799705 221.330182 436.750761 221.330182 C 523.149256 221.342187 578.0669 221.319893 601.50026 221.259868 C 608.359599 221.239289 613.31309 221.213564 616.360732 221.179265 C 616.728166 221.175835 617.030355 220.870569 617.030355 220.500134 C 617.030355 220.489845 617.030355 220.479555 617.030355 220.469265 L 616.83977 216.579701 C 616.820883 216.221271 616.997732 215.881706 617.299921 215.689629 C 618.106902 215.163132 619.267581 214.96248 620.780242 215.089388 " stroke="#d9dae1" stroke-width="2" stroke-opacity="1" stroke-miterlimit="4"/></g><g clip-path="url(#f941527c82)"><path stroke-linecap="butt" transform="matrix(2.275069, 0, 0, 2.27773, -921.540278, -127.267071)" fill="none" stroke-linejoin="miter" d="M 620.780242 215.089388 C 621.559751 213.89062 621.089298 211.899534 622.960808 211.479365 C 623.235525 211.422771 623.475902 211.256418 623.63043 211.019752 C 623.889694 210.613303 624.016751 210.11253 624.009883 209.519149 " stroke="#c3c2c7" stroke-width="2" stroke-opacity="1" stroke-miterlimit="4"/></g><g clip-path="url(#f909412cbb)"><path stroke-linecap="butt" transform="matrix(2.275069, 0, 0, 2.27773, -921.540278, -127.267071)" fill="none" stroke-linejoin="miter" d="M 624.009883 209.519149 C 624.169562 208.567337 624.550732 207.943086 625.149959 207.649826 C 627.749468 206.380744 628.700676 204.700068 631.099299 203.489296 C 631.39977 203.343523 631.624695 203.077702 631.719129 202.760432 L 632.759619 199.239588 " stroke="#d1d2d8" stroke-width="2" stroke-opacity="1" stroke-miterlimit="4"/></g><g clip-path="url(#bd92adfc9d)"><path stroke-linecap="butt" transform="matrix(2.275069, 0, 0, 2.27773, -921.540278, -127.267071)" fill="none" stroke-linejoin="miter" d="M 632.759619 199.239588 L 632.630846 107.229456 " stroke="#d6a68e" stroke-width="2" stroke-opacity="1" stroke-miterlimit="4"/></g><g clip-path="url(#a81b304a6c)"><path stroke-linecap="butt" transform="matrix(2.275069, 0, 0, 2.27773, -921.540278, -127.267071)" fill="none" stroke-linejoin="miter" d="M 632.630846 107.229456 L 632.299468 87.200261 C 632.294318 86.742363 631.947487 86.354778 631.49077 86.289609 C 630.369582 86.130117 628.95994 85.999779 628.350412 84.619224 C 627.569185 82.859659 625.579204 82.540674 624.679506 80.899443 C 623.84677 79.379975 622.820015 78.362994 621.599242 77.850217 C 619.99043 77.160797 619.629864 75.059952 617.360015 74.660363 C 615.246411 74.293358 612.202203 74.109856 608.230826 74.109856 C 560.330484 74.097851 499.923651 74.092706 427.010327 74.099566 C 424.589384 74.099566 423.16944 74.833575 422.750497 76.299879 C 422.661214 76.608575 422.432855 76.855531 422.130666 76.970434 C 420.030798 77.790193 418.870119 77.769613 417.630459 79.460578 " stroke="#c8a18f" stroke-width="2" stroke-opacity="1" stroke-miterlimit="4"/></g><g clip-path="url(#93da8923b6)"><path stroke-linecap="butt" transform="matrix(2.275069, 0, 0, 2.27773, -921.540278, -127.267071)" fill="none" stroke-linejoin="miter" d="M 632.630846 107.229456 C 629.969525 105.57622 628.707544 102.976318 628.839751 99.429749 C 628.999431 95.149171 628.793393 91.117264 628.219921 87.330599 " stroke="#9f471e" stroke-width="2" stroke-opacity="1" stroke-miterlimit="4"/></g><g clip-path="url(#58f1804b87)"><path stroke-linecap="butt" transform="matrix(2.275069, 0, 0, 2.27773, -921.540278, -127.267071)" fill="none" stroke-linejoin="miter" d="M 628.219921 87.330599 C 626.760487 86.857266 625.802412 86.070093 625.349129 84.970794 " stroke="#af6025" stroke-width="2" stroke-opacity="1" stroke-miterlimit="4"/></g><g clip-path="url(#5d5515d5ba)"><path stroke-linecap="butt" transform="matrix(2.275069, 0, 0, 2.27773, -921.540278, -127.267071)" fill="none" stroke-linejoin="miter" d="M 625.349129 84.970794 C 625.182581 84.229924 624.913015 83.820045 624.54043 83.739441 " stroke="#b86929" stroke-width="2" stroke-opacity="1" stroke-miterlimit="4"/></g><g clip-path="url(#bddd3fd741)"><path stroke-linecap="butt" transform="matrix(2.275069, 0, 0, 2.27773, -921.540278, -127.267071)" fill="none" stroke-linejoin="miter" d="M 624.54043 83.739441 L 622.370166 82.039901 C 622.112619 81.842679 621.90143 81.592292 621.750336 81.309322 C 621.243826 80.35065 620.670355 79.580627 620.029921 78.99925 C 619.762072 78.752294 619.425543 78.582511 619.059826 78.510482 C 617.006317 78.097173 614.827468 77.889661 612.519845 77.889661 C 603.773543 77.889661 595.030674 77.860507 586.289523 77.800482 " stroke="#c78640" stroke-width="2" stroke-opacity="1" stroke-miterlimit="4"/></g><g clip-path="url(#5483e54f90)"><path stroke-linecap="butt" transform="matrix(2.275069, 0, 0, 2.27773, -921.540278, -127.267071)" fill="none" stroke-linejoin="miter" d="M 586.289523 77.800482 C 576.190239 77.773043 566.092673 77.747318 556.000257 77.719879 C 529.833464 77.639275 503.66667 77.677004 477.499877 77.829637 C 461.339649 77.922246 445.172554 77.870796 429.000308 77.670144 C 427.712572 77.649565 427.010327 78.563646 426.890138 80.410675 " stroke="#b86929" stroke-width="2" stroke-opacity="1" stroke-miterlimit="4"/></g><g clip-path="url(#9b1ebc55bb)"><path stroke-linecap="butt" transform="matrix(2.275069, 0, 0, 2.27773, -921.540278, -127.267071)" fill="none" stroke-linejoin="miter" d="M 426.890138 80.410675 C 426.629157 81.969587 425.066704 82.647002 422.199346 82.43949 C 422.18561 82.43949 422.16844 82.437775 422.154704 82.437775 C 421.047251 82.384611 420.094327 83.248958 420.042817 84.349972 C 420.0411 84.367122 420.039383 84.382557 420.039383 84.399707 L 419.860817 91.959317 C 419.860817 91.966177 419.860817 91.973037 419.860817 91.979897 C 419.860817 92.547554 420.322685 93.015742 420.889289 93.019172 L 433.699686 93.079196 " stroke="#a34e1e" stroke-width="2" stroke-opacity="1" stroke-miterlimit="4"/></g><path stroke-linecap="butt" transform="matrix(2.275069, 0, 0, 2.27773, -921.540278, -127.267071)" fill="none" stroke-linejoin="miter" d="M 433.699686 93.079196 C 432.726158 95.133736 431.419535 96.886441 429.779818 98.34074 C 429.544591 98.543107 429.403799 98.841512 429.390063 99.160498 L 429.130799 108.2996 " stroke="#7e3718" stroke-width="2" stroke-opacity="1" stroke-miterlimit="4"/><path stroke-linecap="butt" transform="matrix(2.275069, 0, 0, 2.27773, -921.540278, -127.267071)" fill="none" stroke-linejoin="miter" d="M 429.130799 108.2996 C 429.20978 107.380374 429.146252 106.522886 428.940214 105.730568 C 428.82861 105.332693 428.457742 105.061727 428.050818 105.080592 L 421.409534 105.399577 C 420.563063 105.447597 419.888289 106.147307 419.879704 106.989359 L 419.649629 123.029522 " stroke="#ab5824" stroke-width="2" stroke-opacity="1" stroke-miterlimit="4"/><g clip-path="url(#b43566bacc)"><path stroke-linecap="butt" transform="matrix(2.275069, 0, 0, 2.27773, -921.540278, -127.267071)" fill="none" stroke-linejoin="miter" d="M 419.649629 123.029522 C 419.110497 123.677783 418.497534 124.092807 417.810742 124.279739 C 417.043251 124.487251 416.65693 125.029183 416.650062 125.91068 C 416.61744 131.083045 416.739345 135.953575 417.019213 140.520553 C 417.048402 141.036761 417.462195 141.455215 417.980723 141.489514 C 419.129383 141.559828 420.049685 142.389876 419.860817 143.900769 C 419.639327 145.672339 420.516704 146.672169 422.489516 146.900261 C 424.663214 147.152362 426.802572 147.140358 428.909308 146.860817 " stroke="#a34e1e" stroke-width="2" stroke-opacity="1" stroke-miterlimit="4"/></g><path stroke-linecap="butt" transform="matrix(2.275069, 0, 0, 2.27773, -921.540278, -127.267071)" fill="none" stroke-linejoin="miter" d="M 428.909308 146.860817 L 428.929912 152.439631 " stroke="#7e3718" stroke-width="2" stroke-opacity="1" stroke-miterlimit="4"/><path stroke-linecap="butt" transform="matrix(2.275069, 0, 0, 2.27773, -921.540278, -127.267071)" fill="none" stroke-linejoin="miter" d="M 428.929912 152.439631 L 420.460044 152.690017 C 420.145836 152.695162 419.890006 152.955838 419.890006 153.269679 L 419.489949 192.300798 " stroke="#bb6f2c" stroke-width="2" stroke-opacity="1" stroke-miterlimit="4"/><path stroke-linecap="butt" transform="matrix(2.275069, 0, 0, 2.27773, -921.540278, -127.267071)" fill="none" stroke-linejoin="miter" d="M 419.489949 192.300798 L 423.639893 201.959538 C 423.878553 202.499755 424.364459 202.892485 424.939648 203.010818 C 431.273591 204.290189 437.810139 204.746373 444.54929 204.379368 " stroke="#ab5824" stroke-width="2" stroke-opacity="1" stroke-miterlimit="4"/><path stroke-linecap="butt" transform="matrix(2.275069, 0, 0, 2.27773, -921.540278, -127.267071)" fill="none" stroke-linejoin="miter" d="M 444.54929 204.379368 L 453.439819 204.490841 " stroke="#bb6f2c" stroke-width="2" stroke-opacity="1" stroke-miterlimit="4"/><path stroke-linecap="butt" transform="matrix(2.275069, 0, 0, 2.27773, -921.540278, -127.267071)" fill="none" stroke-linejoin="miter" d="M 453.439819 204.490841 L 458.060215 209.990767 " stroke="#9f471e" stroke-width="2" stroke-opacity="1" stroke-miterlimit="4"/><g clip-path="url(#72a529158e)"><path stroke-linecap="butt" transform="matrix(2.275069, 0, 0, 2.27773, -921.540278, -127.267071)" fill="none" stroke-linejoin="miter" d="M 458.060215 209.990767 C 451.106441 209.937602 444.169837 209.982192 437.250403 210.12968 C 433.349422 210.220573 429.089591 210.110815 425.920044 207.03072 C 423.279327 204.482267 420.5871 201.86007 417.83993 199.160699 C 417.812459 199.131544 417.781553 199.105819 417.750647 199.080095 C 417.230402 198.658211 416.459478 198.7371 416.040534 199.253307 C 416.016496 199.284177 415.992459 199.316761 415.970138 199.349346 C 415.642194 199.850119 415.552911 200.906543 415.700572 202.520335 " stroke="#7e3718" stroke-width="2" stroke-opacity="1" stroke-miterlimit="4"/></g><g clip-path="url(#6ce9e95625)"><path stroke-linecap="butt" transform="matrix(2.275069, 0, 0, 2.27773, -921.540278, -127.267071)" fill="none" stroke-linejoin="miter" d="M 415.700572 202.520335 C 412.510421 197.929347 413.219534 193.449831 413.229836 187.250196 C 413.262459 161.729651 413.260742 131.979977 413.219534 97.99946 C 413.212666 96.052963 413.317402 92.552699 413.530308 87.500382 C 413.643628 84.939924 414.653213 83.252388 416.560779 82.43949 C 416.861251 82.317727 417.108496 82.086205 417.249289 81.789515 C 417.597836 81.096665 417.723176 80.319781 417.630459 79.460578 " stroke="#a27c70" stroke-width="2" stroke-opacity="1" stroke-miterlimit="4"/></g><path stroke-linecap="butt" transform="matrix(2.275069, 0, 0, 2.27773, -921.540278, -127.267071)" fill="none" stroke-linejoin="miter" d="M 593.729203 85.689368 L 602.650637 85.670503 C 603.239561 85.670503 603.788995 85.977484 604.099769 86.479972 C 604.839788 87.687314 605.990165 88.666565 607.549184 89.419439 " stroke="#c06c25" stroke-width="2" stroke-opacity="1" stroke-miterlimit="4"/><path stroke-linecap="butt" transform="matrix(2.275069, 0, 0, 2.27773, -921.540278, -127.267071)" fill="none" stroke-linejoin="miter" d="M 607.549184 89.419439 L 602.429146 88.589391 C 602.32441 88.570526 602.219675 88.563666 602.12009 88.570526 L 581.040711 89.419439 " stroke="#b0531e" stroke-width="2" stroke-opacity="1" stroke-miterlimit="4"/><path stroke-linecap="butt" transform="matrix(2.275069, 0, 0, 2.27773, -921.540278, -127.267071)" fill="none" stroke-linejoin="miter" d="M 581.040711 89.419439 C 534.112181 89.34741 487.183651 89.362845 440.249969 89.469173 C 438.282309 89.477748 437.076988 90.326661 436.630573 92.019341 C 436.551592 92.314317 436.314648 92.537264 436.019327 92.600718 L 433.699686 93.079196 " stroke="#904218" stroke-width="2" stroke-opacity="1" stroke-miterlimit="4"/><g clip-path="url(#610b6dd4ae)"><path stroke-linecap="butt" transform="matrix(2.275069, 0, 0, 2.27773, -921.540278, -127.267071)" fill="none" stroke-linejoin="miter" d="M 628.219921 87.330599 C 628.492921 88.956396 628.453431 90.517023 628.099732 92.010766 C 627.99328 92.434365 627.617261 92.741346 627.17943 92.760211 C 622.739317 92.940283 618.510392 92.883689 614.489222 92.590428 C 613.476203 92.516684 612.442581 92.293737 611.390071 91.919873 C 609.98043 91.410525 609.039524 90.100284 607.549184 89.419439 " stroke="#bc6525" stroke-width="2" stroke-opacity="1" stroke-miterlimit="4"/></g><path stroke-linecap="butt" transform="matrix(2.275069, 0, 0, 2.27773, -921.540278, -127.267071)" fill="none" stroke-linejoin="miter" d="M 428.950516 116.790442 C 426.376761 116.003269 423.636459 115.912375 420.72961 116.519476 C 419.989591 116.673824 419.496817 117.397544 419.62044 118.150418 C 419.860817 119.577277 420.413685 120.347301 421.280761 120.460489 C 424.180742 120.832639 426.740761 120.580537 428.960818 119.700755 " stroke="#d27f2f" stroke-width="2" stroke-opacity="1" stroke-miterlimit="4"/><path stroke-linecap="butt" transform="matrix(2.275069, 0, 0, 2.27773, -921.540278, -127.267071)" fill="none" stroke-linejoin="miter" d="M 428.909308 125.440777 C 426.857516 124.840536 424.639176 124.746212 422.25944 125.159521 C 421.922912 125.22126 421.644761 125.464787 421.540025 125.790632 C 421.126232 127.049424 420.932214 128.532877 420.959685 130.239277 " stroke="#da8b33" stroke-width="2" stroke-opacity="1" stroke-miterlimit="4"/><path stroke-linecap="butt" transform="matrix(2.275069, 0, 0, 2.27773, -921.540278, -127.267071)" fill="none" stroke-linejoin="miter" d="M 420.959685 130.239277 L 419.649629 123.029522 " stroke="#bc6424" stroke-width="2" stroke-opacity="1" stroke-miterlimit="4"/><path stroke-linecap="butt" transform="matrix(2.275069, 0, 0, 2.27773, -921.540278, -127.267071)" fill="none" stroke-linejoin="miter" d="M 444.54929 204.379368 C 442.782516 203.919755 441.292177 203.019393 440.079988 201.679997 C 439.860214 201.434756 439.566611 201.271833 439.250686 201.220384 C 435.519686 200.599563 431.720007 200.829369 428.229384 199.140119 C 424.670082 197.419999 421.756365 195.140797 419.489949 192.300798 " stroke="#d48532" stroke-width="2" stroke-opacity="1" stroke-miterlimit="4"/><path stroke-linecap="butt" transform="matrix(2.275069, 0, 0, 2.27773, -921.540278, -127.267071)" fill="none" stroke-linejoin="miter" d="M 428.900723 175.679259 L 422.139251 175.910781 C 421.594968 175.929645 421.155421 176.384114 421.155421 176.929476 C 421.155421 177.229596 421.289346 177.515997 421.519421 177.70979 C 422.949667 178.910272 427.420686 178.390635 429.369459 178.04078 " stroke="#f1b34e" stroke-width="2" stroke-opacity="1" stroke-miterlimit="4"/><path stroke-linecap="butt" transform="matrix(2.275069, 0, 0, 2.27773, -921.540278, -127.267071)" fill="none" stroke-linejoin="miter" d="M 430.320667 186.560776 L 425.010044 186.540197 C 425.00661 186.540197 425.003176 186.540197 424.999742 186.540197 C 424.259723 186.540197 423.650195 187.149013 423.650195 187.889882 C 423.650195 187.900172 423.650195 187.910462 423.650195 187.920752 L 423.710289 190.800195 C 423.725742 191.650823 424.33527 192.381402 425.169723 192.549469 C 428.562478 193.216595 431.280459 192.85988 433.320233 191.479325 " stroke="#f1b34e" stroke-width="2" stroke-opacity="1" stroke-miterlimit="4"/><path stroke-linecap="butt" transform="matrix(2.275069, 0, 0, 2.27773, -921.540278, -127.267071)" fill="none" stroke-linejoin="miter" d="M 433.320233 191.479325 C 434.099742 192.220194 435.116195 192.590629 436.369592 192.590629 C 436.371309 192.590629 436.371309 192.590629 436.371309 192.590629 C 436.877818 192.590629 437.291611 193.005653 437.291611 193.509856 C 437.291611 193.57674 437.284743 193.643624 437.26929 193.710508 C 437.023761 194.842391 437.099309 195.572971 437.499365 195.900531 C 437.605818 195.97942 437.727724 196.034299 437.859931 196.060024 C 440.753045 196.632825 442.883818 196.912366 444.250535 196.900361 C 457.490178 196.792318 476.842273 196.747729 502.310255 196.759733 C 505.423142 196.759733 510.153425 196.773453 516.499388 196.799178 C 536.347691 196.879782 556.192559 196.900361 576.039145 196.859202 " stroke="#bb6f2c" stroke-width="2" stroke-opacity="1" stroke-miterlimit="4"/><g clip-path="url(#691f04245c)"><path stroke-linecap="butt" transform="matrix(2.275069, 0, 0, 2.27773, -921.540278, -127.267071)" fill="none" stroke-linejoin="miter" d="M 576.039145 196.859202 L 573.000088 197.02041 C 572.345919 197.056424 571.82739 197.603501 571.82739 198.258622 C 571.82739 198.366665 571.841126 198.474709 571.870315 198.579322 L 572.309862 200.170819 C 572.53307 200.978572 573.281673 201.537654 574.11956 201.520504 L 619.789543 200.589273 C 620.282317 200.577268 620.71843 200.261713 620.879826 199.800384 C 621.367449 198.387245 622.370166 197.087294 623.889694 195.900531 C 624.087147 195.742753 624.24511 195.536956 624.349845 195.30029 C 624.75677 194.393068 624.942204 193.513286 624.909581 192.659228 C 624.890695 192.280218 624.588506 191.969808 624.21077 191.940653 L 620.419675 191.630243 C 620.028204 191.597658 619.631581 191.630243 619.240109 191.729711 C 616.3676 192.436281 613.340562 192.576909 610.160713 192.14988 " stroke="#f1b34e" stroke-width="2" stroke-opacity="1" stroke-miterlimit="4"/></g><path stroke-linecap="butt" transform="matrix(2.275069, 0, 0, 2.27773, -921.540278, -127.267071)" fill="none" stroke-linejoin="miter" d="M 610.160713 192.14988 C 612.499241 190.249688 612.823751 188.532998 611.130807 186.99981 " stroke="#bb6f2c" stroke-width="2" stroke-opacity="1" stroke-miterlimit="4"/><path stroke-linecap="butt" transform="matrix(2.275069, 0, 0, 2.27773, -921.540278, -127.267071)" fill="none" stroke-linejoin="miter" d="M 602.990599 92.900839 C 548.036899 92.907698 493.136424 92.916273 438.289177 92.929993 C 438.259988 92.929993 438.229082 92.931708 438.198177 92.933423 C 437.449573 92.981442 436.872667 93.643423 436.920743 94.398012 C 436.92246 94.428881 436.925894 94.459751 436.929328 94.490621 C 437.056384 95.509316 436.30778 96.349654 434.680082 97.009919 " stroke="#795850" stroke-width="2" stroke-opacity="1" stroke-miterlimit="4"/><path stroke-linecap="butt" transform="matrix(2.275069, 0, 0, 2.27773, -921.540278, -127.267071)" fill="none" stroke-linejoin="miter" d="M 434.680082 97.009919 C 434.06712 97.6033 433.74261 98.433348 433.709988 99.500063 C 433.643025 101.73982 433.672214 104.027597 433.799271 106.359964 " stroke="#8f706a" stroke-width="2" stroke-opacity="1" stroke-miterlimit="4"/><path stroke-linecap="butt" transform="matrix(2.275069, 0, 0, 2.27773, -921.540278, -127.267071)" fill="none" stroke-linejoin="miter" d="M 433.799271 106.359964 L 433.689384 186.459593 " stroke="#b59588" stroke-width="2" stroke-opacity="1" stroke-miterlimit="4"/><path stroke-linecap="butt" transform="matrix(2.275069, 0, 0, 2.27773, -921.540278, -127.267071)" fill="none" stroke-linejoin="miter" d="M 433.689384 186.459593 C 433.483346 186.62766 433.253271 186.756283 432.999158 186.850607 " stroke="#7e3718" stroke-width="2" stroke-opacity="1" stroke-miterlimit="4"/><path stroke-linecap="butt" transform="matrix(2.275069, 0, 0, 2.27773, -921.540278, -127.267071)" fill="none" stroke-linejoin="miter" d="M 432.999158 186.850607 C 432.406799 186.550486 431.512252 186.452733 430.320667 186.560776 " stroke="#b47b3a" stroke-width="2" stroke-opacity="1" stroke-miterlimit="4"/><path stroke-linecap="butt" transform="matrix(2.275069, 0, 0, 2.27773, -921.540278, -127.267071)" fill="none" stroke-linejoin="miter" d="M 430.320667 186.560776 C 429.372893 184.279859 429.056969 181.43986 429.369459 178.04078 " stroke="#a86425" stroke-width="2" stroke-opacity="1" stroke-miterlimit="4"/><path stroke-linecap="butt" transform="matrix(2.275069, 0, 0, 2.27773, -921.540278, -127.267071)" fill="none" stroke-linejoin="miter" d="M 429.369459 178.04078 L 428.900723 175.679259 " stroke="#b47b3a" stroke-width="2" stroke-opacity="1" stroke-miterlimit="4"/><path stroke-linecap="butt" transform="matrix(2.275069, 0, 0, 2.27773, -921.540278, -127.267071)" fill="none" stroke-linejoin="miter" d="M 428.900723 175.679259 L 428.929912 152.439631 " stroke="#a86425" stroke-width="2" stroke-opacity="1" stroke-miterlimit="4"/><path stroke-linecap="butt" transform="matrix(2.275069, 0, 0, 2.27773, -921.540278, -127.267071)" fill="none" stroke-linejoin="miter" d="M 428.909308 146.860817 L 429.01061 130.510244 " stroke="#904218" stroke-width="2" stroke-opacity="1" stroke-miterlimit="4"/><path stroke-linecap="butt" transform="matrix(2.275069, 0, 0, 2.27773, -921.540278, -127.267071)" fill="none" stroke-linejoin="miter" d="M 429.01061 130.510244 L 428.909308 125.440777 " stroke="#ad6a27" stroke-width="2" stroke-opacity="1" stroke-miterlimit="4"/><path stroke-linecap="butt" transform="matrix(2.275069, 0, 0, 2.27773, -921.540278, -127.267071)" fill="none" stroke-linejoin="miter" d="M 428.909308 125.440777 L 428.960818 119.700755 " stroke="#984d1e" stroke-width="2" stroke-opacity="1" stroke-miterlimit="4"/><path stroke-linecap="butt" transform="matrix(2.275069, 0, 0, 2.27773, -921.540278, -127.267071)" fill="none" stroke-linejoin="miter" d="M 428.960818 119.700755 L 428.950516 116.790442 " stroke="#a55e22" stroke-width="2" stroke-opacity="1" stroke-miterlimit="4"/><path stroke-linecap="butt" transform="matrix(2.275069, 0, 0, 2.27773, -921.540278, -127.267071)" fill="none" stroke-linejoin="miter" d="M 428.950516 116.790442 L 429.130799 108.2996 " stroke="#984d1e" stroke-width="2" stroke-opacity="1" stroke-miterlimit="4"/><g clip-path="url(#2317bc4411)"><path stroke-linecap="butt" transform="matrix(2.275069, 0, 0, 2.27773, -921.540278, -127.267071)" fill="none" stroke-linejoin="miter" d="M 586.289523 77.800482 L 586.349617 81.650602 C 586.354768 82.182244 586.787448 82.619563 587.319712 82.629852 L 619.890845 83.399876 C 620.270298 83.406736 620.639449 83.51478 620.960525 83.710287 C 622.047374 84.370552 623.240676 84.380842 624.54043 83.739441 " stroke="#eead4b" stroke-width="2" stroke-opacity="1" stroke-miterlimit="4"/></g><g clip-path="url(#418f507799)"><path stroke-linecap="butt" transform="matrix(2.275069, 0, 0, 2.27773, -921.540278, -127.267071)" fill="none" stroke-linejoin="miter" d="M 625.349129 84.970794 C 622.416525 85.442412 619.217789 85.627629 615.749487 85.519586 C 609.197486 85.313789 601.857392 85.370383 593.729203 85.689368 " stroke="#d68730" stroke-width="2" stroke-opacity="1" stroke-miterlimit="4"/></g><g clip-path="url(#fd33509553)"><path stroke-linecap="butt" transform="matrix(2.275069, 0, 0, 2.27773, -921.540278, -127.267071)" fill="none" stroke-linejoin="miter" d="M 593.729203 85.689368 L 444.889252 85.819706 C 444.329517 85.819706 443.850479 85.397822 443.780083 84.840455 C 443.706252 84.240214 443.592932 83.729151 443.44012 83.310698 C 443.249535 82.78077 442.743026 82.42577 442.179856 82.42577 C 441.453573 82.42577 440.854347 83.015722 440.840611 83.739441 L 440.799403 85.409827 C 440.789101 85.811131 440.45429 86.131832 440.059384 86.119827 L 438.189592 86.070093 C 437.777516 86.063233 437.413516 86.347919 437.320799 86.749223 C 436.960233 88.342435 436.462309 89.662966 435.83046 90.710815 C 435.37546 91.460259 434.559893 91.918158 433.682516 91.918158 C 432.774233 91.918158 431.931195 91.424245 431.489931 90.630211 C 430.497516 88.836347 429.199478 87.332314 427.599252 86.119827 C 427.314233 85.905455 427.139101 85.571035 427.120214 85.209175 L 426.890138 80.410675 " stroke="#ca7529" stroke-width="2" stroke-opacity="1" stroke-miterlimit="4"/></g><path stroke-linecap="butt" transform="matrix(2.275069, 0, 0, 2.27773, -921.540278, -127.267071)" fill="none" stroke-linejoin="miter" d="M 420.959685 130.239277 L 429.01061 130.510244 " stroke="#d2812d" stroke-width="2" stroke-opacity="1" stroke-miterlimit="4"/><g clip-path="url(#c1c11a9a1a)"><path stroke-linecap="butt" transform="matrix(2.275069, 0, 0, 2.27773, -921.540278, -127.267071)" fill="none" stroke-linejoin="miter" d="M 632.759619 199.239588 C 629.253544 200.913403 626.616261 203.357243 624.849487 206.569391 " stroke="#a77867" stroke-width="2" stroke-opacity="1" stroke-miterlimit="4"/></g><g clip-path="url(#2efa1c0875)"><path stroke-linecap="butt" transform="matrix(2.275069, 0, 0, 2.27773, -921.540278, -127.267071)" fill="none" stroke-linejoin="miter" d="M 624.849487 206.569391 C 624.677789 205.502677 624.516393 204.926445 624.370449 204.840696 C 623.269864 204.187291 621.767506 204.634899 621.000015 205.840527 C 620.119204 207.219367 618.833185 208.383835 617.140241 209.330501 C 616.467185 209.709511 614.743336 209.893013 611.970411 209.879293 C 568.323032 209.673496 527.323237 209.74724 488.969311 210.100525 C 479.649537 210.189704 468.360386 209.829559 458.060215 209.990767 " stroke="#8c3c17" stroke-width="2" stroke-opacity="1" stroke-miterlimit="4"/></g><g clip-path="url(#808bff5289)"><path stroke-linecap="butt" transform="matrix(2.275069, 0, 0, 2.27773, -921.540278, -127.267071)" fill="none" stroke-linejoin="miter" d="M 453.439819 204.490841 C 490.639934 204.549151 527.826313 204.502846 565.000673 204.350213 C 580.626919 204.283329 596.960561 204.362218 613.999883 204.59031 C 614.947656 204.602315 616.939355 204.437677 619.980128 204.089537 C 620.421392 204.041518 620.812864 203.770552 621.020619 203.369248 C 621.267864 202.89763 621.379468 202.1499 621.360581 201.12949 C 621.360581 201.12606 621.360581 201.12263 621.360581 201.117485 C 621.360581 200.77792 621.640449 200.498379 621.980411 200.498379 C 621.997581 200.498379 622.013034 200.498379 622.030204 200.500094 C 623.669921 200.620143 624.852921 199.783235 625.579204 197.989371 C 625.786959 197.469733 625.613544 197.179902 625.060676 197.119878 C 624.54043 195.99314 624.8306 195.183671 625.929468 194.689758 C 627.476468 193.990049 628.257695 193.333213 628.269714 192.719252 C 628.429393 185.173361 628.489487 177.613751 628.449997 170.040421 " stroke="#c8742b" stroke-width="2" stroke-opacity="1" stroke-miterlimit="4"/></g><g clip-path="url(#5afe66bac7)"><path stroke-linecap="butt" transform="matrix(2.275069, 0, 0, 2.27773, -921.540278, -127.267071)" fill="none" stroke-linejoin="miter" d="M 628.449997 170.040421 C 628.262846 161.613033 628.192449 153.19079 628.240525 144.770262 C 628.240525 144.456421 628.439695 141.626712 628.839751 136.27942 C 629.073261 133.132441 628.892978 129.963166 628.300619 126.769883 " stroke="#c66e28" stroke-width="2" stroke-opacity="1" stroke-miterlimit="4"/></g><g clip-path="url(#e032dcf86d)"><path stroke-linecap="butt" transform="matrix(2.275069, 0, 0, 2.27773, -921.540278, -127.267071)" fill="none" stroke-linejoin="miter" d="M 628.300619 126.769883 L 628.420808 112.44984 " stroke="#d3863f" stroke-width="2" stroke-opacity="1" stroke-miterlimit="4"/></g><g clip-path="url(#7d7acb0ef7)"><path stroke-linecap="butt" transform="matrix(2.275069, 0, 0, 2.27773, -921.540278, -127.267071)" fill="none" stroke-linejoin="miter" d="M 628.420808 112.44984 C 628.080846 112.062256 628.070544 111.590638 628.389902 111.029841 C 628.432827 110.954382 628.468883 110.875493 628.496355 110.794889 C 628.748751 110.04716 628.285166 109.203392 627.471317 108.927281 C 627.382034 108.898127 627.292751 108.875832 627.200034 108.860397 C 625.4676 108.572281 623.632147 108.402499 621.700543 108.349335 C 621.693676 108.349335 621.686808 108.349335 621.67994 108.349335 C 621.142525 108.349335 620.699543 108.791798 620.699543 109.3303 C 620.699543 109.3303 620.699543 122.789425 620.699543 122.789425 C 620.699543 122.79114 620.699543 122.79114 620.699543 122.792855 C 620.699543 123.110126 620.438562 123.372517 620.119204 123.372517 C 620.021336 123.372517 619.925185 123.346792 619.839336 123.300488 C 618.907015 122.780851 618.07943 122.722541 617.360015 123.130705 C 617.045807 123.309063 616.851789 123.641768 616.850072 124.000198 L 616.850072 129.949447 C 616.850072 130.618287 617.401222 131.168794 618.070845 131.168794 C 618.287185 131.168794 618.501807 131.110485 618.690675 131.000726 C 619.482204 130.527393 620.136374 130.602852 620.649751 131.230533 C 620.805996 131.417465 620.90043 131.652417 620.919317 131.899373 C 620.986279 132.700267 621.120204 135.732343 621.319374 141.000747 C 621.339977 141.43978 621.583789 141.712461 622.050808 141.820505 " stroke="#c66e28" stroke-width="2" stroke-opacity="1" stroke-miterlimit="4"/></g><g clip-path="url(#b8ec9f13b9)"><path stroke-linecap="butt" transform="matrix(2.275069, 0, 0, 2.27773, -921.540278, -127.267071)" fill="none" stroke-linejoin="miter" d="M 622.050808 141.820505 C 623.949789 141.739901 624.8306 142.626543 624.689808 144.480431 C 624.490638 147.039174 624.39277 152.803205 624.399638 161.770811 C 624.399638 162.069216 624.370449 162.367622 624.310355 162.659168 C 624.069978 163.780761 623.867374 165.200761 623.700827 166.919166 C 623.695676 166.95518 623.692242 166.991195 623.685374 167.027209 C 623.548015 167.862402 622.81143 168.443779 622.052525 168.318586 C 622.021619 168.313441 621.990713 168.306581 621.959808 168.299721 C 621.472185 168.179673 620.970826 168.332305 620.450581 168.759334 C 620.237675 168.934262 620.095166 169.179503 620.050524 169.450469 L 617.380619 184.120367 C 617.3686 184.182106 617.363449 184.243845 617.363449 184.307299 C 617.363449 184.797782 617.717147 185.221381 618.199619 185.310559 L 619.020336 185.459762 C 619.202336 185.495777 619.334543 185.656984 619.334543 185.842202 C 619.334543 186.039424 619.185166 186.207491 618.98943 186.229786 L 616.369317 186.480172 " stroke="#c8742b" stroke-width="2" stroke-opacity="1" stroke-miterlimit="4"/></g><path stroke-linecap="butt" transform="matrix(2.275069, 0, 0, 2.27773, -921.540278, -127.267071)" fill="none" stroke-linejoin="miter" d="M 616.369317 186.480172 C 616.456883 173.406917 616.649185 160.297647 616.949656 147.150647 C 617.150543 138.419709 616.379619 131.46034 616.530713 121.849619 C 616.62343 115.843776 616.463751 109.829358 616.049958 103.809795 C 616.005317 103.1461 615.658487 102.535569 615.11077 102.1497 L 609.000033 97.910281 " stroke="#90431c" stroke-width="2" stroke-opacity="1" stroke-miterlimit="4"/><path stroke-linecap="butt" transform="matrix(2.275069, 0, 0, 2.27773, -921.540278, -127.267071)" fill="none" stroke-linejoin="miter" d="M 609.000033 97.910281 C 608.19992 97.090523 607.109637 96.423398 605.729184 95.91062 " stroke="#b08170" stroke-width="2" stroke-opacity="1" stroke-miterlimit="4"/><path stroke-linecap="butt" transform="matrix(2.275069, 0, 0, 2.27773, -921.540278, -127.267071)" fill="none" stroke-linejoin="miter" d="M 605.729184 95.91062 C 605.509411 94.550645 604.597694 93.547384 602.990599 92.900839 " stroke="#996956" stroke-width="2" stroke-opacity="1" stroke-miterlimit="4"/><path stroke-linecap="butt" transform="matrix(2.275069, 0, 0, 2.27773, -921.540278, -127.267071)" fill="none" stroke-linejoin="miter" d="M 602.990599 92.900839 L 606.529297 94.000138 C 607.327694 94.245379 608.189618 93.833785 608.500392 93.060331 L 608.78026 92.369196 C 608.788845 92.350332 608.795713 92.329752 608.802581 92.309172 C 609.032656 91.652337 608.677241 90.920042 608.014486 90.688521 C 607.997316 90.681661 607.97843 90.676516 607.959543 90.669656 C 605.17975 89.849898 602.906467 89.453739 601.139693 89.479463 C 594.440033 89.566927 587.740372 89.546347 581.040711 89.419439 " stroke="#8c3c17" stroke-width="2" stroke-opacity="1" stroke-miterlimit="4"/><g clip-path="url(#6103fd9018)"><path stroke-linecap="butt" transform="matrix(2.275069, 0, 0, 2.27773, -921.540278, -127.267071)" fill="none" stroke-linejoin="miter" d="M 415.700572 202.520335 C 418.186761 206.29328 421.540025 209.592892 425.760365 212.419172 " stroke="#8f706a" stroke-width="2" stroke-opacity="1" stroke-miterlimit="4"/></g><g clip-path="url(#9e0172a219)"><path stroke-linecap="butt" transform="matrix(2.275069, 0, 0, 2.27773, -921.540278, -127.267071)" fill="none" stroke-linejoin="miter" d="M 425.760365 212.419172 L 427.130516 214.880161 C 427.733176 215.977745 428.890422 216.660305 430.140384 216.660305 L 609.930637 216.660305 C 610.255147 216.660305 610.581373 216.703179 610.900732 216.790643 C 613.680524 217.562382 615.486788 217.210812 616.319524 215.730789 C 616.56677 215.295185 616.997732 215.000209 617.490506 214.929895 C 618.589373 214.770402 619.686524 214.823567 620.780242 215.089388 " stroke="#9d9da9" stroke-width="2" stroke-opacity="1" stroke-miterlimit="4"/></g><g clip-path="url(#869b06dfa5)"><path stroke-linecap="butt" transform="matrix(2.275069, 0, 0, 2.27773, -921.540278, -127.267071)" fill="none" stroke-linejoin="miter" d="M 624.849487 206.569391 C 624.576487 206.636275 624.320657 206.843787 624.080279 207.190212 " stroke="#876861" stroke-width="2" stroke-opacity="1" stroke-miterlimit="4"/></g><g clip-path="url(#6da8a604d2)"><path stroke-linecap="butt" transform="matrix(2.275069, 0, 0, 2.27773, -921.540278, -127.267071)" fill="none" stroke-linejoin="miter" d="M 624.080279 207.190212 C 622.253411 207.490333 621.252411 208.447289 621.080713 210.059366 C 621.037789 210.412651 620.778525 210.699051 620.440279 210.769365 C 619.70026 210.930573 618.903581 210.963158 618.050241 210.870549 C 617.682807 210.82939 617.330826 211.038617 617.190034 211.379897 L 616.630298 212.779316 C 616.506675 213.084582 616.192468 213.271514 615.869675 213.230355 C 614.303788 213.029703 611.22009 213.077722 606.620297 213.369268 C 602.980297 213.597359 599.896599 213.686538 597.369203 213.640234 C 587.369504 213.449872 557.969635 214.139292 519.430275 213.460161 C 514.617576 213.372698 509.803161 213.393277 504.990463 213.520186 C 494.357198 213.792867 469.009404 213.660814 428.950516 213.120596 C 428.624289 213.120596 428.301497 213.079437 427.990723 213.000548 L 425.760365 212.419172 " stroke="#795850" stroke-width="2" stroke-opacity="1" stroke-miterlimit="4"/></g><path stroke-linecap="butt" transform="matrix(2.275069, 0, 0, 2.27773, -921.540278, -127.267071)" fill="none" stroke-linejoin="miter" d="M 610.160713 192.14988 C 609.413826 193.290339 609.142543 194.700048 609.350298 196.380724 C 609.350298 196.387584 609.352015 196.396159 609.352015 196.403019 C 609.367467 196.65512 609.176882 196.874637 608.929637 196.888357 C 608.919335 196.890072 608.91075 196.890072 608.900449 196.890072 L 576.039145 196.859202 " stroke="#c78640" stroke-width="2" stroke-opacity="1" stroke-miterlimit="4"/><g clip-path="url(#d7970879a8)"><path stroke-linecap="butt" transform="matrix(2.275069, 0, 0, 2.27773, -921.540278, -127.267071)" fill="none" stroke-linejoin="miter" d="M 628.420808 112.44984 C 625.893412 113.923004 624.372166 115.723728 623.860506 117.850297 C 622.940204 121.636962 622.030204 125.487081 621.130506 129.400655 C 621.118487 129.452104 621.111619 129.505268 621.111619 129.560147 C 621.111619 129.939157 621.420676 130.254712 621.800128 130.259857 L 627.249827 130.390195 C 627.680789 130.4022 628.048223 130.07464 628.080846 129.649326 L 628.300619 126.769883 " stroke="#eca84a" stroke-width="2" stroke-opacity="1" stroke-miterlimit="4"/></g><g clip-path="url(#6163160ac3)"><path stroke-linecap="butt" transform="matrix(2.275069, 0, 0, 2.27773, -921.540278, -127.267071)" fill="none" stroke-linejoin="miter" d="M 628.449997 170.040421 L 627.85077 139.069685 C 627.843902 138.707825 627.54343 138.411134 627.17943 138.411134 C 627.143374 138.411134 627.1056 138.414564 627.069544 138.419709 L 623.000298 139.129709 C 622.679223 139.186303 622.402789 139.386955 622.249977 139.669926 C 621.910015 140.302752 621.843053 141.019611 622.050808 141.820505 " stroke="#e29636" stroke-width="2" stroke-opacity="1" stroke-miterlimit="4"/></g><path stroke-linecap="butt" transform="matrix(2.275069, 0, 0, 2.27773, -921.540278, -127.267071)" fill="none" stroke-linejoin="miter" d="M 432.999158 186.850607 C 433.347705 187.989351 433.452441 189.532828 433.320233 191.479325 " stroke="#c78640" stroke-width="2" stroke-opacity="1" stroke-miterlimit="4"/><path stroke-linecap="butt" transform="matrix(2.275069, 0, 0, 2.27773, -921.540278, -127.267071)" fill="none" stroke-linejoin="miter" d="M 616.369317 186.480172 C 614.430845 187.186742 613.429845 186.932926 613.369751 185.720438 C 613.203203 182.412251 613.103619 179.102349 613.069279 175.790732 " stroke="#ac6b2a" stroke-width="2" stroke-opacity="1" stroke-miterlimit="4"/><path stroke-linecap="butt" transform="matrix(2.275069, 0, 0, 2.27773, -921.540278, -127.267071)" fill="none" stroke-linejoin="miter" d="M 609.000033 97.910281 L 610.069713 101.230473 C 610.121222 101.391681 610.227675 101.532308 610.370184 101.630062 C 610.897298 101.997067 611.403807 102.093105 611.889713 101.919893 C 611.925769 101.906173 611.961826 101.897598 611.9996 101.889023 C 612.408241 101.808419 612.816883 102.110255 612.904449 102.556149 C 612.911317 102.597308 612.918185 102.638467 612.919902 102.679627 C 613.153411 106.512596 613.206637 110.820614 613.079581 115.60025 C 613.072713 115.833486 613.046958 116.066723 613.0006 116.299959 C 612.430562 119.330321 612.940505 122.010827 612.919902 124.550705 C 612.780826 141.637002 612.830619 158.71644 613.069279 175.790732 " stroke="#93776f" stroke-width="2" stroke-opacity="1" stroke-miterlimit="4"/><path stroke-linecap="butt" transform="matrix(2.275069, 0, 0, 2.27773, -921.540278, -127.267071)" fill="none" stroke-linejoin="miter" d="M 613.069279 175.790732 L 613.100185 185.749593 C 613.100185 185.926235 613.058977 186.099448 612.979996 186.250366 C 612.593675 187.037539 611.977279 187.286211 611.130807 186.99981 " stroke="#cca97e" stroke-width="2" stroke-opacity="1" stroke-miterlimit="4"/><path stroke-linecap="butt" transform="matrix(2.275069, 0, 0, 2.27773, -921.540278, -127.267071)" fill="none" stroke-linejoin="miter" d="M 611.130807 186.99981 C 610.789128 186.687684 610.23626 186.526477 609.470486 186.519617 " stroke="#a27c70" stroke-width="2" stroke-opacity="1" stroke-miterlimit="4"/><path stroke-linecap="butt" transform="matrix(2.275069, 0, 0, 2.27773, -921.540278, -127.267071)" fill="none" stroke-linejoin="miter" d="M 609.470486 186.519617 C 609.96326 160.952767 609.932354 134.977754 609.379486 108.589431 C 609.369184 107.874287 608.775109 107.294625 608.060845 107.29977 C 607.626448 107.30663 606.97743 107.143707 606.110354 106.809287 C 605.773826 106.678949 605.524863 106.385688 605.449316 106.030688 C 604.85009 103.019192 602.290071 105.159481 601.460769 102.360641 C 601.338863 101.966197 600.995467 101.683226 600.590259 101.640352 C 598.929939 101.46028 596.649788 101.367671 593.749806 101.360811 C 579.782164 101.300787 534.0332 101.290497 456.499479 101.329941 C 455.407479 101.336801 449.653875 101.393396 439.240384 101.499724 C 437.772365 101.520304 436.687233 101.983347 435.979837 102.890569 C 435.840761 103.067211 435.73946 103.271293 435.679365 103.49081 C 435.366875 104.730737 434.740176 105.687693 433.799271 106.359964 " stroke="#d9dae1" stroke-width="2" stroke-opacity="1" stroke-miterlimit="4"/><path stroke-linecap="butt" transform="matrix(2.275069, 0, 0, 2.27773, -921.540278, -127.267071)" fill="none" stroke-linejoin="miter" d="M 605.729184 95.91062 C 603.442165 95.776852 601.110505 95.783712 598.730769 95.929485 C 595.329429 96.142142 593.006353 96.250185 591.759825 96.250185 C 540.839313 96.397673 489.920519 96.353084 439.000007 96.119847 C 438.067686 96.119847 436.627139 96.416538 434.680082 97.009919 " stroke="#9d9da9" stroke-width="2" stroke-opacity="1" stroke-miterlimit="4"/><path stroke-linecap="butt" transform="matrix(2.275069, 0, 0, 2.27773, -921.540278, -127.267071)" fill="none" stroke-linejoin="miter" d="M 609.470486 186.519617 L 609.609562 191.379856 C 609.61643 191.638818 609.422411 191.858334 609.170015 191.880629 C 607.063279 192.026402 604.510128 192.103576 601.510561 192.110436 C 519.236256 192.17732 466.329197 192.15674 442.789384 192.050412 C 440.929894 192.043552 439.346837 191.920074 438.040214 191.679977 C 437.629856 191.611378 437.324233 191.256378 437.320799 190.839639 L 437.26929 188.339205 C 437.26929 188.335776 437.26929 188.330631 437.26929 188.325486 C 437.245252 187.673795 436.694101 187.155873 436.046799 187.178167 C 436.041648 187.178167 436.036497 187.179882 436.029629 187.179882 C 434.697252 187.246766 433.917742 187.00667 433.689384 186.459593 " stroke="#c8a18f" stroke-width="2" stroke-opacity="1" stroke-miterlimit="4"/><g clip-path="url(#b76f7760bc)"><path stroke-linecap="butt" transform="matrix(2.275069, 0, 0, 2.27773, -921.540278, -127.267071)" fill="none" stroke-linejoin="miter" d="M 624.009883 209.519149 L 624.080279 207.190212 " stroke="#9495a0" stroke-width="2" stroke-opacity="1" stroke-miterlimit="4"/></g><g clip-path="url(#2f869d2332)"><path stroke-linecap="butt" transform="matrix(2.275069, 0, 0, 2.27773, -921.540278, -127.267071)" fill="none" stroke-linejoin="miter" d="M 620.879826 102.640182 L 621.020619 104.660423 C 621.044657 105.046293 621.370883 105.351558 621.757204 105.351558 C 621.776091 105.351558 621.79326 105.351558 621.81043 105.349843 L 624.040789 105.19035 C 626.202468 105.039433 627.952072 104.447766 627.919449 103.880109 L 627.819864 102.46011 C 627.77694 101.892453 625.963808 101.549458 623.800411 101.700376 L 621.559751 101.849579 C 621.157977 101.882163 620.850638 102.237163 620.879826 102.640182 " stroke="#c8742b" stroke-width="2" stroke-opacity="1" stroke-miterlimit="4"/></g><g clip-path="url(#547606fa8d)"><path stroke-linecap="butt" transform="matrix(2.275069, 0, 0, 2.27773, -921.540278, -127.267071)" fill="none" stroke-linejoin="miter" d="M 628.020751 178.270586 L 627.909147 175.490612 C 627.905714 175.329404 627.771789 175.200781 627.610393 175.200781 C 627.606959 175.200781 627.603525 175.200781 627.600091 175.200781 L 627.450714 175.209356 C 623.663053 175.356844 620.567336 176.058268 620.579355 176.769983 L 620.61026 177.550297 C 620.646317 178.260297 623.788393 178.725055 627.579487 178.579282 L 627.730581 178.579282 C 627.890261 178.575852 628.020751 178.440369 628.020751 178.279161 C 628.020751 178.277446 628.020751 178.272301 628.020751 178.270586 " stroke="#f1b34e" stroke-width="2" stroke-opacity="1" stroke-miterlimit="4"/></g><path fill="#91421e" d="M 517.738281 116.972656 C 511.683594 113.207031 508.8125 107.285156 509.113281 99.207031 C 509.476562 89.457031 509.007812 80.273438 507.703125 71.648438 C 504.382812 70.570312 502.203125 68.777344 501.171875 66.273438 C 500.792969 64.585938 500.179688 63.652344 499.332031 63.46875 L 494.394531 59.597656 C 493.808594 59.148438 493.328125 58.578125 492.984375 57.933594 C 491.832031 55.75 490.527344 53.996094 489.070312 52.671875 C 488.460938 52.109375 487.695312 51.722656 486.863281 51.558594 C 482.191406 50.617188 477.234375 50.144531 471.984375 50.144531 C 452.085938 50.144531 432.195312 50.078125 412.308594 49.941406 C 389.332031 49.878906 366.359375 49.820312 343.398438 49.757812 C 283.867188 49.574219 224.335938 49.660156 164.804688 50.007812 C 128.039062 50.21875 91.257812 50.101562 54.464844 49.644531 C 51.535156 49.597656 49.9375 51.679688 49.664062 55.886719 C 49.070312 59.4375 45.515625 60.980469 38.992188 60.507812 C 38.960938 60.507812 38.921875 60.503906 38.890625 60.503906 C 36.371094 60.382812 34.203125 62.351562 34.085938 64.859375 C 34.082031 64.898438 34.078125 64.933594 34.078125 64.972656 L 33.671875 82.191406 C 33.671875 82.207031 33.671875 82.222656 33.671875 82.238281 C 33.671875 83.53125 34.722656 84.597656 36.011719 84.605469 L 65.15625 84.742188 C 62.941406 89.421875 59.96875 93.414062 56.238281 96.726562 C 55.703125 97.1875 55.382812 97.867188 55.351562 98.59375 L 54.761719 119.410156 C 54.941406 117.316406 54.796875 115.363281 54.328125 113.558594 C 54.074219 112.652344 53.230469 112.035156 52.304688 112.078125 L 37.195312 112.804688 C 35.269531 112.914062 33.734375 114.507812 33.714844 116.425781 L 33.191406 152.960938 C 31.964844 154.4375 30.570312 155.382812 29.007812 155.808594 C 27.261719 156.28125 26.382812 157.515625 26.367188 159.523438 C 26.292969 171.304688 26.570312 182.398438 27.207031 192.800781 C 27.273438 193.976562 28.214844 194.929688 29.394531 195.007812 C 32.007812 195.167969 34.101562 197.058594 33.671875 200.5 C 33.167969 204.535156 35.164062 206.8125 39.652344 207.332031 C 44.597656 207.90625 49.464844 207.878906 54.257812 207.242188 L 54.304688 219.949219 L 35.035156 220.519531 C 34.320312 220.53125 33.738281 221.125 33.738281 221.839844 L 32.828125 310.742188 L 42.269531 332.742188 C 42.8125 333.972656 43.917969 334.867188 45.226562 335.136719 C 59.636719 338.050781 74.507812 339.089844 89.839844 338.253906 L 110.066406 338.507812 L 120.578125 351.035156 C 104.757812 350.914062 88.976562 351.015625 73.234375 351.351562 C 64.359375 351.558594 54.667969 351.308594 47.457031 344.292969 C 41.449219 338.488281 35.324219 332.515625 29.074219 326.367188 C 29.011719 326.300781 28.941406 326.242188 28.871094 326.183594 C 27.6875 325.222656 25.933594 325.402344 24.980469 326.578125 C 24.925781 326.648438 24.871094 326.722656 24.820312 326.796875 C 24.074219 327.9375 23.871094 330.34375 24.207031 334.019531 C 16.949219 323.5625 18.5625 313.359375 18.585938 299.238281 C 18.660156 241.109375 18.65625 173.347656 18.5625 95.949219 C 18.546875 91.515625 18.785156 83.542969 19.269531 72.035156 C 19.527344 66.203125 21.824219 62.359375 26.164062 60.507812 C 26.847656 60.230469 27.410156 59.703125 27.730469 59.027344 C 28.523438 57.449219 28.808594 55.679688 28.597656 53.722656 C 31.417969 49.871094 34.058594 49.917969 38.835938 48.050781 C 39.523438 47.789062 40.042969 47.226562 40.246094 46.523438 C 41.199219 43.183594 44.429688 41.511719 49.9375 41.511719 C 215.820312 41.496094 353.25 41.507812 462.226562 41.535156 C 471.261719 41.535156 478.1875 41.953125 482.996094 42.789062 C 488.160156 43.699219 488.980469 48.484375 492.640625 50.054688 C 495.417969 51.222656 497.753906 53.539062 499.648438 57 C 501.695312 60.738281 506.222656 61.464844 508 65.472656 C 509.386719 68.617188 512.59375 68.914062 515.144531 69.277344 C 516.183594 69.425781 516.972656 70.308594 516.984375 71.351562 Z M 517.738281 116.972656 " fill-opacity="1" fill-rule="nonzero"/><path fill="#df9033" d="M 412.308594 49.941406 L 412.445312 58.710938 C 412.457031 59.921875 413.441406 60.917969 414.652344 60.941406 L 488.753906 62.695312 C 489.617188 62.710938 490.457031 62.957031 491.1875 63.402344 C 493.660156 64.90625 496.375 64.929688 499.332031 63.46875 C 500.179688 63.652344 500.792969 64.585938 501.171875 66.273438 C 494.5 67.347656 487.222656 67.769531 479.332031 67.523438 C 464.425781 67.054688 447.726562 67.183594 429.234375 67.910156 L 90.613281 68.207031 C 89.339844 68.207031 88.25 67.246094 88.089844 65.976562 C 87.921875 64.609375 87.664062 63.445312 87.316406 62.492188 C 86.882812 61.285156 85.730469 60.476562 84.449219 60.476562 C 82.796875 60.476562 81.433594 61.820312 81.402344 63.46875 L 81.308594 67.273438 C 81.285156 68.1875 80.523438 68.917969 79.625 68.890625 L 75.371094 68.777344 C 74.433594 68.761719 73.605469 69.410156 73.394531 70.324219 C 72.574219 73.953125 71.441406 76.960938 70.003906 79.347656 C 68.96875 81.054688 67.113281 82.097656 65.117188 82.097656 C 63.050781 82.097656 61.132812 80.972656 60.128906 79.164062 C 57.871094 75.078125 54.917969 71.652344 51.277344 68.890625 C 50.628906 68.402344 50.230469 67.640625 50.1875 66.816406 L 49.664062 55.886719 C 49.9375 51.679688 51.535156 49.597656 54.464844 49.644531 C 91.257812 50.101562 128.039062 50.21875 164.804688 50.007812 C 224.335938 49.660156 283.867188 49.574219 343.398438 49.757812 C 366.359375 49.820312 389.332031 49.878906 412.308594 49.941406 Z M 412.308594 49.941406 " fill-opacity="1" fill-rule="nonzero"/><path fill="#fdca62" d="M 499.332031 63.46875 C 496.375 64.929688 493.660156 64.90625 491.1875 63.402344 C 490.457031 62.957031 489.617188 62.710938 488.753906 62.695312 L 414.652344 60.941406 C 413.441406 60.917969 412.457031 59.921875 412.445312 58.710938 L 412.308594 49.941406 C 432.195312 50.078125 452.085938 50.144531 471.984375 50.144531 C 477.234375 50.144531 482.191406 50.617188 486.863281 51.558594 C 487.695312 51.722656 488.460938 52.109375 489.070312 52.671875 C 490.527344 53.996094 491.832031 55.75 492.984375 57.933594 C 493.328125 58.578125 493.808594 59.148438 494.394531 59.597656 Z M 499.332031 63.46875 " fill-opacity="1" fill-rule="nonzero"/><path fill="#b3b5c2" d="M 28.597656 53.722656 C 28.808594 55.679688 28.523438 57.449219 27.730469 59.027344 C 27.410156 59.703125 26.847656 60.230469 26.164062 60.507812 C 21.824219 62.359375 19.527344 66.203125 19.269531 72.035156 C 18.785156 83.542969 18.546875 91.515625 18.5625 95.949219 C 18.65625 173.347656 18.660156 241.109375 18.585938 299.238281 C 18.5625 313.359375 16.949219 323.5625 24.207031 334.019531 C 29.863281 342.613281 37.492188 350.128906 47.09375 356.566406 L 50.210938 362.171875 C 51.582031 364.671875 54.214844 366.226562 57.058594 366.226562 L 466.09375 366.226562 C 466.832031 366.226562 467.574219 366.324219 468.300781 366.523438 C 474.625 368.28125 478.734375 367.480469 480.628906 364.109375 C 481.191406 363.117188 482.171875 362.445312 483.292969 362.285156 C 485.792969 361.921875 488.289062 362.042969 490.777344 362.648438 C 487.335938 362.359375 484.695312 362.816406 482.859375 364.015625 C 482.171875 364.453125 481.769531 365.226562 481.8125 366.042969 L 482.246094 374.902344 C 482.246094 374.925781 482.246094 374.949219 482.246094 374.972656 C 482.246094 375.816406 481.558594 376.511719 480.722656 376.519531 C 473.789062 376.597656 462.519531 376.65625 446.914062 376.703125 C 393.601562 376.839844 268.660156 376.890625 72.097656 376.863281 C 58.558594 376.863281 49.640625 374.21875 38.675781 366.269531 C 26.464844 357.433594 15.523438 346.859375 5.847656 334.542969 C 3.730469 331.855469 2.730469 323.175781 2.796875 318.484375 C 2.902344 311.878906 2.925781 240.738281 2.867188 105.0625 C 2.867188 103.085938 3.230469 96.707031 3.957031 85.929688 C 3.972656 85.550781 4.058594 85.179688 4.207031 84.835938 L 11.578125 66.566406 C 11.949219 65.65625 12.632812 64.902344 13.511719 64.449219 C 15.226562 63.582031 16.917969 62.316406 18.585938 60.644531 C 19.148438 60.082031 20.90625 59.21875 23.863281 58.050781 C 25.851562 57.273438 27.429688 55.832031 28.597656 53.722656 Z M 28.597656 53.722656 " fill-opacity="1" fill-rule="nonzero"/><path fill="#b4591e" d="M 49.664062 55.886719 L 50.1875 66.816406 C 50.230469 67.640625 50.628906 68.402344 51.277344 68.890625 C 54.917969 71.652344 57.871094 75.078125 60.128906 79.164062 C 61.132812 80.972656 63.050781 82.097656 65.117188 82.097656 C 67.113281 82.097656 68.96875 81.054688 70.003906 79.347656 C 71.441406 76.960938 72.574219 73.953125 73.394531 70.324219 C 73.605469 69.410156 74.433594 68.761719 75.371094 68.777344 L 79.625 68.890625 C 80.523438 68.917969 81.285156 68.1875 81.308594 67.273438 L 81.402344 63.46875 C 81.433594 61.820312 82.796875 60.476562 84.449219 60.476562 C 85.730469 60.476562 86.882812 61.285156 87.316406 62.492188 C 87.664062 63.445312 87.921875 64.609375 88.089844 65.976562 C 88.25 67.246094 89.339844 68.207031 90.613281 68.207031 L 429.234375 67.910156 L 449.53125 67.867188 C 450.871094 67.867188 452.121094 68.566406 452.828125 69.710938 C 454.511719 72.460938 457.128906 74.691406 460.675781 76.40625 L 449.027344 74.515625 C 448.789062 74.472656 448.550781 74.457031 448.324219 74.472656 L 400.367188 76.40625 C 293.601562 76.242188 186.835938 76.277344 80.058594 76.519531 C 75.582031 76.539062 72.839844 78.472656 71.824219 82.328125 C 71.644531 83 71.105469 83.507812 70.433594 83.652344 L 65.15625 84.742188 L 36.011719 84.605469 C 34.722656 84.597656 33.671875 83.53125 33.671875 82.238281 C 33.671875 82.222656 33.671875 82.207031 33.671875 82.191406 L 34.078125 64.972656 C 34.078125 64.933594 34.082031 64.898438 34.085938 64.859375 C 34.203125 62.351562 36.371094 60.382812 38.890625 60.503906 C 38.921875 60.503906 38.960938 60.507812 38.992188 60.507812 C 45.515625 60.980469 49.070312 59.4375 49.664062 55.886719 Z M 49.664062 55.886719 " fill-opacity="1" fill-rule="nonzero"/><path fill="#cc7e2c" d="M 507.703125 71.648438 C 508.324219 75.351562 508.234375 78.90625 507.429688 82.308594 C 507.1875 83.273438 506.332031 83.972656 505.335938 84.015625 C 495.234375 84.425781 485.613281 84.296875 476.464844 83.628906 C 474.160156 83.460938 471.808594 82.953125 469.414062 82.101562 C 466.207031 80.941406 464.066406 77.957031 460.675781 76.40625 C 457.128906 74.691406 454.511719 72.460938 452.828125 69.710938 C 452.121094 68.566406 450.871094 67.867188 449.53125 67.867188 L 429.234375 67.910156 C 447.726562 67.183594 464.425781 67.054688 479.332031 67.523438 C 487.222656 67.769531 494.5 67.347656 501.171875 66.273438 C 502.203125 68.777344 504.382812 70.570312 507.703125 71.648438 Z M 507.703125 71.648438 " fill-opacity="1" fill-rule="nonzero"/><path fill="#ac4c1d" d="M 517.738281 116.972656 L 518.03125 326.546875 C 510.054688 330.359375 504.054688 335.925781 500.035156 343.242188 C 499.644531 340.8125 499.277344 339.5 498.945312 339.304688 C 496.441406 337.816406 493.023438 338.835938 491.277344 341.582031 C 489.273438 344.722656 486.347656 347.375 482.496094 349.53125 C 480.964844 350.394531 477.042969 350.8125 470.734375 350.78125 C 371.433594 350.3125 278.15625 350.480469 190.898438 351.285156 C 169.695312 351.488281 144.011719 350.667969 120.578125 351.035156 L 110.066406 338.507812 C 194.699219 338.640625 279.300781 338.535156 363.875 338.1875 C 399.425781 338.035156 436.585938 338.214844 475.351562 338.734375 C 477.507812 338.761719 482.039062 338.386719 488.957031 337.59375 C 489.960938 337.484375 490.851562 336.867188 491.324219 335.953125 C 491.886719 334.878906 492.140625 333.175781 492.097656 330.851562 C 492.097656 330.84375 492.097656 330.835938 492.097656 330.824219 C 492.097656 330.050781 492.734375 329.414062 493.507812 329.414062 C 493.546875 329.414062 493.582031 329.414062 493.621094 329.417969 C 497.351562 329.691406 500.042969 327.785156 501.695312 323.699219 C 502.167969 322.515625 501.773438 321.855469 500.515625 321.71875 C 499.332031 319.152344 499.992188 317.308594 502.492188 316.183594 C 506.011719 314.589844 507.789062 313.09375 507.816406 311.695312 C 508.179688 294.507812 508.316406 277.289062 508.226562 260.039062 C 507.800781 240.84375 507.640625 221.660156 507.75 202.480469 C 507.75 201.765625 508.203125 195.320312 509.113281 183.140625 C 509.644531 175.972656 509.234375 168.753906 507.886719 161.480469 L 508.160156 128.863281 C 507.386719 127.980469 507.363281 126.90625 508.089844 125.628906 C 508.1875 125.457031 508.269531 125.277344 508.332031 125.09375 C 508.90625 123.390625 507.851562 121.46875 506 120.839844 C 505.796875 120.773438 505.59375 120.722656 505.382812 120.6875 C 501.441406 120.03125 497.265625 119.644531 492.871094 119.523438 C 492.855469 119.523438 492.839844 119.523438 492.824219 119.523438 C 491.601562 119.523438 490.59375 120.53125 490.59375 121.757812 C 490.59375 121.757812 490.59375 152.414062 490.59375 152.414062 C 490.59375 152.417969 490.59375 152.417969 490.59375 152.421875 C 490.59375 153.144531 490 153.742188 489.273438 153.742188 C 489.050781 153.742188 488.832031 153.683594 488.636719 153.578125 C 486.515625 152.394531 484.632812 152.261719 482.996094 153.191406 C 482.28125 153.597656 481.839844 154.355469 481.835938 155.171875 L 481.835938 168.722656 C 481.835938 170.246094 483.089844 171.5 484.613281 171.5 C 485.105469 171.5 485.59375 171.367188 486.023438 171.117188 C 487.824219 170.039062 489.3125 170.210938 490.480469 171.640625 C 490.835938 172.066406 491.050781 172.601562 491.09375 173.164062 C 491.246094 174.988281 491.550781 181.894531 492.003906 193.894531 C 492.050781 194.894531 492.605469 195.515625 493.667969 195.761719 C 497.988281 195.578125 499.992188 197.597656 499.671875 201.820312 C 499.21875 207.648438 498.996094 220.777344 499.011719 241.203125 C 499.011719 241.882812 498.945312 242.5625 498.808594 243.226562 C 498.261719 245.78125 497.800781 249.015625 497.421875 252.929688 C 497.410156 253.011719 497.402344 253.09375 497.386719 253.175781 C 497.074219 255.078125 495.398438 256.402344 493.671875 256.117188 C 493.601562 256.105469 493.53125 256.089844 493.460938 256.074219 C 492.351562 255.800781 491.210938 256.148438 490.027344 257.121094 C 489.542969 257.519531 489.21875 258.078125 489.117188 258.695312 L 483.042969 292.109375 C 483.015625 292.25 483.003906 292.390625 483.003906 292.535156 C 483.003906 293.652344 483.808594 294.617188 484.90625 294.820312 L 486.773438 295.160156 C 487.1875 295.242188 487.488281 295.609375 487.488281 296.03125 C 487.488281 296.480469 487.148438 296.863281 486.703125 296.914062 L 480.742188 297.484375 C 480.941406 267.707031 481.378906 237.847656 482.0625 207.902344 C 482.519531 188.015625 480.765625 172.164062 481.109375 150.273438 C 481.320312 136.59375 480.957031 122.894531 480.015625 109.183594 C 479.914062 107.671875 479.125 106.28125 477.878906 105.402344 L 463.976562 95.746094 C 462.15625 93.878906 459.675781 92.359375 456.535156 91.191406 C 456.035156 88.09375 453.960938 85.808594 450.304688 84.335938 L 458.355469 86.839844 C 460.171875 87.398438 462.132812 86.460938 462.839844 84.699219 L 463.476562 83.125 C 463.496094 83.082031 463.511719 83.035156 463.527344 82.988281 C 464.050781 81.492188 463.242188 79.824219 461.734375 79.296875 C 461.695312 79.28125 461.652344 79.269531 461.609375 79.253906 C 455.285156 77.386719 450.113281 76.484375 446.09375 76.542969 C 430.851562 76.742188 415.609375 76.695312 400.367188 76.40625 L 448.324219 74.472656 C 448.550781 74.457031 448.789062 74.472656 449.027344 74.515625 L 460.675781 76.40625 C 464.066406 77.957031 466.207031 80.941406 469.414062 82.101562 C 471.808594 82.953125 474.160156 83.460938 476.464844 83.628906 C 485.613281 84.296875 495.234375 84.425781 505.335938 84.015625 C 506.332031 83.972656 507.1875 83.273438 507.429688 82.308594 C 508.234375 78.90625 508.324219 75.351562 507.703125 71.648438 C 509.007812 80.273438 509.476562 89.457031 509.113281 99.207031 C 508.8125 107.285156 511.683594 113.207031 517.738281 116.972656 Z M 491.003906 106.519531 L 491.324219 111.121094 C 491.378906 112 492.121094 112.695312 493 112.695312 C 493.042969 112.695312 493.082031 112.695312 493.121094 112.691406 L 498.195312 112.328125 C 503.113281 111.984375 507.09375 110.636719 507.019531 109.34375 L 506.792969 106.109375 C 506.695312 104.816406 502.570312 104.035156 497.648438 104.378906 L 492.550781 104.71875 C 491.636719 104.792969 490.9375 105.601562 491.003906 106.519531 Z M 491.003906 106.519531 " fill-opacity="1" fill-rule="nonzero"/><path fill="#6b2b11" d="M 400.367188 76.40625 C 415.609375 76.695312 430.851562 76.742188 446.09375 76.542969 C 450.113281 76.484375 455.285156 77.386719 461.609375 79.253906 C 461.652344 79.269531 461.695312 79.28125 461.734375 79.296875 C 463.242188 79.824219 464.050781 81.492188 463.527344 82.988281 C 463.511719 83.035156 463.496094 83.082031 463.476562 83.125 L 462.839844 84.699219 C 462.132812 86.460938 460.171875 87.398438 458.355469 86.839844 L 450.304688 84.335938 C 325.28125 84.351562 200.378906 84.371094 75.597656 84.402344 C 75.53125 84.402344 75.460938 84.40625 75.390625 84.410156 C 73.6875 84.519531 72.375 86.027344 72.484375 87.746094 C 72.488281 87.816406 72.496094 87.886719 72.503906 87.957031 C 72.792969 90.277344 71.089844 92.191406 67.386719 93.695312 C 65.992188 95.046875 65.253906 96.9375 65.179688 99.367188 C 65.027344 104.46875 65.09375 109.679688 65.382812 114.992188 L 65.132812 297.4375 C 64.664062 297.820312 64.140625 298.113281 63.5625 298.328125 C 62.214844 297.644531 60.179688 297.421875 57.46875 297.667969 C 55.3125 292.472656 54.59375 286.003906 55.304688 278.261719 L 54.238281 272.882812 L 54.304688 219.949219 L 54.257812 207.242188 L 54.488281 170 L 54.257812 158.453125 L 54.375 145.378906 L 54.351562 138.75 L 54.761719 119.410156 L 55.351562 98.59375 C 55.382812 97.867188 55.703125 97.1875 56.238281 96.726562 C 59.96875 93.414062 62.941406 89.421875 65.15625 84.742188 L 70.433594 83.652344 C 71.105469 83.507812 71.644531 83 71.824219 82.328125 C 72.839844 78.472656 75.582031 76.539062 80.058594 76.519531 C 186.835938 76.277344 293.601562 76.242188 400.367188 76.40625 Z M 400.367188 76.40625 " fill-opacity="1" fill-rule="nonzero"/><path fill="#86858f" d="M 450.304688 84.335938 C 453.960938 85.808594 456.035156 88.09375 456.535156 91.191406 C 451.332031 90.886719 446.027344 90.902344 440.613281 91.234375 C 432.875 91.71875 427.589844 91.964844 424.753906 91.964844 C 308.90625 92.300781 193.0625 92.199219 77.214844 91.667969 C 75.09375 91.667969 71.816406 92.34375 67.386719 93.695312 C 71.089844 92.191406 72.792969 90.277344 72.503906 87.957031 C 72.496094 87.886719 72.488281 87.816406 72.484375 87.746094 C 72.375 86.027344 73.6875 84.519531 75.390625 84.410156 C 75.460938 84.40625 75.53125 84.402344 75.597656 84.402344 C 200.378906 84.371094 325.28125 84.351562 450.304688 84.335938 Z M 450.304688 84.335938 " fill-opacity="1" fill-rule="nonzero"/><path fill="#b3b5c2" d="M 456.535156 91.191406 C 459.675781 92.359375 462.15625 93.878906 463.976562 95.746094 L 466.410156 103.308594 C 466.527344 103.675781 466.769531 103.996094 467.09375 104.21875 C 468.292969 105.054688 469.445312 105.273438 470.550781 104.878906 C 470.632812 104.847656 470.714844 104.828125 470.800781 104.808594 C 471.730469 104.625 472.660156 105.3125 472.859375 106.328125 C 472.875 106.421875 472.890625 106.515625 472.894531 106.609375 C 473.425781 115.339844 473.546875 125.152344 473.257812 136.039062 C 473.242188 136.570312 473.183594 137.101562 473.078125 137.632812 C 471.78125 144.535156 472.941406 150.640625 472.894531 156.425781 C 472.578125 195.34375 472.691406 234.246094 473.234375 273.136719 L 473.304688 295.820312 C 473.304688 296.222656 473.210938 296.617188 473.03125 296.960938 C 472.152344 298.753906 470.75 299.320312 468.824219 298.667969 C 468.046875 297.957031 466.789062 297.589844 465.046875 297.574219 C 466.167969 239.339844 466.097656 180.175781 464.839844 120.070312 C 464.816406 118.441406 463.464844 117.121094 461.839844 117.132812 C 460.851562 117.148438 459.375 116.777344 457.402344 116.015625 C 456.636719 115.71875 456.070312 115.050781 455.898438 114.242188 C 454.535156 107.382812 448.710938 112.257812 446.824219 105.882812 C 446.546875 104.984375 445.765625 104.339844 444.84375 104.242188 C 441.066406 103.832031 435.878906 103.621094 429.28125 103.605469 C 397.503906 103.46875 293.421875 103.445312 117.027344 103.535156 C 114.542969 103.550781 101.453125 103.679688 77.761719 103.921875 C 74.421875 103.96875 71.953125 105.023438 70.34375 107.089844 C 70.027344 107.492188 69.796875 107.957031 69.660156 108.457031 C 68.949219 111.28125 67.523438 113.460938 65.382812 114.992188 C 65.09375 109.679688 65.027344 104.46875 65.179688 99.367188 C 65.253906 96.9375 65.992188 95.046875 67.386719 93.695312 C 71.816406 92.34375 75.09375 91.667969 77.214844 91.667969 C 193.0625 92.199219 308.90625 92.300781 424.753906 91.964844 C 427.589844 91.964844 432.875 91.71875 440.613281 91.234375 C 446.027344 90.902344 451.332031 90.886719 456.535156 91.191406 Z M 456.535156 91.191406 " fill-opacity="1" fill-rule="nonzero"/><path fill="#73391b" d="M 480.742188 297.484375 C 476.332031 299.09375 474.054688 298.515625 473.917969 295.753906 C 473.539062 288.21875 473.3125 280.679688 473.234375 273.136719 C 472.691406 234.246094 472.578125 195.34375 472.894531 156.425781 C 472.941406 150.640625 471.78125 144.535156 473.078125 137.632812 C 473.183594 137.101562 473.242188 136.570312 473.257812 136.039062 C 473.546875 125.152344 473.425781 115.339844 472.894531 106.609375 C 472.890625 106.515625 472.875 106.421875 472.859375 106.328125 C 472.660156 105.3125 471.730469 104.625 470.800781 104.808594 C 470.714844 104.828125 470.632812 104.847656 470.550781 104.878906 C 469.445312 105.273438 468.292969 105.054688 467.09375 104.21875 C 466.769531 103.996094 466.527344 103.675781 466.410156 103.308594 L 463.976562 95.746094 L 477.878906 105.402344 C 479.125 106.28125 479.914062 107.671875 480.015625 109.183594 C 480.957031 122.894531 481.320312 136.59375 481.109375 150.273438 C 480.765625 172.164062 482.519531 188.015625 482.0625 207.902344 C 481.378906 237.847656 480.941406 267.707031 480.742188 297.484375 Z M 480.742188 297.484375 " fill-opacity="1" fill-rule="nonzero"/><path fill="#e49c39" d="M 491.003906 106.519531 C 490.9375 105.601562 491.636719 104.792969 492.550781 104.71875 L 497.648438 104.378906 C 502.570312 104.035156 506.695312 104.816406 506.792969 106.109375 L 507.019531 109.34375 C 507.09375 110.636719 503.113281 111.984375 498.195312 112.328125 L 493.121094 112.691406 C 493.082031 112.695312 493.042969 112.695312 493 112.695312 C 492.121094 112.695312 491.378906 112 491.324219 111.121094 Z M 491.003906 106.519531 " fill-opacity="1" fill-rule="nonzero"/><path fill="#c46e2a" d="M 54.761719 119.410156 L 54.351562 138.75 C 48.496094 136.957031 42.261719 136.75 35.648438 138.132812 C 33.964844 138.484375 32.84375 140.132812 33.125 141.847656 C 33.671875 145.097656 34.929688 146.851562 36.902344 147.109375 C 43.5 147.957031 49.324219 147.382812 54.375 145.378906 L 54.257812 158.453125 C 49.589844 157.085938 44.542969 156.871094 39.128906 157.8125 C 38.363281 157.953125 37.730469 158.507812 37.492188 159.25 C 36.550781 162.117188 36.109375 165.496094 36.171875 169.382812 L 33.191406 152.960938 L 33.714844 116.425781 C 33.734375 114.507812 35.269531 112.914062 37.195312 112.804688 L 52.304688 112.078125 C 53.230469 112.035156 54.074219 112.652344 54.328125 113.558594 C 54.796875 115.363281 54.941406 117.316406 54.761719 119.410156 Z M 54.761719 119.410156 " fill-opacity="1" fill-rule="nonzero"/><path fill="#df9033" d="M 508.160156 128.863281 C 502.410156 132.21875 498.949219 136.320312 497.785156 141.164062 C 495.691406 149.789062 493.621094 158.558594 491.574219 167.472656 C 491.546875 167.589844 491.53125 167.710938 491.53125 167.835938 C 491.53125 168.699219 492.234375 169.417969 493.097656 169.429688 L 505.496094 169.726562 C 506.476562 169.753906 507.3125 169.007812 507.386719 168.039062 L 507.886719 161.480469 C 509.234375 168.753906 509.644531 175.972656 509.113281 183.140625 C 508.203125 195.320312 507.75 201.765625 507.75 202.480469 C 507.640625 221.660156 507.800781 240.84375 508.226562 260.039062 L 506.863281 189.496094 C 506.847656 188.671875 506.164062 187.996094 505.335938 187.996094 C 505.253906 187.996094 505.167969 188.003906 505.085938 188.015625 L 495.828125 189.632812 C 495.097656 189.761719 494.46875 190.21875 494.121094 190.863281 C 493.347656 192.304688 493.195312 193.9375 493.667969 195.761719 C 492.605469 195.515625 492.050781 194.894531 492.003906 193.894531 C 491.550781 181.894531 491.246094 174.988281 491.09375 173.164062 C 491.050781 172.601562 490.835938 172.066406 490.480469 171.640625 C 489.3125 170.210938 487.824219 170.039062 486.023438 171.117188 C 485.59375 171.367188 485.105469 171.5 484.613281 171.5 C 483.089844 171.5 481.835938 170.246094 481.835938 168.722656 L 481.835938 155.171875 C 481.839844 154.355469 482.28125 153.597656 482.996094 153.191406 C 484.632812 152.261719 486.515625 152.394531 488.636719 153.578125 C 488.832031 153.683594 489.050781 153.742188 489.273438 153.742188 C 490 153.742188 490.59375 153.144531 490.59375 152.421875 C 490.59375 152.417969 490.59375 152.417969 490.59375 152.414062 C 490.59375 152.414062 490.59375 121.757812 490.59375 121.757812 C 490.59375 120.53125 491.601562 119.523438 492.824219 119.523438 C 492.839844 119.523438 492.855469 119.523438 492.871094 119.523438 C 497.265625 119.644531 501.441406 120.03125 505.382812 120.6875 C 505.59375 120.722656 505.796875 120.773438 506 120.839844 C 507.851562 121.46875 508.90625 123.390625 508.332031 125.09375 C 508.269531 125.277344 508.1875 125.457031 508.089844 125.628906 C 507.363281 126.90625 507.386719 127.980469 508.160156 128.863281 Z M 508.160156 128.863281 " fill-opacity="1" fill-rule="nonzero"/><path fill="#f9c060" d="M 508.160156 128.863281 L 507.886719 161.480469 L 507.386719 168.039062 C 507.3125 169.007812 506.476562 169.753906 505.496094 169.726562 L 493.097656 169.429688 C 492.234375 169.417969 491.53125 168.699219 491.53125 167.835938 C 491.53125 167.710938 491.546875 167.589844 491.574219 167.472656 C 493.621094 158.558594 495.691406 149.789062 497.785156 141.164062 C 498.949219 136.320312 502.410156 132.21875 508.160156 128.863281 Z M 508.160156 128.863281 " fill-opacity="1" fill-rule="nonzero"/><path fill="#df9033" d="M 54.351562 138.75 L 54.375 145.378906 C 49.324219 147.382812 43.5 147.957031 36.902344 147.109375 C 34.929688 146.851562 33.671875 145.097656 33.125 141.847656 C 32.84375 140.132812 33.964844 138.484375 35.648438 138.132812 C 42.261719 136.75 48.496094 136.957031 54.351562 138.75 Z M 54.351562 138.75 " fill-opacity="1" fill-rule="nonzero"/><path fill="#b4591e" d="M 33.191406 152.960938 L 36.171875 169.382812 L 54.488281 170 L 54.257812 207.242188 C 49.464844 207.878906 44.597656 207.90625 39.652344 207.332031 C 35.164062 206.8125 33.167969 204.535156 33.671875 200.5 C 34.101562 197.058594 32.007812 195.167969 29.394531 195.007812 C 28.214844 194.929688 27.273438 193.976562 27.207031 192.800781 C 26.570312 182.398438 26.292969 171.304688 26.367188 159.523438 C 26.382812 157.515625 27.261719 156.28125 29.007812 155.808594 C 30.570312 155.382812 31.964844 154.4375 33.191406 152.960938 Z M 33.191406 152.960938 " fill-opacity="1" fill-rule="nonzero"/><path fill="#efa83c" d="M 54.257812 158.453125 L 54.488281 170 L 36.171875 169.382812 C 36.109375 165.496094 36.550781 162.117188 37.492188 159.25 C 37.730469 158.507812 38.363281 157.953125 39.128906 157.8125 C 44.542969 156.871094 49.589844 157.085938 54.257812 158.453125 Z M 54.257812 158.453125 " fill-opacity="1" fill-rule="nonzero"/><path fill="#e49c39" d="M 508.226562 260.039062 C 508.316406 277.289062 508.179688 294.507812 507.816406 311.695312 C 507.789062 313.09375 506.011719 314.589844 502.492188 316.183594 C 499.992188 317.308594 499.332031 319.152344 500.515625 321.71875 C 501.773438 321.855469 502.167969 322.515625 501.695312 323.699219 C 500.042969 327.785156 497.351562 329.691406 493.621094 329.417969 C 493.582031 329.414062 493.546875 329.414062 493.507812 329.414062 C 492.734375 329.414062 492.097656 330.050781 492.097656 330.824219 C 492.097656 330.835938 492.097656 330.84375 492.097656 330.851562 C 492.140625 333.175781 491.886719 334.878906 491.324219 335.953125 C 490.851562 336.867188 489.960938 337.484375 488.957031 337.59375 C 482.039062 338.386719 477.507812 338.761719 475.351562 338.734375 C 436.585938 338.214844 399.425781 338.035156 363.875 338.1875 C 279.300781 338.535156 194.699219 338.640625 110.066406 338.507812 L 89.839844 338.253906 C 85.820312 337.207031 82.429688 335.15625 79.671875 332.105469 C 79.171875 331.546875 78.503906 331.175781 77.785156 331.058594 C 69.296875 329.644531 60.652344 330.167969 52.710938 326.320312 C 44.613281 322.402344 37.984375 317.210938 32.828125 310.742188 L 33.738281 221.839844 C 33.738281 221.125 34.320312 220.53125 35.035156 220.519531 L 54.304688 219.949219 L 54.238281 272.882812 L 38.855469 273.410156 C 37.617188 273.453125 36.617188 274.488281 36.617188 275.730469 C 36.617188 276.414062 36.921875 277.066406 37.445312 277.507812 C 40.699219 280.242188 50.871094 279.058594 55.304688 278.261719 C 54.59375 286.003906 55.3125 292.472656 57.46875 297.667969 L 45.386719 297.621094 C 45.378906 297.621094 45.371094 297.621094 45.363281 297.621094 C 43.679688 297.621094 42.292969 299.007812 42.292969 300.695312 C 42.292969 300.71875 42.292969 300.742188 42.292969 300.765625 L 42.429688 307.324219 C 42.464844 309.261719 43.851562 310.925781 45.75 311.308594 C 53.46875 312.828125 59.652344 312.015625 64.292969 308.871094 C 66.066406 310.558594 68.378906 311.402344 71.230469 311.402344 C 71.234375 311.402344 71.234375 311.402344 71.234375 311.402344 C 72.386719 311.402344 73.328125 312.347656 73.328125 313.496094 C 73.328125 313.648438 73.3125 313.800781 73.277344 313.953125 C 72.71875 316.53125 72.890625 318.195312 73.800781 318.941406 C 74.042969 319.121094 74.320312 319.246094 74.621094 319.304688 C 81.203125 320.609375 86.050781 321.246094 89.160156 321.21875 C 119.28125 320.972656 163.308594 320.871094 221.25 320.898438 C 228.332031 320.898438 239.09375 320.929688 253.53125 320.988281 C 298.6875 321.171875 343.835938 321.21875 388.988281 321.125 L 382.074219 321.492188 C 380.585938 321.574219 379.40625 322.820312 379.40625 324.3125 C 379.40625 324.558594 379.4375 324.804688 379.503906 325.042969 L 380.503906 328.667969 C 381.011719 330.507812 382.714844 331.78125 384.621094 331.742188 L 488.523438 329.621094 C 489.644531 329.59375 490.636719 328.875 491.003906 327.824219 C 492.113281 324.605469 494.394531 321.644531 497.851562 318.941406 C 498.300781 318.582031 498.660156 318.113281 498.898438 317.574219 C 499.824219 315.507812 500.246094 313.503906 500.171875 311.558594 C 500.128906 310.695312 499.441406 309.988281 498.582031 309.921875 L 489.957031 309.214844 C 489.066406 309.140625 488.164062 309.214844 487.273438 309.441406 C 480.738281 311.050781 473.851562 311.371094 466.617188 310.398438 C 471.9375 306.070312 472.675781 302.160156 468.824219 298.667969 C 470.75 299.320312 472.152344 298.753906 473.03125 296.960938 C 473.210938 296.617188 473.304688 296.222656 473.304688 295.820312 L 473.234375 273.136719 C 473.3125 280.679688 473.539062 288.21875 473.917969 295.753906 C 474.054688 298.515625 476.332031 299.09375 480.742188 297.484375 L 486.703125 296.914062 C 487.148438 296.863281 487.488281 296.480469 487.488281 296.03125 C 487.488281 295.609375 487.1875 295.242188 486.773438 295.160156 L 484.90625 294.820312 C 483.808594 294.617188 483.003906 293.652344 483.003906 292.535156 C 483.003906 292.390625 483.015625 292.25 483.042969 292.109375 L 489.117188 258.695312 C 489.21875 258.078125 489.542969 257.519531 490.027344 257.121094 C 491.210938 256.148438 492.351562 255.800781 493.460938 256.074219 C 493.53125 256.089844 493.601562 256.105469 493.671875 256.117188 C 495.398438 256.402344 497.074219 255.078125 497.386719 253.175781 C 497.402344 253.09375 497.410156 253.011719 497.421875 252.929688 C 497.800781 249.015625 498.261719 245.78125 498.808594 243.226562 C 498.945312 242.5625 499.011719 241.882812 499.011719 241.203125 C 498.996094 220.777344 499.21875 207.648438 499.671875 201.820312 C 499.992188 197.597656 497.988281 195.578125 493.667969 195.761719 C 493.195312 193.9375 493.347656 192.304688 494.121094 190.863281 C 494.46875 190.21875 495.097656 189.761719 495.828125 189.632812 L 505.085938 188.015625 C 505.167969 188.003906 505.253906 187.996094 505.335938 187.996094 C 506.164062 187.996094 506.847656 188.671875 506.863281 189.496094 Z M 507.25 278.785156 L 506.996094 272.453125 C 506.988281 272.085938 506.683594 271.792969 506.316406 271.792969 C 506.308594 271.792969 506.300781 271.792969 506.292969 271.792969 L 505.953125 271.8125 C 497.335938 272.148438 490.292969 273.746094 490.320312 275.367188 L 490.390625 277.144531 C 490.472656 278.761719 497.621094 279.820312 506.246094 279.488281 L 506.589844 279.488281 C 506.953125 279.480469 507.25 279.171875 507.25 278.804688 C 507.25 278.800781 507.25 278.789062 507.25 278.785156 Z M 507.25 278.785156 " fill-opacity="1" fill-rule="nonzero"/><path fill="#fdca62" d="M 507.25 278.785156 C 507.25 278.789062 507.25 278.800781 507.25 278.804688 C 507.25 279.171875 506.953125 279.480469 506.589844 279.488281 L 506.246094 279.488281 C 497.621094 279.820312 490.472656 278.761719 490.390625 277.144531 L 490.320312 275.367188 C 490.292969 273.746094 497.335938 272.148438 505.953125 271.8125 L 506.292969 271.792969 C 506.300781 271.792969 506.308594 271.792969 506.316406 271.792969 C 506.683594 271.792969 506.988281 272.085938 506.996094 272.453125 Z M 507.25 278.785156 " fill-opacity="1" fill-rule="nonzero"/><path fill="#fdca62" d="M 54.238281 272.882812 L 55.304688 278.261719 C 50.871094 279.058594 40.699219 280.242188 37.445312 277.507812 C 36.921875 277.066406 36.617188 276.414062 36.617188 275.730469 C 36.617188 274.488281 37.617188 273.453125 38.855469 273.410156 Z M 54.238281 272.882812 " fill-opacity="1" fill-rule="nonzero"/><path fill="#fdca62" d="M 57.46875 297.667969 C 60.179688 297.421875 62.214844 297.644531 63.5625 298.328125 C 64.355469 300.921875 64.59375 304.4375 64.292969 308.871094 C 59.652344 312.015625 53.46875 312.828125 45.75 311.308594 C 43.851562 310.925781 42.464844 309.261719 42.429688 307.324219 L 42.292969 300.765625 C 42.292969 300.742188 42.292969 300.71875 42.292969 300.695312 C 42.292969 299.007812 43.679688 297.621094 45.363281 297.621094 C 45.371094 297.621094 45.378906 297.621094 45.386719 297.621094 Z M 57.46875 297.667969 " fill-opacity="1" fill-rule="nonzero"/><path fill="#91421e" d="M 65.132812 297.4375 C 65.652344 298.683594 67.425781 299.230469 70.457031 299.078125 C 70.472656 299.078125 70.484375 299.074219 70.496094 299.074219 C 71.96875 299.023438 73.222656 300.203125 73.277344 301.6875 C 73.277344 301.699219 73.277344 301.710938 73.277344 301.71875 L 73.394531 307.414062 C 73.402344 308.363281 74.097656 309.171875 75.03125 309.328125 C 78.003906 309.875 81.605469 310.15625 85.835938 310.171875 C 139.390625 310.414062 259.757812 310.460938 446.9375 310.308594 C 453.761719 310.292969 459.570312 310.117188 464.363281 309.785156 C 464.9375 309.734375 465.378906 309.234375 465.363281 308.644531 L 465.046875 297.574219 C 466.789062 297.589844 468.046875 297.957031 468.824219 298.667969 C 472.675781 302.160156 471.9375 306.070312 466.617188 310.398438 C 464.917969 312.996094 464.300781 316.207031 464.773438 320.035156 C 464.773438 320.050781 464.777344 320.070312 464.777344 320.085938 C 464.8125 320.660156 464.378906 321.160156 463.816406 321.191406 C 463.792969 321.195312 463.773438 321.195312 463.75 321.195312 L 388.988281 321.125 C 343.835938 321.21875 298.6875 321.171875 253.53125 320.988281 C 239.09375 320.929688 228.332031 320.898438 221.25 320.898438 C 163.308594 320.871094 119.28125 320.972656 89.160156 321.21875 C 86.050781 321.246094 81.203125 320.609375 74.621094 319.304688 C 74.320312 319.246094 74.042969 319.121094 73.800781 318.941406 C 72.890625 318.195312 72.71875 316.53125 73.277344 313.953125 C 73.3125 313.800781 73.328125 313.648438 73.328125 313.496094 C 73.328125 312.347656 72.386719 311.402344 71.234375 311.402344 C 71.234375 311.402344 71.234375 311.402344 71.230469 311.402344 C 68.378906 311.402344 66.066406 310.558594 64.292969 308.871094 C 64.59375 304.4375 64.355469 300.921875 63.5625 298.328125 C 64.140625 298.113281 64.664062 297.820312 65.132812 297.4375 Z M 65.132812 297.4375 " fill-opacity="1" fill-rule="nonzero"/><path fill="#fdca62" d="M 388.988281 321.125 L 463.75 321.195312 C 463.773438 321.195312 463.792969 321.195312 463.816406 321.191406 C 464.378906 321.160156 464.8125 320.660156 464.777344 320.085938 C 464.777344 320.070312 464.773438 320.050781 464.773438 320.035156 C 464.300781 316.207031 464.917969 312.996094 466.617188 310.398438 C 473.851562 311.371094 480.738281 311.050781 487.273438 309.441406 C 488.164062 309.214844 489.066406 309.140625 489.957031 309.214844 L 498.582031 309.921875 C 499.441406 309.988281 500.128906 310.695312 500.171875 311.558594 C 500.246094 313.503906 499.824219 315.507812 498.898438 317.574219 C 498.660156 318.113281 498.300781 318.582031 497.851562 318.941406 C 494.394531 321.644531 492.113281 324.605469 491.003906 327.824219 C 490.636719 328.875 489.644531 329.59375 488.523438 329.621094 L 384.621094 331.742188 C 382.714844 331.78125 381.011719 330.507812 380.503906 328.667969 L 379.503906 325.042969 C 379.4375 324.804688 379.40625 324.558594 379.40625 324.3125 C 379.40625 322.820312 380.585938 321.574219 382.074219 321.492188 Z M 388.988281 321.125 " fill-opacity="1" fill-rule="nonzero"/><path fill="#c46e2a" d="M 89.839844 338.253906 C 74.507812 339.089844 59.636719 338.050781 45.226562 335.136719 C 43.917969 334.867188 42.8125 333.972656 42.269531 332.742188 L 32.828125 310.742188 C 37.984375 317.210938 44.613281 322.402344 52.710938 326.320312 C 60.652344 330.167969 69.296875 329.644531 77.785156 331.058594 C 78.503906 331.175781 79.171875 331.546875 79.671875 332.105469 C 82.429688 335.15625 85.820312 337.207031 89.839844 338.253906 Z M 89.839844 338.253906 " fill-opacity="1" fill-rule="nonzero"/><path fill="#6b2b11" d="M 120.578125 351.035156 C 144.011719 350.667969 169.695312 351.488281 190.898438 351.285156 C 278.15625 350.480469 371.433594 350.3125 470.734375 350.78125 C 477.042969 350.8125 480.964844 350.394531 482.496094 349.53125 C 486.347656 347.375 489.273438 344.722656 491.277344 341.582031 C 493.023438 338.835938 496.441406 337.816406 498.945312 339.304688 C 499.277344 339.5 499.644531 340.8125 500.035156 343.242188 C 499.414062 343.394531 498.832031 343.867188 498.285156 344.65625 C 494.128906 345.339844 491.851562 347.519531 491.460938 351.191406 C 491.363281 351.996094 490.773438 352.648438 490.003906 352.808594 C 488.320312 353.175781 486.507812 353.25 484.566406 353.039062 C 483.730469 352.945312 482.929688 353.421875 482.609375 354.199219 L 481.335938 357.386719 C 481.054688 358.082031 480.339844 358.507812 479.605469 358.414062 C 476.042969 357.957031 469.027344 358.066406 458.5625 358.730469 C 450.28125 359.25 443.265625 359.453125 437.515625 359.347656 C 414.765625 358.914062 347.878906 360.484375 260.199219 358.9375 C 249.25 358.738281 238.296875 358.785156 227.347656 359.074219 C 203.15625 359.695312 145.488281 359.394531 54.351562 358.164062 C 53.609375 358.164062 52.875 358.070312 52.167969 357.890625 L 47.09375 356.566406 C 37.492188 350.128906 29.863281 342.613281 24.207031 334.019531 C 23.871094 330.34375 24.074219 327.9375 24.820312 326.796875 C 24.871094 326.722656 24.925781 326.648438 24.980469 326.578125 C 25.933594 325.402344 27.6875 325.222656 28.871094 326.183594 C 28.941406 326.242188 29.011719 326.300781 29.074219 326.367188 C 35.324219 332.515625 41.449219 338.488281 47.457031 344.292969 C 54.667969 351.308594 64.359375 351.558594 73.234375 351.351562 C 88.976562 351.015625 104.757812 350.914062 120.578125 351.035156 Z M 120.578125 351.035156 " fill-opacity="1" fill-rule="nonzero"/><path fill="#a2a4b1" d="M 518.03125 326.546875 L 515.664062 334.566406 C 515.449219 335.289062 514.9375 335.894531 514.253906 336.226562 C 508.796875 338.984375 506.632812 342.8125 500.71875 345.703125 C 499.355469 346.371094 498.488281 347.792969 498.125 349.960938 L 498.285156 344.65625 C 498.832031 343.867188 499.414062 343.394531 500.035156 343.242188 C 504.054688 335.925781 510.054688 330.359375 518.03125 326.546875 Z M 518.03125 326.546875 " fill-opacity="1" fill-rule="nonzero"/><path fill="#86858f" d="M 498.285156 344.65625 L 498.125 349.960938 C 498.140625 351.3125 497.851562 352.453125 497.261719 353.378906 C 496.910156 353.917969 496.363281 354.296875 495.738281 354.425781 C 491.480469 355.382812 492.550781 359.917969 490.777344 362.648438 C 488.289062 362.042969 485.792969 361.921875 483.292969 362.285156 C 482.171875 362.445312 481.191406 363.117188 480.628906 364.109375 C 478.734375 367.480469 474.625 368.28125 468.300781 366.523438 C 467.574219 366.324219 466.832031 366.226562 466.09375 366.226562 L 57.058594 366.226562 C 54.214844 366.226562 51.582031 364.671875 50.210938 362.171875 L 47.09375 356.566406 L 52.167969 357.890625 C 52.875 358.070312 53.609375 358.164062 54.351562 358.164062 C 145.488281 359.394531 203.15625 359.695312 227.347656 359.074219 C 238.296875 358.785156 249.25 358.738281 260.199219 358.9375 C 347.878906 360.484375 414.765625 358.914062 437.515625 359.347656 C 443.265625 359.453125 450.28125 359.25 458.5625 358.730469 C 469.027344 358.066406 476.042969 357.957031 479.605469 358.414062 C 480.339844 358.507812 481.054688 358.082031 481.335938 357.386719 L 482.609375 354.199219 C 482.929688 353.421875 483.730469 352.945312 484.566406 353.039062 C 486.507812 353.25 488.320312 353.175781 490.003906 352.808594 C 490.773438 352.648438 491.363281 351.996094 491.460938 351.191406 C 491.851562 347.519531 494.128906 345.339844 498.285156 344.65625 Z M 498.285156 344.65625 " fill-opacity="1" fill-rule="nonzero"/><g clip-path="url(#3ec51ee953)"><path fill="#171717" d="M 531.867188 14.996094 L 531.867188 7.503906 L 524.351562 7.503906 L 524.351562 0.015625 L 486.777344 0.015625 L 486.777344 7.503906 L 479.261719 7.503906 L 479.261719 14.996094 L 471.746094 14.996094 L 471.746094 44.960938 L 479.261719 44.960938 L 479.261719 52.453125 L 486.777344 52.453125 L 486.777344 59.945312 L 494.292969 59.945312 L 494.292969 67.4375 L 516.839844 67.4375 L 516.839844 59.945312 L 524.351562 59.945312 L 524.351562 52.453125 L 531.867188 52.453125 L 531.867188 44.960938 L 539.382812 44.960938 L 539.382812 14.996094 Z M 531.867188 14.996094 " fill-opacity="1" fill-rule="nonzero"/></g><path fill="#171717" d="M 501.804688 82.421875 L 509.320312 82.421875 L 509.320312 89.914062 L 501.804688 89.914062 Z M 501.804688 82.421875 " fill-opacity="1" fill-rule="nonzero"/><path fill="#171717" d="M 494.289062 74.929688 L 501.804688 74.929688 L 501.804688 82.421875 L 494.289062 82.421875 Z M 494.289062 74.929688 " fill-opacity="1" fill-rule="nonzero"/><path fill="#ff8000" d="M 501.804688 74.929688 L 509.320312 74.929688 L 509.320312 82.421875 L 501.804688 82.421875 Z M 501.804688 74.929688 " fill-opacity="1" fill-rule="nonzero"/><path fill="#171717" d="M 509.320312 74.929688 L 516.835938 74.929688 L 516.835938 82.421875 L 509.320312 82.421875 Z M 509.320312 74.929688 " fill-opacity="1" fill-rule="nonzero"/><path fill="#7b9ab9" d="M 501.804688 119.878906 L 509.320312 119.878906 L 509.320312 127.371094 L 501.804688 127.371094 Z M 501.804688 119.878906 " fill-opacity="1" fill-rule="nonzero"/><path fill="#7b9ab9" d="M 509.320312 104.894531 L 509.320312 119.878906 L 516.835938 119.878906 L 516.835938 104.894531 Z M 509.320312 104.894531 " fill-opacity="1" fill-rule="nonzero"/><path fill="#7b9ab9" d="M 501.804688 97.40625 L 509.320312 97.40625 L 509.320312 104.894531 L 501.804688 104.894531 Z M 501.804688 97.40625 " fill-opacity="1" fill-rule="nonzero"/><path fill="#7b9ab9" d="M 501.804688 82.421875 L 494.289062 82.421875 L 494.289062 97.40625 L 501.804688 97.40625 Z M 501.804688 82.421875 " fill-opacity="1" fill-rule="nonzero"/><path fill="#7b9ab9" d="M 501.804688 67.441406 L 509.320312 67.441406 L 509.320312 74.929688 L 501.804688 74.929688 Z M 501.804688 67.441406 " fill-opacity="1" fill-rule="nonzero"/><path fill="#ffffff" d="M 486.773438 22.492188 L 494.289062 22.492188 L 494.289062 29.984375 L 486.773438 29.984375 Z M 486.773438 22.492188 " fill-opacity="1" fill-rule="nonzero"/><path fill="#ffffff" d="M 494.289062 15 L 501.804688 15 L 501.804688 22.492188 L 494.289062 22.492188 Z M 494.289062 15 " fill-opacity="1" fill-rule="nonzero"/><path fill="#ff8000" d="M 524.351562 15 L 524.351562 7.511719 L 486.773438 7.511719 L 486.773438 15 L 479.257812 15 L 479.257812 44.964844 L 486.773438 44.964844 L 486.773438 52.457031 L 494.289062 52.457031 L 494.289062 59.949219 L 501.804688 59.949219 L 501.804688 67.441406 L 509.320312 67.441406 L 509.320312 59.949219 L 516.835938 59.949219 L 516.835938 52.457031 L 524.351562 52.457031 L 524.351562 44.964844 L 531.867188 44.964844 L 531.867188 15 Z M 486.773438 22.492188 L 494.289062 22.492188 L 494.289062 15 L 501.804688 15 L 501.804688 22.492188 L 494.289062 22.492188 L 494.289062 29.984375 L 486.773438 29.984375 Z M 486.773438 22.492188 " fill-opacity="1" fill-rule="nonzero"/><path fill="#171717" d="M 464.226562 119.878906 L 471.742188 119.878906 L 471.742188 127.371094 L 464.226562 127.371094 Z M 464.226562 119.878906 " fill-opacity="1" fill-rule="nonzero"/><path fill="#171717" d="M 471.742188 112.386719 L 479.257812 112.386719 L 479.257812 119.878906 L 471.742188 119.878906 Z M 471.742188 112.386719 " fill-opacity="1" fill-rule="nonzero"/><path fill="#f12f2f" d="M 464.226562 112.386719 L 471.742188 112.386719 L 471.742188 119.878906 L 464.226562 119.878906 Z M 464.226562 112.386719 " fill-opacity="1" fill-rule="nonzero"/><path fill="#171717" d="M 456.710938 112.386719 L 464.226562 112.386719 L 464.226562 119.878906 L 456.710938 119.878906 Z M 456.710938 112.386719 " fill-opacity="1" fill-rule="nonzero"/><g clip-path="url(#71214169ff)"><path fill="#7b9ab9" d="M 464.226562 157.335938 L 471.742188 157.335938 L 471.742188 164.824219 L 464.226562 164.824219 Z M 464.226562 157.335938 " fill-opacity="1" fill-rule="nonzero"/></g><path fill="#7b9ab9" d="M 456.710938 149.84375 L 456.710938 157.335938 L 464.226562 157.335938 L 464.226562 142.351562 L 456.710938 142.351562 Z M 456.710938 149.84375 " fill-opacity="1" fill-rule="nonzero"/><path fill="#7b9ab9" d="M 464.226562 134.859375 L 471.742188 134.859375 L 471.742188 142.351562 L 464.226562 142.351562 Z M 464.226562 134.859375 " fill-opacity="1" fill-rule="nonzero"/><path fill="#7b9ab9" d="M 471.742188 119.878906 L 471.742188 134.859375 L 479.257812 134.859375 L 479.257812 119.878906 Z M 471.742188 119.878906 " fill-opacity="1" fill-rule="nonzero"/><path fill="#7b9ab9" d="M 464.226562 104.894531 L 471.742188 104.894531 L 471.742188 112.386719 L 464.226562 112.386719 Z M 464.226562 104.894531 " fill-opacity="1" fill-rule="nonzero"/><g clip-path="url(#af1c1606e6)"><path fill="#171717" d="M 494.292969 52.453125 L 494.292969 44.960938 L 486.777344 44.960938 L 486.777344 37.46875 L 449.199219 37.46875 L 449.199219 44.960938 L 441.683594 44.960938 L 441.683594 52.453125 L 434.167969 52.453125 L 434.167969 82.417969 L 441.683594 82.417969 L 441.683594 89.910156 L 449.199219 89.910156 L 449.199219 97.402344 L 456.714844 97.402344 L 456.714844 104.890625 L 479.261719 104.890625 L 479.261719 97.402344 L 486.777344 97.402344 L 486.777344 89.910156 L 494.292969 89.910156 L 494.292969 82.417969 L 501.808594 82.417969 L 501.808594 52.453125 Z M 494.292969 52.453125 " fill-opacity="1" fill-rule="nonzero"/></g><path fill="#f12f2f" d="M 486.773438 52.457031 L 486.773438 44.964844 L 449.195312 44.964844 L 449.195312 52.457031 L 441.679688 52.457031 L 441.679688 82.421875 L 449.195312 82.421875 L 449.195312 89.914062 L 456.710938 89.914062 L 456.710938 97.40625 L 464.226562 97.40625 L 464.226562 104.894531 L 471.742188 104.894531 L 471.742188 97.40625 L 479.257812 97.40625 L 479.257812 89.914062 L 486.773438 89.914062 L 486.773438 82.421875 L 494.289062 82.421875 L 494.289062 52.457031 Z M 449.195312 59.949219 L 456.710938 59.949219 L 456.710938 52.457031 L 464.226562 52.457031 L 464.226562 59.949219 L 456.710938 59.949219 L 456.710938 67.441406 L 449.195312 67.441406 Z M 449.195312 59.949219 " fill-opacity="1" fill-rule="nonzero"/><path fill="#ffffff" d="M 449.195312 59.949219 L 456.710938 59.949219 L 456.710938 67.441406 L 449.195312 67.441406 Z M 449.195312 59.949219 " fill-opacity="1" fill-rule="nonzero"/><path fill="#ffffff" d="M 456.710938 52.457031 L 464.226562 52.457031 L 464.226562 59.949219 L 456.710938 59.949219 Z M 456.710938 52.457031 " fill-opacity="1" fill-rule="nonzero"/></g></g></g></svg>