<svg xmlns="http://www.w3.org/2000/svg" xmlns:xlink="http://www.w3.org/1999/xlink" width="84" zoomAndPan="magnify" viewBox="0 0 63 56.249996" height="75" preserveAspectRatio="xMidYMid meet" version="1.0"><defs><clipPath id="da7eacf758"><path d="M 0.414062 0 L 61.84375 0 L 61.84375 54.769531 L 0.414062 54.769531 Z M 0.414062 0 " clip-rule="nonzero"/></clipPath><clipPath id="f016562663"><path d="M 56 0 L 61.84375 0 L 61.84375 5 L 56 5 Z M 56 0 " clip-rule="nonzero"/></clipPath><clipPath id="4bec314be4"><path d="M 18 53 L 36 53 L 36 54.769531 L 18 54.769531 Z M 18 53 " clip-rule="nonzero"/></clipPath><clipPath id="e171bd437f"><path d="M 0.414062 19 L 3 19 L 3 37 L 0.414062 37 Z M 0.414062 19 " clip-rule="nonzero"/></clipPath><clipPath id="5ca24b14c0"><path d="M 0.414062 0 L 61.84375 0 L 61.84375 54.769531 L 0.414062 54.769531 Z M 0.414062 0 " clip-rule="nonzero"/></clipPath><clipPath id="1ec0954760"><path d="M 56 0 L 61.84375 0 L 61.84375 5 L 56 5 Z M 56 0 " clip-rule="nonzero"/></clipPath><clipPath id="026b0ea2e1"><path d="M 18 53 L 36 53 L 36 54.769531 L 18 54.769531 Z M 18 53 " clip-rule="nonzero"/></clipPath><clipPath id="d49de259de"><path d="M 0.414062 19 L 3 19 L 3 37 L 0.414062 37 Z M 0.414062 19 " clip-rule="nonzero"/></clipPath></defs><g clip-path="url(#da7eacf758)"><path fill="#000000" d="M 18.753906 54.703125 L 18.753906 53.042969 L 15.433594 53.042969 L 15.433594 51.382812 L 12.117188 51.382812 L 12.117188 49.722656 L 8.796875 49.722656 L 8.796875 48.066406 L 7.136719 48.066406 L 7.136719 46.40625 L 5.480469 46.40625 L 5.480469 43.085938 L 3.820312 43.085938 L 3.820312 39.765625 L 2.160156 39.765625 L 2.160156 36.445312 L 0.5 36.445312 L 0.5 19.984375 L 2.160156 19.984375 L 2.160156 16.664062 L 3.820312 16.664062 L 3.820312 13.34375 L 5.480469 13.34375 L 5.480469 10.023438 L 7.136719 10.023438 L 7.136719 8.363281 L 8.796875 8.363281 L 8.796875 6.703125 L 12.117188 6.703125 L 12.117188 5.046875 L 15.433594 5.046875 L 15.433594 3.386719 L 18.753906 3.386719 L 18.753906 1.726562 L 35.210938 1.726562 L 35.210938 3.386719 L 38.53125 3.386719 L 38.53125 5.046875 L 41.847656 5.046875 L 41.847656 6.703125 L 45.167969 6.703125 L 45.167969 8.363281 L 46.824219 8.363281 L 46.824219 10.023438 L 48.484375 10.023438 L 48.484375 13.34375 L 50.144531 13.34375 L 50.144531 15.003906 L 51.9375 15.003906 L 51.9375 13.34375 L 53.59375 13.34375 L 53.59375 11.550781 L 51.9375 11.550781 L 51.9375 6.703125 L 53.59375 6.703125 L 53.59375 5.046875 L 55.253906 5.046875 L 55.253906 1.726562 L 56.914062 1.726562 L 56.914062 0.0664062 L 61.757812 0.0664062 L 61.757812 4.914062 L 58.441406 4.914062 L 58.441406 6.703125 L 60.097656 6.703125 L 60.097656 11.550781 L 58.441406 11.550781 L 58.441406 13.210938 L 56.78125 13.210938 L 56.78125 16.53125 L 55.121094 16.53125 L 55.121094 19.851562 L 53.460938 19.851562 L 53.460938 36.445312 L 51.804688 36.445312 L 51.804688 39.765625 L 50.144531 39.765625 L 50.144531 43.085938 L 48.484375 43.085938 L 48.484375 46.40625 L 46.824219 46.40625 L 46.824219 48.066406 L 45.167969 48.066406 L 45.167969 49.722656 L 41.847656 49.722656 L 41.847656 51.382812 L 38.53125 51.382812 L 38.53125 53.042969 L 35.210938 53.042969 L 35.210938 54.703125 Z M 18.753906 54.703125 " fill-opacity="1" fill-rule="nonzero"/></g><path fill="#1c171c" d="M 48.550781 16.597656 L 48.550781 13.277344 L 46.890625 13.277344 L 46.890625 9.957031 L 45.234375 9.957031 L 45.234375 8.296875 L 41.914062 8.296875 L 41.914062 6.640625 L 38.597656 6.640625 L 38.597656 4.980469 L 35.277344 4.980469 L 35.277344 3.320312 L 18.6875 3.320312 L 18.6875 4.980469 L 15.367188 4.980469 L 15.367188 6.640625 L 12.050781 6.640625 L 12.050781 8.296875 L 8.730469 8.296875 L 8.730469 9.957031 L 7.070312 9.957031 L 7.070312 13.277344 L 5.414062 13.277344 L 5.414062 16.597656 L 3.753906 16.597656 L 3.753906 19.917969 L 2.09375 19.917969 L 2.09375 36.511719 L 3.753906 36.511719 L 3.753906 39.832031 L 5.414062 39.832031 L 5.414062 43.152344 L 7.070312 43.152344 L 7.070312 46.472656 L 8.730469 46.472656 L 8.730469 48.132812 L 12.050781 48.132812 L 12.050781 49.789062 L 15.367188 49.789062 L 15.367188 51.449219 L 18.6875 51.449219 L 18.6875 53.109375 L 35.277344 53.109375 L 35.277344 51.449219 L 38.597656 51.449219 L 38.597656 49.789062 L 41.914062 49.789062 L 41.914062 48.132812 L 45.234375 48.132812 L 45.234375 46.472656 L 46.890625 46.472656 L 46.890625 43.152344 L 48.550781 43.152344 L 48.550781 39.832031 L 50.210938 39.832031 L 50.210938 36.511719 L 51.871094 36.511719 L 51.871094 16.597656 Z M 48.550781 16.597656 " fill-opacity="1" fill-rule="nonzero"/><path fill="#9e9692" d="M 53.527344 14.9375 L 51.871094 14.9375 L 51.871094 16.597656 L 50.210938 16.597656 L 50.210938 19.917969 L 48.550781 19.917969 L 48.550781 23.234375 L 46.890625 23.234375 L 46.890625 28.214844 L 45.234375 28.214844 L 45.234375 33.195312 L 43.574219 33.195312 L 43.574219 36.511719 L 41.914062 36.511719 L 41.914062 38.171875 L 40.253906 38.171875 L 40.253906 39.832031 L 38.597656 39.832031 L 38.597656 41.492188 L 36.9375 41.492188 L 36.9375 43.152344 L 40.253906 43.152344 L 40.253906 41.492188 L 41.914062 41.492188 L 41.914062 39.832031 L 43.574219 39.832031 L 43.574219 38.171875 L 45.234375 38.171875 L 45.234375 34.851562 L 46.890625 34.851562 L 46.890625 29.875 L 48.550781 29.875 L 48.550781 26.554688 L 50.210938 26.554688 L 50.210938 21.574219 L 51.871094 21.574219 L 51.871094 18.257812 L 53.527344 18.257812 L 53.527344 16.597656 L 55.1875 16.597656 L 55.1875 13.277344 L 53.527344 13.277344 Z M 53.527344 14.9375 " fill-opacity="1" fill-rule="nonzero"/><path fill="#9e9692" d="M 53.527344 6.640625 L 58.507812 6.640625 L 58.507812 11.617188 L 53.527344 11.617188 Z M 53.527344 6.640625 " fill-opacity="1" fill-rule="nonzero"/><path fill="#9e9692" d="M 56.847656 1.660156 L 56.847656 4.980469 L 58.507812 4.980469 L 58.507812 3.320312 L 60.164062 3.320312 L 60.164062 1.660156 Z M 56.847656 1.660156 " fill-opacity="1" fill-rule="nonzero"/><path fill="#9e9692" d="M 25.324219 41.492188 L 35.277344 41.492188 L 35.277344 46.472656 L 25.324219 46.472656 Z M 25.324219 41.492188 " fill-opacity="1" fill-rule="nonzero"/><path fill="#fff6ed" d="M 31.960938 24.894531 L 31.960938 23.234375 L 30.300781 23.234375 L 30.300781 21.574219 L 23.664062 21.574219 L 23.664062 23.234375 L 22.003906 23.234375 L 22.003906 24.894531 L 20.34375 24.894531 L 20.34375 31.535156 L 22.003906 31.535156 L 22.003906 33.195312 L 23.664062 33.195312 L 23.664062 34.851562 L 30.300781 34.851562 L 30.300781 33.195312 L 31.960938 33.195312 L 31.960938 31.535156 L 33.617188 31.535156 L 33.617188 24.894531 Z M 31.960938 24.894531 " fill-opacity="1" fill-rule="nonzero"/><path fill="#4a4744" d="M 56.847656 3.320312 L 58.507812 3.320312 L 58.507812 4.980469 L 56.847656 4.980469 Z M 56.847656 3.320312 " fill-opacity="1" fill-rule="nonzero"/><path fill="#4a4744" d="M 53.527344 14.9375 L 53.527344 16.597656 L 55.1875 16.597656 L 55.1875 13.277344 L 53.527344 13.277344 Z M 53.527344 14.9375 " fill-opacity="1" fill-rule="nonzero"/><path fill="#4a4744" d="M 36.9375 41.492188 L 38.597656 41.492188 L 38.597656 43.152344 L 36.9375 43.152344 Z M 36.9375 41.492188 " fill-opacity="1" fill-rule="nonzero"/><path fill="#ccbeb6" d="M 53.527344 6.640625 L 53.527344 9.957031 L 55.1875 9.957031 L 55.1875 8.296875 L 56.847656 8.296875 L 56.847656 6.640625 Z M 53.527344 6.640625 " fill-opacity="1" fill-rule="nonzero"/><path fill="#ccbeb6" d="M 26.980469 43.152344 L 33.617188 43.152344 L 33.617188 44.8125 L 26.980469 44.8125 Z M 26.980469 43.152344 " fill-opacity="1" fill-rule="nonzero"/><path fill="#ebceb0" d="M 23.664062 24.894531 L 23.664062 31.535156 L 30.300781 31.535156 L 30.300781 24.894531 Z M 23.664062 24.894531 " fill-opacity="1" fill-rule="nonzero"/><path fill="#161514" d="M 22.003906 34.851562 L 23.664062 34.851562 L 23.664062 36.511719 L 22.003906 36.511719 Z M 22.003906 34.851562 " fill-opacity="1" fill-rule="nonzero"/><path fill="#282228" d="M 15.367188 29.875 L 17.027344 29.875 L 17.027344 31.535156 L 15.367188 31.535156 Z M 15.367188 29.875 " fill-opacity="1" fill-rule="nonzero"/><path fill="#ffffff" d="M 41.914062 14.9375 L 43.574219 14.9375 L 43.574219 18.257812 L 41.914062 18.257812 Z M 41.914062 14.9375 " fill-opacity="1" fill-rule="nonzero"/><path fill="#ffffff" d="M 40.253906 19.917969 L 41.914062 19.917969 L 41.914062 21.574219 L 40.253906 21.574219 Z M 40.253906 19.917969 " fill-opacity="1" fill-rule="nonzero"/><path fill="#ffffff" d="M 40.253906 13.277344 L 41.914062 13.277344 L 41.914062 14.9375 L 40.253906 14.9375 Z M 40.253906 13.277344 " fill-opacity="1" fill-rule="nonzero"/><path fill="#ffffff" d="M 38.597656 18.257812 L 40.253906 18.257812 L 40.253906 19.917969 L 38.597656 19.917969 Z M 38.597656 18.257812 " fill-opacity="1" fill-rule="nonzero"/><path fill="#ffffff" d="M 38.597656 11.617188 L 40.253906 11.617188 L 40.253906 13.277344 L 38.597656 13.277344 Z M 38.597656 11.617188 " fill-opacity="1" fill-rule="nonzero"/><path fill="#ffffff" d="M 36.9375 21.574219 L 38.597656 21.574219 L 38.597656 23.234375 L 36.9375 23.234375 Z M 36.9375 21.574219 " fill-opacity="1" fill-rule="nonzero"/><path fill="#ffffff" d="M 36.9375 14.9375 L 38.597656 14.9375 L 38.597656 18.257812 L 36.9375 18.257812 Z M 36.9375 14.9375 " fill-opacity="1" fill-rule="nonzero"/><path fill="#ffffff" d="M 36.9375 9.957031 L 38.597656 9.957031 L 38.597656 11.617188 L 36.9375 11.617188 Z M 36.9375 9.957031 " fill-opacity="1" fill-rule="nonzero"/><path fill="#ffffff" d="M 35.277344 19.917969 L 36.9375 19.917969 L 36.9375 21.574219 L 35.277344 21.574219 Z M 35.277344 19.917969 " fill-opacity="1" fill-rule="nonzero"/><path fill="#ffffff" d="M 35.277344 13.277344 L 36.9375 13.277344 L 36.9375 14.9375 L 35.277344 14.9375 Z M 35.277344 13.277344 " fill-opacity="1" fill-rule="nonzero"/><path fill="#ffffff" d="M 33.617188 18.257812 L 35.277344 18.257812 L 35.277344 19.917969 L 33.617188 19.917969 Z M 33.617188 18.257812 " fill-opacity="1" fill-rule="nonzero"/><path fill="#ffffff" d="M 33.617188 8.296875 L 35.277344 8.296875 L 35.277344 9.957031 L 33.617188 9.957031 Z M 33.617188 8.296875 " fill-opacity="1" fill-rule="nonzero"/><path fill="#ffffff" d="M 31.960938 11.617188 L 33.617188 11.617188 L 33.617188 13.277344 L 31.960938 13.277344 Z M 31.960938 11.617188 " fill-opacity="1" fill-rule="nonzero"/><path fill="#ffffff" d="M 18.6875 39.832031 L 20.34375 39.832031 L 20.34375 41.492188 L 18.6875 41.492188 Z M 18.6875 39.832031 " fill-opacity="1" fill-rule="nonzero"/><path fill="#ffffff" d="M 17.027344 43.152344 L 18.6875 43.152344 L 18.6875 44.8125 L 17.027344 44.8125 Z M 17.027344 43.152344 " fill-opacity="1" fill-rule="nonzero"/><path fill="#ffffff" d="M 17.027344 38.171875 L 18.6875 38.171875 L 18.6875 39.832031 L 17.027344 39.832031 Z M 17.027344 38.171875 " fill-opacity="1" fill-rule="nonzero"/><path fill="#ffffff" d="M 15.367188 46.472656 L 18.6875 46.472656 L 18.6875 48.132812 L 15.367188 48.132812 Z M 15.367188 46.472656 " fill-opacity="1" fill-rule="nonzero"/><path fill="#ffffff" d="M 15.367188 41.492188 L 17.027344 41.492188 L 17.027344 43.152344 L 15.367188 43.152344 Z M 15.367188 41.492188 " fill-opacity="1" fill-rule="nonzero"/><path fill="#ffffff" d="M 15.367188 36.511719 L 17.027344 36.511719 L 17.027344 38.171875 L 15.367188 38.171875 Z M 15.367188 36.511719 " fill-opacity="1" fill-rule="nonzero"/><path fill="#ffffff" d="M 13.707031 44.8125 L 15.367188 44.8125 L 15.367188 46.472656 L 13.707031 46.472656 Z M 13.707031 44.8125 " fill-opacity="1" fill-rule="nonzero"/><path fill="#ffffff" d="M 13.707031 39.832031 L 15.367188 39.832031 L 15.367188 41.492188 L 13.707031 41.492188 Z M 13.707031 39.832031 " fill-opacity="1" fill-rule="nonzero"/><path fill="#ffffff" d="M 12.050781 43.152344 L 13.707031 43.152344 L 13.707031 44.8125 L 12.050781 44.8125 Z M 12.050781 43.152344 " fill-opacity="1" fill-rule="nonzero"/><path fill="#ffffff" d="M 12.050781 36.511719 L 13.707031 36.511719 L 13.707031 39.832031 L 12.050781 39.832031 Z M 12.050781 36.511719 " fill-opacity="1" fill-rule="nonzero"/><path fill="#ffffff" d="M 10.390625 41.492188 L 12.050781 41.492188 L 12.050781 43.152344 L 10.390625 43.152344 Z M 10.390625 41.492188 " fill-opacity="1" fill-rule="nonzero"/><path fill="#ffffff" d="M 8.730469 38.171875 L 10.390625 38.171875 L 10.390625 41.492188 L 8.730469 41.492188 Z M 8.730469 38.171875 " fill-opacity="1" fill-rule="nonzero"/><path fill="#2b242b" d="M 45.234375 14.9375 L 45.234375 11.617188 L 43.574219 11.617188 L 43.574219 9.957031 L 40.253906 9.957031 L 40.253906 13.277344 L 41.914062 13.277344 L 41.914062 14.9375 L 43.574219 14.9375 L 43.574219 18.257812 L 41.914062 18.257812 L 41.914062 14.9375 L 40.253906 14.9375 L 40.253906 13.277344 L 36.9375 13.277344 L 36.9375 14.9375 L 38.597656 14.9375 L 38.597656 18.257812 L 40.253906 18.257812 L 40.253906 19.917969 L 41.914062 19.917969 L 41.914062 21.574219 L 40.253906 21.574219 L 40.253906 19.917969 L 38.597656 19.917969 L 38.597656 18.257812 L 35.277344 18.257812 L 35.277344 19.917969 L 36.9375 19.917969 L 36.9375 21.574219 L 38.597656 21.574219 L 38.597656 23.234375 L 36.9375 23.234375 L 36.9375 21.574219 L 35.277344 21.574219 L 35.277344 19.917969 L 33.617188 19.917969 L 33.617188 21.574219 L 31.960938 21.574219 L 31.960938 23.234375 L 33.617188 23.234375 L 33.617188 24.894531 L 35.277344 24.894531 L 35.277344 31.535156 L 38.597656 31.535156 L 38.597656 28.214844 L 40.253906 28.214844 L 40.253906 26.554688 L 41.914062 26.554688 L 41.914062 24.894531 L 43.574219 24.894531 L 43.574219 21.574219 L 45.234375 21.574219 L 45.234375 18.257812 L 46.890625 18.257812 L 46.890625 14.9375 Z M 45.234375 14.9375 " fill-opacity="1" fill-rule="nonzero"/><path fill="#2b242b" d="M 20.34375 31.535156 L 18.6875 31.535156 L 18.6875 29.875 L 17.027344 29.875 L 17.027344 31.535156 L 3.753906 31.535156 L 3.753906 36.511719 L 5.414062 36.511719 L 5.414062 39.832031 L 7.070312 39.832031 L 7.070312 43.152344 L 8.730469 43.152344 L 8.730469 46.472656 L 10.390625 46.472656 L 10.390625 48.132812 L 13.707031 48.132812 L 13.707031 44.8125 L 12.050781 44.8125 L 12.050781 43.152344 L 10.390625 43.152344 L 10.390625 41.492188 L 8.730469 41.492188 L 8.730469 38.171875 L 10.390625 38.171875 L 10.390625 41.492188 L 12.050781 41.492188 L 12.050781 43.152344 L 13.707031 43.152344 L 13.707031 44.8125 L 15.367188 44.8125 L 15.367188 41.492188 L 13.707031 41.492188 L 13.707031 39.832031 L 12.050781 39.832031 L 12.050781 36.511719 L 13.707031 36.511719 L 13.707031 39.832031 L 15.367188 39.832031 L 15.367188 41.492188 L 18.6875 41.492188 L 18.6875 39.832031 L 17.027344 39.832031 L 17.027344 38.171875 L 15.367188 38.171875 L 15.367188 36.511719 L 17.027344 36.511719 L 17.027344 38.171875 L 20.34375 38.171875 L 20.34375 36.511719 L 22.003906 36.511719 L 22.003906 33.195312 L 20.34375 33.195312 Z M 20.34375 31.535156 " fill-opacity="1" fill-rule="nonzero"/><path fill="#000000" d="M 35.277344 51.449219 L 38.597656 51.449219 L 38.597656 53.109375 L 35.277344 53.109375 Z M 35.277344 51.449219 " fill-opacity="1" fill-rule="nonzero"/><path fill="#000000" d="M 8.730469 48.132812 L 12.050781 48.132812 L 12.050781 49.789062 L 8.730469 49.789062 Z M 8.730469 48.132812 " fill-opacity="1" fill-rule="nonzero"/><path fill="#000000" d="M 35.277344 3.320312 L 38.597656 3.320312 L 38.597656 4.980469 L 35.277344 4.980469 Z M 35.277344 3.320312 " fill-opacity="1" fill-rule="nonzero"/><path fill="#000000" d="M 58.507812 6.640625 L 60.164062 6.640625 L 60.164062 11.617188 L 58.507812 11.617188 Z M 58.507812 6.640625 " fill-opacity="1" fill-rule="nonzero"/><g clip-path="url(#f016562663)"><path fill="#000000" d="M 56.847656 0 L 56.847656 1.660156 L 60.164062 1.660156 L 60.164062 3.320312 L 58.507812 3.320312 L 58.507812 4.980469 L 61.824219 4.980469 L 61.824219 0 Z M 56.847656 0 " fill-opacity="1" fill-rule="nonzero"/></g><path fill="#000000" d="M 53.527344 11.617188 L 53.527344 13.277344 L 55.1875 13.277344 L 55.1875 16.597656 L 56.847656 16.597656 L 56.847656 13.277344 L 58.507812 13.277344 L 58.507812 11.617188 Z M 53.527344 11.617188 " fill-opacity="1" fill-rule="nonzero"/><path fill="#000000" d="M 56.847656 1.660156 L 55.1875 1.660156 L 55.1875 4.980469 L 53.527344 4.980469 L 53.527344 6.640625 L 58.507812 6.640625 L 58.507812 4.980469 L 56.847656 4.980469 Z M 56.847656 1.660156 " fill-opacity="1" fill-rule="nonzero"/><path fill="#000000" d="M 53.527344 18.257812 L 51.871094 18.257812 L 51.871094 21.574219 L 50.210938 21.574219 L 50.210938 26.554688 L 48.550781 26.554688 L 48.550781 29.875 L 46.890625 29.875 L 46.890625 34.851562 L 45.234375 34.851562 L 45.234375 38.171875 L 43.574219 38.171875 L 43.574219 39.832031 L 41.914062 39.832031 L 41.914062 41.492188 L 40.253906 41.492188 L 40.253906 43.152344 L 36.9375 43.152344 L 36.9375 41.492188 L 35.277344 41.492188 L 35.277344 46.472656 L 25.324219 46.472656 L 25.324219 41.492188 L 23.664062 41.492188 L 23.664062 48.132812 L 25.324219 48.132812 L 25.324219 49.789062 L 38.597656 49.789062 L 38.597656 46.472656 L 41.914062 46.472656 L 41.914062 44.8125 L 45.234375 44.8125 L 45.234375 41.492188 L 46.890625 41.492188 L 46.890625 39.832031 L 48.550781 39.832031 L 48.550781 36.511719 L 50.210938 36.511719 L 50.210938 33.195312 L 51.871094 33.195312 L 51.871094 36.511719 L 53.527344 36.511719 L 53.527344 19.917969 L 55.1875 19.917969 L 55.1875 16.597656 L 53.527344 16.597656 Z M 53.527344 18.257812 " fill-opacity="1" fill-rule="nonzero"/><path fill="#000000" d="M 51.871094 13.277344 L 53.527344 13.277344 L 53.527344 14.9375 L 51.871094 14.9375 Z M 51.871094 13.277344 " fill-opacity="1" fill-rule="nonzero"/><path fill="#000000" d="M 51.871094 6.640625 L 53.527344 6.640625 L 53.527344 11.617188 L 51.871094 11.617188 Z M 51.871094 6.640625 " fill-opacity="1" fill-rule="nonzero"/><path fill="#000000" d="M 50.210938 36.511719 L 51.871094 36.511719 L 51.871094 39.832031 L 50.210938 39.832031 Z M 50.210938 36.511719 " fill-opacity="1" fill-rule="nonzero"/><path fill="#000000" d="M 48.550781 39.832031 L 50.210938 39.832031 L 50.210938 43.152344 L 48.550781 43.152344 Z M 48.550781 39.832031 " fill-opacity="1" fill-rule="nonzero"/><path fill="#000000" d="M 48.550781 19.917969 L 50.210938 19.917969 L 50.210938 16.597656 L 51.871094 16.597656 L 51.871094 14.9375 L 50.210938 14.9375 L 50.210938 13.277344 L 48.550781 13.277344 Z M 48.550781 19.917969 " fill-opacity="1" fill-rule="nonzero"/><path fill="#000000" d="M 46.890625 43.152344 L 48.550781 43.152344 L 48.550781 46.472656 L 46.890625 46.472656 Z M 46.890625 43.152344 " fill-opacity="1" fill-rule="nonzero"/><path fill="#000000" d="M 46.890625 19.917969 L 48.550781 19.917969 L 48.550781 23.234375 L 46.890625 23.234375 Z M 46.890625 19.917969 " fill-opacity="1" fill-rule="nonzero"/><path fill="#000000" d="M 46.890625 9.957031 L 48.550781 9.957031 L 48.550781 13.277344 L 46.890625 13.277344 Z M 46.890625 9.957031 " fill-opacity="1" fill-rule="nonzero"/><path fill="#000000" d="M 45.234375 46.472656 L 46.890625 46.472656 L 46.890625 48.132812 L 45.234375 48.132812 Z M 45.234375 46.472656 " fill-opacity="1" fill-rule="nonzero"/><path fill="#000000" d="M 45.234375 23.234375 L 46.890625 23.234375 L 46.890625 28.214844 L 45.234375 28.214844 Z M 45.234375 23.234375 " fill-opacity="1" fill-rule="nonzero"/><path fill="#000000" d="M 45.234375 8.296875 L 46.890625 8.296875 L 46.890625 9.957031 L 45.234375 9.957031 Z M 45.234375 8.296875 " fill-opacity="1" fill-rule="nonzero"/><path fill="#000000" d="M 43.574219 28.214844 L 45.234375 28.214844 L 45.234375 33.195312 L 43.574219 33.195312 Z M 43.574219 28.214844 " fill-opacity="1" fill-rule="nonzero"/><path fill="#000000" d="M 41.914062 6.640625 L 45.234375 6.640625 L 45.234375 8.296875 L 41.914062 8.296875 Z M 41.914062 6.640625 " fill-opacity="1" fill-rule="nonzero"/><path fill="#000000" d="M 41.914062 48.132812 L 45.234375 48.132812 L 45.234375 49.789062 L 41.914062 49.789062 Z M 41.914062 48.132812 " fill-opacity="1" fill-rule="nonzero"/><path fill="#000000" d="M 41.914062 33.195312 L 43.574219 33.195312 L 43.574219 36.511719 L 41.914062 36.511719 Z M 41.914062 33.195312 " fill-opacity="1" fill-rule="nonzero"/><path fill="#000000" d="M 40.253906 36.511719 L 41.914062 36.511719 L 41.914062 38.171875 L 40.253906 38.171875 Z M 40.253906 36.511719 " fill-opacity="1" fill-rule="nonzero"/><path fill="#000000" d="M 38.597656 4.980469 L 41.914062 4.980469 L 41.914062 6.640625 L 38.597656 6.640625 Z M 38.597656 4.980469 " fill-opacity="1" fill-rule="nonzero"/><path fill="#000000" d="M 38.597656 49.789062 L 41.914062 49.789062 L 41.914062 51.449219 L 38.597656 51.449219 Z M 38.597656 49.789062 " fill-opacity="1" fill-rule="nonzero"/><path fill="#000000" d="M 38.597656 38.171875 L 40.253906 38.171875 L 40.253906 39.832031 L 38.597656 39.832031 Z M 38.597656 38.171875 " fill-opacity="1" fill-rule="nonzero"/><path fill="#000000" d="M 36.9375 39.832031 L 38.597656 39.832031 L 38.597656 41.492188 L 36.9375 41.492188 Z M 36.9375 39.832031 " fill-opacity="1" fill-rule="nonzero"/><path fill="#000000" d="M 33.617188 24.894531 L 35.277344 24.894531 L 35.277344 31.535156 L 33.617188 31.535156 Z M 33.617188 24.894531 " fill-opacity="1" fill-rule="nonzero"/><g clip-path="url(#4bec314be4)"><path fill="#000000" d="M 18.6875 53.109375 L 35.277344 53.109375 L 35.277344 54.769531 L 18.6875 54.769531 Z M 18.6875 53.109375 " fill-opacity="1" fill-rule="nonzero"/></g><path fill="#000000" d="M 31.960938 31.535156 L 33.617188 31.535156 L 33.617188 33.195312 L 31.960938 33.195312 Z M 31.960938 31.535156 " fill-opacity="1" fill-rule="nonzero"/><path fill="#000000" d="M 31.960938 23.234375 L 33.617188 23.234375 L 33.617188 24.894531 L 31.960938 24.894531 Z M 31.960938 23.234375 " fill-opacity="1" fill-rule="nonzero"/><path fill="#000000" d="M 30.300781 33.195312 L 31.960938 33.195312 L 31.960938 34.851562 L 30.300781 34.851562 Z M 30.300781 33.195312 " fill-opacity="1" fill-rule="nonzero"/><path fill="#000000" d="M 30.300781 21.574219 L 31.960938 21.574219 L 31.960938 23.234375 L 30.300781 23.234375 Z M 30.300781 21.574219 " fill-opacity="1" fill-rule="nonzero"/><path fill="#000000" d="M 25.324219 39.832031 L 35.277344 39.832031 L 35.277344 41.492188 L 25.324219 41.492188 Z M 25.324219 39.832031 " fill-opacity="1" fill-rule="nonzero"/><path fill="#000000" d="M 25.324219 26.554688 L 28.640625 26.554688 L 28.640625 29.875 L 25.324219 29.875 Z M 25.324219 26.554688 " fill-opacity="1" fill-rule="nonzero"/><path fill="#000000" d="M 23.664062 19.917969 L 30.300781 19.917969 L 30.300781 21.574219 L 23.664062 21.574219 Z M 23.664062 19.917969 " fill-opacity="1" fill-rule="nonzero"/><path fill="#000000" d="M 23.664062 34.851562 L 30.300781 34.851562 L 30.300781 36.511719 L 23.664062 36.511719 Z M 23.664062 34.851562 " fill-opacity="1" fill-rule="nonzero"/><path fill="#000000" d="M 22.003906 33.195312 L 23.664062 33.195312 L 23.664062 34.851562 L 22.003906 34.851562 Z M 22.003906 33.195312 " fill-opacity="1" fill-rule="nonzero"/><path fill="#000000" d="M 22.003906 21.574219 L 23.664062 21.574219 L 23.664062 23.234375 L 22.003906 23.234375 Z M 22.003906 21.574219 " fill-opacity="1" fill-rule="nonzero"/><path fill="#000000" d="M 20.34375 31.535156 L 22.003906 31.535156 L 22.003906 33.195312 L 20.34375 33.195312 Z M 20.34375 31.535156 " fill-opacity="1" fill-rule="nonzero"/><path fill="#000000" d="M 20.34375 23.234375 L 22.003906 23.234375 L 22.003906 24.894531 L 20.34375 24.894531 Z M 20.34375 23.234375 " fill-opacity="1" fill-rule="nonzero"/><path fill="#000000" d="M 18.6875 1.660156 L 35.277344 1.660156 L 35.277344 3.320312 L 18.6875 3.320312 Z M 18.6875 1.660156 " fill-opacity="1" fill-rule="nonzero"/><path fill="#000000" d="M 18.6875 24.894531 L 20.34375 24.894531 L 20.34375 31.535156 L 18.6875 31.535156 Z M 18.6875 24.894531 " fill-opacity="1" fill-rule="nonzero"/><path fill="#000000" d="M 15.367188 51.449219 L 18.6875 51.449219 L 18.6875 53.109375 L 15.367188 53.109375 Z M 15.367188 51.449219 " fill-opacity="1" fill-rule="nonzero"/><path fill="#000000" d="M 15.367188 3.320312 L 18.6875 3.320312 L 18.6875 4.980469 L 15.367188 4.980469 Z M 15.367188 3.320312 " fill-opacity="1" fill-rule="nonzero"/><path fill="#000000" d="M 12.050781 49.789062 L 15.367188 49.789062 L 15.367188 51.449219 L 12.050781 51.449219 Z M 12.050781 49.789062 " fill-opacity="1" fill-rule="nonzero"/><path fill="#000000" d="M 12.050781 4.980469 L 15.367188 4.980469 L 15.367188 6.640625 L 12.050781 6.640625 Z M 12.050781 4.980469 " fill-opacity="1" fill-rule="nonzero"/><path fill="#000000" d="M 8.730469 6.640625 L 12.050781 6.640625 L 12.050781 8.296875 L 8.730469 8.296875 Z M 8.730469 6.640625 " fill-opacity="1" fill-rule="nonzero"/><path fill="#000000" d="M 7.070312 46.472656 L 8.730469 46.472656 L 8.730469 48.132812 L 7.070312 48.132812 Z M 7.070312 46.472656 " fill-opacity="1" fill-rule="nonzero"/><path fill="#000000" d="M 7.070312 8.296875 L 8.730469 8.296875 L 8.730469 9.957031 L 7.070312 9.957031 Z M 7.070312 8.296875 " fill-opacity="1" fill-rule="nonzero"/><path fill="#000000" d="M 5.414062 43.152344 L 7.070312 43.152344 L 7.070312 46.472656 L 5.414062 46.472656 Z M 5.414062 43.152344 " fill-opacity="1" fill-rule="nonzero"/><path fill="#000000" d="M 5.414062 9.957031 L 7.070312 9.957031 L 7.070312 13.277344 L 5.414062 13.277344 Z M 5.414062 9.957031 " fill-opacity="1" fill-rule="nonzero"/><path fill="#000000" d="M 3.753906 39.832031 L 5.414062 39.832031 L 5.414062 43.152344 L 3.753906 43.152344 Z M 3.753906 39.832031 " fill-opacity="1" fill-rule="nonzero"/><path fill="#000000" d="M 3.753906 13.277344 L 5.414062 13.277344 L 5.414062 16.597656 L 3.753906 16.597656 Z M 3.753906 13.277344 " fill-opacity="1" fill-rule="nonzero"/><path fill="#000000" d="M 2.09375 36.511719 L 3.753906 36.511719 L 3.753906 39.832031 L 2.09375 39.832031 Z M 2.09375 36.511719 " fill-opacity="1" fill-rule="nonzero"/><path fill="#000000" d="M 2.09375 16.597656 L 3.753906 16.597656 L 3.753906 19.917969 L 2.09375 19.917969 Z M 2.09375 16.597656 " fill-opacity="1" fill-rule="nonzero"/><g clip-path="url(#e171bd437f)"><path fill="#000000" d="M 0.433594 19.917969 L 2.09375 19.917969 L 2.09375 36.511719 L 0.433594 36.511719 Z M 0.433594 19.917969 " fill-opacity="1" fill-rule="nonzero"/></g><g clip-path="url(#5ca24b14c0)"><path fill="#000000" d="M 18.753906 54.703125 L 18.753906 53.042969 L 15.433594 53.042969 L 15.433594 51.382812 L 12.117188 51.382812 L 12.117188 49.722656 L 8.796875 49.722656 L 8.796875 48.066406 L 7.136719 48.066406 L 7.136719 46.40625 L 5.480469 46.40625 L 5.480469 43.085938 L 3.820312 43.085938 L 3.820312 39.765625 L 2.160156 39.765625 L 2.160156 36.445312 L 0.5 36.445312 L 0.5 19.984375 L 2.160156 19.984375 L 2.160156 16.664062 L 3.820312 16.664062 L 3.820312 13.34375 L 5.480469 13.34375 L 5.480469 10.023438 L 7.136719 10.023438 L 7.136719 8.363281 L 8.796875 8.363281 L 8.796875 6.703125 L 12.117188 6.703125 L 12.117188 5.046875 L 15.433594 5.046875 L 15.433594 3.386719 L 18.753906 3.386719 L 18.753906 1.726562 L 35.210938 1.726562 L 35.210938 3.386719 L 38.53125 3.386719 L 38.53125 5.046875 L 41.847656 5.046875 L 41.847656 6.703125 L 45.167969 6.703125 L 45.167969 8.363281 L 46.824219 8.363281 L 46.824219 10.023438 L 48.484375 10.023438 L 48.484375 13.34375 L 50.144531 13.34375 L 50.144531 15.003906 L 51.9375 15.003906 L 51.9375 13.34375 L 53.59375 13.34375 L 53.59375 11.550781 L 51.9375 11.550781 L 51.9375 6.703125 L 53.59375 6.703125 L 53.59375 5.046875 L 55.253906 5.046875 L 55.253906 1.726562 L 56.914062 1.726562 L 56.914062 0.0664062 L 61.757812 0.0664062 L 61.757812 4.914062 L 58.441406 4.914062 L 58.441406 6.703125 L 60.097656 6.703125 L 60.097656 11.550781 L 58.441406 11.550781 L 58.441406 13.210938 L 56.78125 13.210938 L 56.78125 16.53125 L 55.121094 16.53125 L 55.121094 19.851562 L 53.460938 19.851562 L 53.460938 36.445312 L 51.804688 36.445312 L 51.804688 39.765625 L 50.144531 39.765625 L 50.144531 43.085938 L 48.484375 43.085938 L 48.484375 46.40625 L 46.824219 46.40625 L 46.824219 48.066406 L 45.167969 48.066406 L 45.167969 49.722656 L 41.847656 49.722656 L 41.847656 51.382812 L 38.53125 51.382812 L 38.53125 53.042969 L 35.210938 53.042969 L 35.210938 54.703125 Z M 18.753906 54.703125 " fill-opacity="1" fill-rule="nonzero"/></g><path fill="#1c171c" d="M 48.550781 16.597656 L 48.550781 13.277344 L 46.890625 13.277344 L 46.890625 9.957031 L 45.234375 9.957031 L 45.234375 8.296875 L 41.914062 8.296875 L 41.914062 6.640625 L 38.597656 6.640625 L 38.597656 4.980469 L 35.277344 4.980469 L 35.277344 3.320312 L 18.6875 3.320312 L 18.6875 4.980469 L 15.367188 4.980469 L 15.367188 6.640625 L 12.050781 6.640625 L 12.050781 8.296875 L 8.730469 8.296875 L 8.730469 9.957031 L 7.070312 9.957031 L 7.070312 13.277344 L 5.414062 13.277344 L 5.414062 16.597656 L 3.753906 16.597656 L 3.753906 19.917969 L 2.09375 19.917969 L 2.09375 36.511719 L 3.753906 36.511719 L 3.753906 39.832031 L 5.414062 39.832031 L 5.414062 43.152344 L 7.070312 43.152344 L 7.070312 46.472656 L 8.730469 46.472656 L 8.730469 48.132812 L 12.050781 48.132812 L 12.050781 49.789062 L 15.367188 49.789062 L 15.367188 51.449219 L 18.6875 51.449219 L 18.6875 53.109375 L 35.277344 53.109375 L 35.277344 51.449219 L 38.597656 51.449219 L 38.597656 49.789062 L 41.914062 49.789062 L 41.914062 48.132812 L 45.234375 48.132812 L 45.234375 46.472656 L 46.890625 46.472656 L 46.890625 43.152344 L 48.550781 43.152344 L 48.550781 39.832031 L 50.210938 39.832031 L 50.210938 36.511719 L 51.871094 36.511719 L 51.871094 16.597656 Z M 48.550781 16.597656 " fill-opacity="1" fill-rule="nonzero"/><path fill="#9e9692" d="M 53.527344 14.9375 L 51.871094 14.9375 L 51.871094 16.597656 L 50.210938 16.597656 L 50.210938 19.917969 L 48.550781 19.917969 L 48.550781 23.234375 L 46.890625 23.234375 L 46.890625 28.214844 L 45.234375 28.214844 L 45.234375 33.195312 L 43.574219 33.195312 L 43.574219 36.511719 L 41.914062 36.511719 L 41.914062 38.171875 L 40.253906 38.171875 L 40.253906 39.832031 L 38.597656 39.832031 L 38.597656 41.492188 L 36.9375 41.492188 L 36.9375 43.152344 L 40.253906 43.152344 L 40.253906 41.492188 L 41.914062 41.492188 L 41.914062 39.832031 L 43.574219 39.832031 L 43.574219 38.171875 L 45.234375 38.171875 L 45.234375 34.851562 L 46.890625 34.851562 L 46.890625 29.875 L 48.550781 29.875 L 48.550781 26.554688 L 50.210938 26.554688 L 50.210938 21.574219 L 51.871094 21.574219 L 51.871094 18.257812 L 53.527344 18.257812 L 53.527344 16.597656 L 55.1875 16.597656 L 55.1875 13.277344 L 53.527344 13.277344 Z M 53.527344 14.9375 " fill-opacity="1" fill-rule="nonzero"/><path fill="#9e9692" d="M 53.527344 6.640625 L 58.507812 6.640625 L 58.507812 11.617188 L 53.527344 11.617188 Z M 53.527344 6.640625 " fill-opacity="1" fill-rule="nonzero"/><path fill="#9e9692" d="M 56.847656 1.660156 L 56.847656 4.980469 L 58.507812 4.980469 L 58.507812 3.320312 L 60.164062 3.320312 L 60.164062 1.660156 Z M 56.847656 1.660156 " fill-opacity="1" fill-rule="nonzero"/><path fill="#9e9692" d="M 25.324219 41.492188 L 35.277344 41.492188 L 35.277344 46.472656 L 25.324219 46.472656 Z M 25.324219 41.492188 " fill-opacity="1" fill-rule="nonzero"/><path fill="#fff6ed" d="M 31.960938 24.894531 L 31.960938 23.234375 L 30.300781 23.234375 L 30.300781 21.574219 L 23.664062 21.574219 L 23.664062 23.234375 L 22.003906 23.234375 L 22.003906 24.894531 L 20.34375 24.894531 L 20.34375 31.535156 L 22.003906 31.535156 L 22.003906 33.195312 L 23.664062 33.195312 L 23.664062 34.851562 L 30.300781 34.851562 L 30.300781 33.195312 L 31.960938 33.195312 L 31.960938 31.535156 L 33.617188 31.535156 L 33.617188 24.894531 Z M 31.960938 24.894531 " fill-opacity="1" fill-rule="nonzero"/><path fill="#4a4744" d="M 56.847656 3.320312 L 58.507812 3.320312 L 58.507812 4.980469 L 56.847656 4.980469 Z M 56.847656 3.320312 " fill-opacity="1" fill-rule="nonzero"/><path fill="#4a4744" d="M 53.527344 14.9375 L 53.527344 16.597656 L 55.1875 16.597656 L 55.1875 13.277344 L 53.527344 13.277344 Z M 53.527344 14.9375 " fill-opacity="1" fill-rule="nonzero"/><path fill="#4a4744" d="M 36.9375 41.492188 L 38.597656 41.492188 L 38.597656 43.152344 L 36.9375 43.152344 Z M 36.9375 41.492188 " fill-opacity="1" fill-rule="nonzero"/><path fill="#ccbeb6" d="M 53.527344 6.640625 L 53.527344 9.957031 L 55.1875 9.957031 L 55.1875 8.296875 L 56.847656 8.296875 L 56.847656 6.640625 Z M 53.527344 6.640625 " fill-opacity="1" fill-rule="nonzero"/><path fill="#ccbeb6" d="M 26.980469 43.152344 L 33.617188 43.152344 L 33.617188 44.8125 L 26.980469 44.8125 Z M 26.980469 43.152344 " fill-opacity="1" fill-rule="nonzero"/><path fill="#ebceb0" d="M 23.664062 24.894531 L 23.664062 31.535156 L 30.300781 31.535156 L 30.300781 24.894531 Z M 23.664062 24.894531 " fill-opacity="1" fill-rule="nonzero"/><path fill="#161514" d="M 22.003906 34.851562 L 23.664062 34.851562 L 23.664062 36.511719 L 22.003906 36.511719 Z M 22.003906 34.851562 " fill-opacity="1" fill-rule="nonzero"/><path fill="#282228" d="M 15.367188 29.875 L 17.027344 29.875 L 17.027344 31.535156 L 15.367188 31.535156 Z M 15.367188 29.875 " fill-opacity="1" fill-rule="nonzero"/><path fill="#ffffff" d="M 41.914062 14.9375 L 43.574219 14.9375 L 43.574219 18.257812 L 41.914062 18.257812 Z M 41.914062 14.9375 " fill-opacity="1" fill-rule="nonzero"/><path fill="#ffffff" d="M 40.253906 19.917969 L 41.914062 19.917969 L 41.914062 21.574219 L 40.253906 21.574219 Z M 40.253906 19.917969 " fill-opacity="1" fill-rule="nonzero"/><path fill="#ffffff" d="M 40.253906 13.277344 L 41.914062 13.277344 L 41.914062 14.9375 L 40.253906 14.9375 Z M 40.253906 13.277344 " fill-opacity="1" fill-rule="nonzero"/><path fill="#ffffff" d="M 38.597656 18.257812 L 40.253906 18.257812 L 40.253906 19.917969 L 38.597656 19.917969 Z M 38.597656 18.257812 " fill-opacity="1" fill-rule="nonzero"/><path fill="#ffffff" d="M 38.597656 11.617188 L 40.253906 11.617188 L 40.253906 13.277344 L 38.597656 13.277344 Z M 38.597656 11.617188 " fill-opacity="1" fill-rule="nonzero"/><path fill="#ffffff" d="M 36.9375 21.574219 L 38.597656 21.574219 L 38.597656 23.234375 L 36.9375 23.234375 Z M 36.9375 21.574219 " fill-opacity="1" fill-rule="nonzero"/><path fill="#ffffff" d="M 36.9375 14.9375 L 38.597656 14.9375 L 38.597656 18.257812 L 36.9375 18.257812 Z M 36.9375 14.9375 " fill-opacity="1" fill-rule="nonzero"/><path fill="#ffffff" d="M 36.9375 9.957031 L 38.597656 9.957031 L 38.597656 11.617188 L 36.9375 11.617188 Z M 36.9375 9.957031 " fill-opacity="1" fill-rule="nonzero"/><path fill="#ffffff" d="M 35.277344 19.917969 L 36.9375 19.917969 L 36.9375 21.574219 L 35.277344 21.574219 Z M 35.277344 19.917969 " fill-opacity="1" fill-rule="nonzero"/><path fill="#ffffff" d="M 35.277344 13.277344 L 36.9375 13.277344 L 36.9375 14.9375 L 35.277344 14.9375 Z M 35.277344 13.277344 " fill-opacity="1" fill-rule="nonzero"/><path fill="#ffffff" d="M 33.617188 18.257812 L 35.277344 18.257812 L 35.277344 19.917969 L 33.617188 19.917969 Z M 33.617188 18.257812 " fill-opacity="1" fill-rule="nonzero"/><path fill="#ffffff" d="M 33.617188 8.296875 L 35.277344 8.296875 L 35.277344 9.957031 L 33.617188 9.957031 Z M 33.617188 8.296875 " fill-opacity="1" fill-rule="nonzero"/><path fill="#ffffff" d="M 31.960938 11.617188 L 33.617188 11.617188 L 33.617188 13.277344 L 31.960938 13.277344 Z M 31.960938 11.617188 " fill-opacity="1" fill-rule="nonzero"/><path fill="#ffffff" d="M 18.6875 39.832031 L 20.34375 39.832031 L 20.34375 41.492188 L 18.6875 41.492188 Z M 18.6875 39.832031 " fill-opacity="1" fill-rule="nonzero"/><path fill="#ffffff" d="M 17.027344 43.152344 L 18.6875 43.152344 L 18.6875 44.8125 L 17.027344 44.8125 Z M 17.027344 43.152344 " fill-opacity="1" fill-rule="nonzero"/><path fill="#ffffff" d="M 17.027344 38.171875 L 18.6875 38.171875 L 18.6875 39.832031 L 17.027344 39.832031 Z M 17.027344 38.171875 " fill-opacity="1" fill-rule="nonzero"/><path fill="#ffffff" d="M 15.367188 46.472656 L 18.6875 46.472656 L 18.6875 48.132812 L 15.367188 48.132812 Z M 15.367188 46.472656 " fill-opacity="1" fill-rule="nonzero"/><path fill="#ffffff" d="M 15.367188 41.492188 L 17.027344 41.492188 L 17.027344 43.152344 L 15.367188 43.152344 Z M 15.367188 41.492188 " fill-opacity="1" fill-rule="nonzero"/><path fill="#ffffff" d="M 15.367188 36.511719 L 17.027344 36.511719 L 17.027344 38.171875 L 15.367188 38.171875 Z M 15.367188 36.511719 " fill-opacity="1" fill-rule="nonzero"/><path fill="#ffffff" d="M 13.707031 44.8125 L 15.367188 44.8125 L 15.367188 46.472656 L 13.707031 46.472656 Z M 13.707031 44.8125 " fill-opacity="1" fill-rule="nonzero"/><path fill="#ffffff" d="M 13.707031 39.832031 L 15.367188 39.832031 L 15.367188 41.492188 L 13.707031 41.492188 Z M 13.707031 39.832031 " fill-opacity="1" fill-rule="nonzero"/><path fill="#ffffff" d="M 12.050781 43.152344 L 13.707031 43.152344 L 13.707031 44.8125 L 12.050781 44.8125 Z M 12.050781 43.152344 " fill-opacity="1" fill-rule="nonzero"/><path fill="#ffffff" d="M 12.050781 36.511719 L 13.707031 36.511719 L 13.707031 39.832031 L 12.050781 39.832031 Z M 12.050781 36.511719 " fill-opacity="1" fill-rule="nonzero"/><path fill="#ffffff" d="M 10.390625 41.492188 L 12.050781 41.492188 L 12.050781 43.152344 L 10.390625 43.152344 Z M 10.390625 41.492188 " fill-opacity="1" fill-rule="nonzero"/><path fill="#ffffff" d="M 8.730469 38.171875 L 10.390625 38.171875 L 10.390625 41.492188 L 8.730469 41.492188 Z M 8.730469 38.171875 " fill-opacity="1" fill-rule="nonzero"/><path fill="#2b242b" d="M 45.234375 14.9375 L 45.234375 11.617188 L 43.574219 11.617188 L 43.574219 9.957031 L 40.253906 9.957031 L 40.253906 13.277344 L 41.914062 13.277344 L 41.914062 14.9375 L 43.574219 14.9375 L 43.574219 18.257812 L 41.914062 18.257812 L 41.914062 14.9375 L 40.253906 14.9375 L 40.253906 13.277344 L 36.9375 13.277344 L 36.9375 14.9375 L 38.597656 14.9375 L 38.597656 18.257812 L 40.253906 18.257812 L 40.253906 19.917969 L 41.914062 19.917969 L 41.914062 21.574219 L 40.253906 21.574219 L 40.253906 19.917969 L 38.597656 19.917969 L 38.597656 18.257812 L 35.277344 18.257812 L 35.277344 19.917969 L 36.9375 19.917969 L 36.9375 21.574219 L 38.597656 21.574219 L 38.597656 23.234375 L 36.9375 23.234375 L 36.9375 21.574219 L 35.277344 21.574219 L 35.277344 19.917969 L 33.617188 19.917969 L 33.617188 21.574219 L 31.960938 21.574219 L 31.960938 23.234375 L 33.617188 23.234375 L 33.617188 24.894531 L 35.277344 24.894531 L 35.277344 31.535156 L 38.597656 31.535156 L 38.597656 28.214844 L 40.253906 28.214844 L 40.253906 26.554688 L 41.914062 26.554688 L 41.914062 24.894531 L 43.574219 24.894531 L 43.574219 21.574219 L 45.234375 21.574219 L 45.234375 18.257812 L 46.890625 18.257812 L 46.890625 14.9375 Z M 45.234375 14.9375 " fill-opacity="1" fill-rule="nonzero"/><path fill="#2b242b" d="M 20.34375 31.535156 L 18.6875 31.535156 L 18.6875 29.875 L 17.027344 29.875 L 17.027344 31.535156 L 3.753906 31.535156 L 3.753906 36.511719 L 5.414062 36.511719 L 5.414062 39.832031 L 7.070312 39.832031 L 7.070312 43.152344 L 8.730469 43.152344 L 8.730469 46.472656 L 10.390625 46.472656 L 10.390625 48.132812 L 13.707031 48.132812 L 13.707031 44.8125 L 12.050781 44.8125 L 12.050781 43.152344 L 10.390625 43.152344 L 10.390625 41.492188 L 8.730469 41.492188 L 8.730469 38.171875 L 10.390625 38.171875 L 10.390625 41.492188 L 12.050781 41.492188 L 12.050781 43.152344 L 13.707031 43.152344 L 13.707031 44.8125 L 15.367188 44.8125 L 15.367188 41.492188 L 13.707031 41.492188 L 13.707031 39.832031 L 12.050781 39.832031 L 12.050781 36.511719 L 13.707031 36.511719 L 13.707031 39.832031 L 15.367188 39.832031 L 15.367188 41.492188 L 18.6875 41.492188 L 18.6875 39.832031 L 17.027344 39.832031 L 17.027344 38.171875 L 15.367188 38.171875 L 15.367188 36.511719 L 17.027344 36.511719 L 17.027344 38.171875 L 20.34375 38.171875 L 20.34375 36.511719 L 22.003906 36.511719 L 22.003906 33.195312 L 20.34375 33.195312 Z M 20.34375 31.535156 " fill-opacity="1" fill-rule="nonzero"/><path fill="#000000" d="M 35.277344 51.449219 L 38.597656 51.449219 L 38.597656 53.109375 L 35.277344 53.109375 Z M 35.277344 51.449219 " fill-opacity="1" fill-rule="nonzero"/><path fill="#000000" d="M 8.730469 48.132812 L 12.050781 48.132812 L 12.050781 49.789062 L 8.730469 49.789062 Z M 8.730469 48.132812 " fill-opacity="1" fill-rule="nonzero"/><path fill="#000000" d="M 35.277344 3.320312 L 38.597656 3.320312 L 38.597656 4.980469 L 35.277344 4.980469 Z M 35.277344 3.320312 " fill-opacity="1" fill-rule="nonzero"/><path fill="#000000" d="M 58.507812 6.640625 L 60.164062 6.640625 L 60.164062 11.617188 L 58.507812 11.617188 Z M 58.507812 6.640625 " fill-opacity="1" fill-rule="nonzero"/><g clip-path="url(#1ec0954760)"><path fill="#000000" d="M 56.847656 0 L 56.847656 1.660156 L 60.164062 1.660156 L 60.164062 3.320312 L 58.507812 3.320312 L 58.507812 4.980469 L 61.824219 4.980469 L 61.824219 0 Z M 56.847656 0 " fill-opacity="1" fill-rule="nonzero"/></g><path fill="#000000" d="M 53.527344 11.617188 L 53.527344 13.277344 L 55.1875 13.277344 L 55.1875 16.597656 L 56.847656 16.597656 L 56.847656 13.277344 L 58.507812 13.277344 L 58.507812 11.617188 Z M 53.527344 11.617188 " fill-opacity="1" fill-rule="nonzero"/><path fill="#000000" d="M 56.847656 1.660156 L 55.1875 1.660156 L 55.1875 4.980469 L 53.527344 4.980469 L 53.527344 6.640625 L 58.507812 6.640625 L 58.507812 4.980469 L 56.847656 4.980469 Z M 56.847656 1.660156 " fill-opacity="1" fill-rule="nonzero"/><path fill="#000000" d="M 53.527344 18.257812 L 51.871094 18.257812 L 51.871094 21.574219 L 50.210938 21.574219 L 50.210938 26.554688 L 48.550781 26.554688 L 48.550781 29.875 L 46.890625 29.875 L 46.890625 34.851562 L 45.234375 34.851562 L 45.234375 38.171875 L 43.574219 38.171875 L 43.574219 39.832031 L 41.914062 39.832031 L 41.914062 41.492188 L 40.253906 41.492188 L 40.253906 43.152344 L 36.9375 43.152344 L 36.9375 41.492188 L 35.277344 41.492188 L 35.277344 46.472656 L 25.324219 46.472656 L 25.324219 41.492188 L 23.664062 41.492188 L 23.664062 48.132812 L 25.324219 48.132812 L 25.324219 49.789062 L 38.597656 49.789062 L 38.597656 46.472656 L 41.914062 46.472656 L 41.914062 44.8125 L 45.234375 44.8125 L 45.234375 41.492188 L 46.890625 41.492188 L 46.890625 39.832031 L 48.550781 39.832031 L 48.550781 36.511719 L 50.210938 36.511719 L 50.210938 33.195312 L 51.871094 33.195312 L 51.871094 36.511719 L 53.527344 36.511719 L 53.527344 19.917969 L 55.1875 19.917969 L 55.1875 16.597656 L 53.527344 16.597656 Z M 53.527344 18.257812 " fill-opacity="1" fill-rule="nonzero"/><path fill="#000000" d="M 51.871094 13.277344 L 53.527344 13.277344 L 53.527344 14.9375 L 51.871094 14.9375 Z M 51.871094 13.277344 " fill-opacity="1" fill-rule="nonzero"/><path fill="#000000" d="M 51.871094 6.640625 L 53.527344 6.640625 L 53.527344 11.617188 L 51.871094 11.617188 Z M 51.871094 6.640625 " fill-opacity="1" fill-rule="nonzero"/><path fill="#000000" d="M 50.210938 36.511719 L 51.871094 36.511719 L 51.871094 39.832031 L 50.210938 39.832031 Z M 50.210938 36.511719 " fill-opacity="1" fill-rule="nonzero"/><path fill="#000000" d="M 48.550781 39.832031 L 50.210938 39.832031 L 50.210938 43.152344 L 48.550781 43.152344 Z M 48.550781 39.832031 " fill-opacity="1" fill-rule="nonzero"/><path fill="#000000" d="M 48.550781 19.917969 L 50.210938 19.917969 L 50.210938 16.597656 L 51.871094 16.597656 L 51.871094 14.9375 L 50.210938 14.9375 L 50.210938 13.277344 L 48.550781 13.277344 Z M 48.550781 19.917969 " fill-opacity="1" fill-rule="nonzero"/><path fill="#000000" d="M 46.890625 43.152344 L 48.550781 43.152344 L 48.550781 46.472656 L 46.890625 46.472656 Z M 46.890625 43.152344 " fill-opacity="1" fill-rule="nonzero"/><path fill="#000000" d="M 46.890625 19.917969 L 48.550781 19.917969 L 48.550781 23.234375 L 46.890625 23.234375 Z M 46.890625 19.917969 " fill-opacity="1" fill-rule="nonzero"/><path fill="#000000" d="M 46.890625 9.957031 L 48.550781 9.957031 L 48.550781 13.277344 L 46.890625 13.277344 Z M 46.890625 9.957031 " fill-opacity="1" fill-rule="nonzero"/><path fill="#000000" d="M 45.234375 46.472656 L 46.890625 46.472656 L 46.890625 48.132812 L 45.234375 48.132812 Z M 45.234375 46.472656 " fill-opacity="1" fill-rule="nonzero"/><path fill="#000000" d="M 45.234375 23.234375 L 46.890625 23.234375 L 46.890625 28.214844 L 45.234375 28.214844 Z M 45.234375 23.234375 " fill-opacity="1" fill-rule="nonzero"/><path fill="#000000" d="M 45.234375 8.296875 L 46.890625 8.296875 L 46.890625 9.957031 L 45.234375 9.957031 Z M 45.234375 8.296875 " fill-opacity="1" fill-rule="nonzero"/><path fill="#000000" d="M 43.574219 28.214844 L 45.234375 28.214844 L 45.234375 33.195312 L 43.574219 33.195312 Z M 43.574219 28.214844 " fill-opacity="1" fill-rule="nonzero"/><path fill="#000000" d="M 41.914062 6.640625 L 45.234375 6.640625 L 45.234375 8.296875 L 41.914062 8.296875 Z M 41.914062 6.640625 " fill-opacity="1" fill-rule="nonzero"/><path fill="#000000" d="M 41.914062 48.132812 L 45.234375 48.132812 L 45.234375 49.789062 L 41.914062 49.789062 Z M 41.914062 48.132812 " fill-opacity="1" fill-rule="nonzero"/><path fill="#000000" d="M 41.914062 33.195312 L 43.574219 33.195312 L 43.574219 36.511719 L 41.914062 36.511719 Z M 41.914062 33.195312 " fill-opacity="1" fill-rule="nonzero"/><path fill="#000000" d="M 40.253906 36.511719 L 41.914062 36.511719 L 41.914062 38.171875 L 40.253906 38.171875 Z M 40.253906 36.511719 " fill-opacity="1" fill-rule="nonzero"/><path fill="#000000" d="M 38.597656 4.980469 L 41.914062 4.980469 L 41.914062 6.640625 L 38.597656 6.640625 Z M 38.597656 4.980469 " fill-opacity="1" fill-rule="nonzero"/><path fill="#000000" d="M 38.597656 49.789062 L 41.914062 49.789062 L 41.914062 51.449219 L 38.597656 51.449219 Z M 38.597656 49.789062 " fill-opacity="1" fill-rule="nonzero"/><path fill="#000000" d="M 38.597656 38.171875 L 40.253906 38.171875 L 40.253906 39.832031 L 38.597656 39.832031 Z M 38.597656 38.171875 " fill-opacity="1" fill-rule="nonzero"/><path fill="#000000" d="M 36.9375 39.832031 L 38.597656 39.832031 L 38.597656 41.492188 L 36.9375 41.492188 Z M 36.9375 39.832031 " fill-opacity="1" fill-rule="nonzero"/><path fill="#000000" d="M 33.617188 24.894531 L 35.277344 24.894531 L 35.277344 31.535156 L 33.617188 31.535156 Z M 33.617188 24.894531 " fill-opacity="1" fill-rule="nonzero"/><g clip-path="url(#026b0ea2e1)"><path fill="#000000" d="M 18.6875 53.109375 L 35.277344 53.109375 L 35.277344 54.769531 L 18.6875 54.769531 Z M 18.6875 53.109375 " fill-opacity="1" fill-rule="nonzero"/></g><path fill="#000000" d="M 31.960938 31.535156 L 33.617188 31.535156 L 33.617188 33.195312 L 31.960938 33.195312 Z M 31.960938 31.535156 " fill-opacity="1" fill-rule="nonzero"/><path fill="#000000" d="M 31.960938 23.234375 L 33.617188 23.234375 L 33.617188 24.894531 L 31.960938 24.894531 Z M 31.960938 23.234375 " fill-opacity="1" fill-rule="nonzero"/><path fill="#000000" d="M 30.300781 33.195312 L 31.960938 33.195312 L 31.960938 34.851562 L 30.300781 34.851562 Z M 30.300781 33.195312 " fill-opacity="1" fill-rule="nonzero"/><path fill="#000000" d="M 30.300781 21.574219 L 31.960938 21.574219 L 31.960938 23.234375 L 30.300781 23.234375 Z M 30.300781 21.574219 " fill-opacity="1" fill-rule="nonzero"/><path fill="#000000" d="M 25.324219 39.832031 L 35.277344 39.832031 L 35.277344 41.492188 L 25.324219 41.492188 Z M 25.324219 39.832031 " fill-opacity="1" fill-rule="nonzero"/><path fill="#000000" d="M 25.324219 26.554688 L 28.640625 26.554688 L 28.640625 29.875 L 25.324219 29.875 Z M 25.324219 26.554688 " fill-opacity="1" fill-rule="nonzero"/><path fill="#000000" d="M 23.664062 19.917969 L 30.300781 19.917969 L 30.300781 21.574219 L 23.664062 21.574219 Z M 23.664062 19.917969 " fill-opacity="1" fill-rule="nonzero"/><path fill="#000000" d="M 23.664062 34.851562 L 30.300781 34.851562 L 30.300781 36.511719 L 23.664062 36.511719 Z M 23.664062 34.851562 " fill-opacity="1" fill-rule="nonzero"/><path fill="#000000" d="M 22.003906 33.195312 L 23.664062 33.195312 L 23.664062 34.851562 L 22.003906 34.851562 Z M 22.003906 33.195312 " fill-opacity="1" fill-rule="nonzero"/><path fill="#000000" d="M 22.003906 21.574219 L 23.664062 21.574219 L 23.664062 23.234375 L 22.003906 23.234375 Z M 22.003906 21.574219 " fill-opacity="1" fill-rule="nonzero"/><path fill="#000000" d="M 20.34375 31.535156 L 22.003906 31.535156 L 22.003906 33.195312 L 20.34375 33.195312 Z M 20.34375 31.535156 " fill-opacity="1" fill-rule="nonzero"/><path fill="#000000" d="M 20.34375 23.234375 L 22.003906 23.234375 L 22.003906 24.894531 L 20.34375 24.894531 Z M 20.34375 23.234375 " fill-opacity="1" fill-rule="nonzero"/><path fill="#000000" d="M 18.6875 1.660156 L 35.277344 1.660156 L 35.277344 3.320312 L 18.6875 3.320312 Z M 18.6875 1.660156 " fill-opacity="1" fill-rule="nonzero"/><path fill="#000000" d="M 18.6875 24.894531 L 20.34375 24.894531 L 20.34375 31.535156 L 18.6875 31.535156 Z M 18.6875 24.894531 " fill-opacity="1" fill-rule="nonzero"/><path fill="#000000" d="M 15.367188 51.449219 L 18.6875 51.449219 L 18.6875 53.109375 L 15.367188 53.109375 Z M 15.367188 51.449219 " fill-opacity="1" fill-rule="nonzero"/><path fill="#000000" d="M 15.367188 3.320312 L 18.6875 3.320312 L 18.6875 4.980469 L 15.367188 4.980469 Z M 15.367188 3.320312 " fill-opacity="1" fill-rule="nonzero"/><path fill="#000000" d="M 12.050781 49.789062 L 15.367188 49.789062 L 15.367188 51.449219 L 12.050781 51.449219 Z M 12.050781 49.789062 " fill-opacity="1" fill-rule="nonzero"/><path fill="#000000" d="M 12.050781 4.980469 L 15.367188 4.980469 L 15.367188 6.640625 L 12.050781 6.640625 Z M 12.050781 4.980469 " fill-opacity="1" fill-rule="nonzero"/><path fill="#000000" d="M 8.730469 6.640625 L 12.050781 6.640625 L 12.050781 8.296875 L 8.730469 8.296875 Z M 8.730469 6.640625 " fill-opacity="1" fill-rule="nonzero"/><path fill="#000000" d="M 7.070312 46.472656 L 8.730469 46.472656 L 8.730469 48.132812 L 7.070312 48.132812 Z M 7.070312 46.472656 " fill-opacity="1" fill-rule="nonzero"/><path fill="#000000" d="M 7.070312 8.296875 L 8.730469 8.296875 L 8.730469 9.957031 L 7.070312 9.957031 Z M 7.070312 8.296875 " fill-opacity="1" fill-rule="nonzero"/><path fill="#000000" d="M 5.414062 43.152344 L 7.070312 43.152344 L 7.070312 46.472656 L 5.414062 46.472656 Z M 5.414062 43.152344 " fill-opacity="1" fill-rule="nonzero"/><path fill="#000000" d="M 5.414062 9.957031 L 7.070312 9.957031 L 7.070312 13.277344 L 5.414062 13.277344 Z M 5.414062 9.957031 " fill-opacity="1" fill-rule="nonzero"/><path fill="#000000" d="M 3.753906 39.832031 L 5.414062 39.832031 L 5.414062 43.152344 L 3.753906 43.152344 Z M 3.753906 39.832031 " fill-opacity="1" fill-rule="nonzero"/><path fill="#000000" d="M 3.753906 13.277344 L 5.414062 13.277344 L 5.414062 16.597656 L 3.753906 16.597656 Z M 3.753906 13.277344 " fill-opacity="1" fill-rule="nonzero"/><path fill="#000000" d="M 2.09375 36.511719 L 3.753906 36.511719 L 3.753906 39.832031 L 2.09375 39.832031 Z M 2.09375 36.511719 " fill-opacity="1" fill-rule="nonzero"/><path fill="#000000" d="M 2.09375 16.597656 L 3.753906 16.597656 L 3.753906 19.917969 L 2.09375 19.917969 Z M 2.09375 16.597656 " fill-opacity="1" fill-rule="nonzero"/><g clip-path="url(#d49de259de)"><path fill="#000000" d="M 0.433594 19.917969 L 2.09375 19.917969 L 2.09375 36.511719 L 0.433594 36.511719 Z M 0.433594 19.917969 " fill-opacity="1" fill-rule="nonzero"/></g></svg>